# MagicaVoxel @ Ephtracy

# group
g Rock_scnd

# material
mtllib Rock_scnd.mtl
usemtl palette

# normals
vn -1 0 0
vn 1 0 0
vn 0 0 1
vn 0 0 -1
vn 0 -1 0
vn 0 1 0

# texcoords
vt 0.982422 0.5
vt 0.986328 0.5

# verts
v -5.5 0 2.5
v -5.5 0 -0.5
v -5.5 0 -1.5
v -5.5 0 -2.5
v -5.5 1 1.5
v -5.5 1 -0.5
v -5.5 1 -1.5
v -5.5 2 2.5
v -5.5 2 1.5
v -5.5 2 -0.5
v -5.5 2 -2.5
v -4.5 0 3.5
v -4.5 0 2.5
v -4.5 0 -2.5
v -4.5 0 -4.5
v -4.5 2 3.5
v -4.5 2 2.5
v -4.5 2 1.5
v -4.5 2 -0.5
v -4.5 2 -2.5
v -4.5 2 -3.5
v -4.5 2 -4.5
v -4.5 3 2.5
v -4.5 3 1.5
v -4.5 3 -1.5
v -4.5 3 -2.5
v -4.5 3 -3.5
v -4.5 4 1.5
v -4.5 4 -1.5
v -4.5 4 -2.5
v -4.5 5 1.5
v -4.5 5 -1.5
v -4.5 5 -2.5
v -3.5 0 4.5
v -3.5 0 3.5
v -3.5 0 -4.5
v -3.5 0 -5.5
v -3.5 1 -4.5
v -3.5 1 -5.5
v -3.5 2 4.5
v -3.5 2 3.5
v -3.5 2 2.5
v -3.5 2 -3.5
v -3.5 2 -4.5
v -3.5 2 -5.5
v -3.5 3 3.5
v -3.5 3 2.5
v -3.5 3 1.5
v -3.5 3 -2.5
v -3.5 3 -3.5
v -3.5 3 -4.5
v -3.5 4 2.5
v -3.5 4 1.5
v -3.5 4 -2.5
v -3.5 4 -3.5
v -2.5 0 5.5
v -2.5 0 4.5
v -2.5 1 5.5
v -2.5 1 4.5
v -2.5 2 5.5
v -2.5 2 4.5
v -2.5 2 3.5
v -2.5 2 -4.5
v -2.5 2 -5.5
v -2.5 3 4.5
v -2.5 3 3.5
v -2.5 3 2.5
v -2.5 3 -3.5
v -2.5 3 -4.5
v -2.5 3 -5.5
v -2.5 4 3.5
v -2.5 4 2.5
v -2.5 4 -3.5
v -2.5 4 -4.5
v -2.5 5 1.5
v -2.5 5 -1.5
v -2.5 6 1.5
v -2.5 6 -1.5
v -1.5 2 5.5
v -1.5 2 4.5
v -1.5 3 5.5
v -1.5 3 4.5
v -1.5 4 3.5
v -1.5 4 1.5
v -1.5 4 -1.5
v -1.5 4 -3.5
v -1.5 5 3.5
v -1.5 5 1.5
v -1.5 6 0.5
v -1.5 6 -1.5
v -1.5 6 -3.5
v -1.5 7 0.5
v -1.5 7 -1.5
v -0.5 3 4.5
v -0.5 3 3.5
v -0.5 4 4.5
v -0.5 4 3.5
v -0.5 5 2.5
v -0.5 5 1.5
v -0.5 6 2.5
v -0.5 6 1.5
v -0.5 6 0.5
v -0.5 7 1.5
v -0.5 7 0.5
v -0.5 7 -0.5
v -0.5 8 0.5
v -0.5 8 -0.5
v -2.5 4 -1.5
v -2.5 4 -2.5
v -2.5 5 -1.5
v -2.5 5 -2.5
v 0.5 4 3.5
v 0.5 4 2.5
v 0.5 5 3.5
v 0.5 5 2.5
v 0.5 5 1.5
v 0.5 6 2.5
v 0.5 6 1.5
v 0.5 6 -0.5
v 0.5 6 -1.5
v 0.5 7 0.5
v 0.5 7 -0.5
v 0.5 7 -1.5
v 0.5 8 0.5
v 0.5 8 -0.5
v 1.5 2 -4.5
v 1.5 2 -5.5
v 1.5 3 4.5
v 1.5 3 3.5
v 1.5 3 -2.5
v 1.5 3 -3.5
v 1.5 3 -4.5
v 1.5 3 -5.5
v 1.5 4 4.5
v 1.5 4 3.5
v 1.5 4 -1.5
v 1.5 4 -2.5
v 1.5 4 -3.5
v 1.5 4 -4.5
v 1.5 6 1.5
v 1.5 6 0.5
v 1.5 6 -0.5
v 1.5 6 -1.5
v 1.5 6 -3.5
v 1.5 7 1.5
v 1.5 7 -0.5
v 2.5 0 -4.5
v 2.5 0 -5.5
v 2.5 2 5.5
v 2.5 2 4.5
v 2.5 2 -3.5
v 2.5 2 -4.5
v 2.5 2 -5.5
v 2.5 3 5.5
v 2.5 3 4.5
v 2.5 3 -3.5
v 2.5 3 -4.5
v 2.5 4 2.5
v 2.5 4 -0.5
v 2.5 4 -1.5
v 2.5 5 2.5
v 2.5 5 1.5
v 2.5 5 0.5
v 2.5 5 -0.5
v 2.5 6 1.5
v 2.5 6 0.5
v 2.5 6 -1.5
v 3.5 0 5.5
v 3.5 0 4.5
v 3.5 0 -3.5
v 3.5 0 -4.5
v 3.5 1 -3.5
v 3.5 2 5.5
v 3.5 2 4.5
v 3.5 2 3.5
v 3.5 2 -3.5
v 3.5 2 -4.5
v 3.5 3 4.5
v 3.5 3 3.5
v 3.5 3 -1.5
v 3.5 3 -2.5
v 3.5 4 -1.5
v 3.5 4 -2.5
v 4.5 0 4.5
v 4.5 0 3.5
v 4.5 0 -2.5
v 4.5 0 -3.5
v 4.5 1 -2.5
v 4.5 1 -3.5
v 4.5 2 4.5
v 4.5 2 3.5
v 4.5 2 2.5
v 4.5 2 1.5
v 4.5 2 -1.5
v 4.5 2 -2.5
v 4.5 2 -3.5
v 4.5 3 2.5
v 4.5 3 1.5
v 4.5 3 -1.5
v 4.5 3 -3.5
v 4.5 4 3.5
v 4.5 4 2.5
v 4.5 4 -1.5
v 5.5 0 3.5
v 5.5 0 0.5
v 5.5 0 -0.5
v 5.5 0 -1.5
v 5.5 0 -2.5
v 5.5 1 2.5
v 5.5 1 1.5
v 5.5 1 0.5
v 5.5 1 -0.5
v 5.5 1 -1.5
v 5.5 1 -2.5
v 5.5 2 3.5
v 5.5 2 2.5
v 5.5 2 1.5
v 5.5 2 -0.5
v 5.5 2 -1.5
v 5.5 2 -2.5
v 5.5 3 1.5
v 5.5 3 -1.5
v -2.5 0 5.5
v -2.5 1 5.5
v -2.5 2 5.5
v -1.5 0 5.5
v -1.5 1 5.5
v -1.5 2 5.5
v -1.5 3 5.5
v -0.5 0 5.5
v -0.5 1 5.5
v 2.5 2 5.5
v 2.5 3 5.5
v 3.5 0 5.5
v 3.5 2 5.5
v -3.5 0 4.5
v -3.5 2 4.5
v -2.5 0 4.5
v -2.5 1 4.5
v -2.5 2 4.5
v -2.5 3 4.5
v -1.5 2 4.5
v -1.5 3 4.5
v -0.5 3 4.5
v -0.5 4 4.5
v 1.5 3 4.5
v 1.5 4 4.5
v 2.5 2 4.5
v 2.5 3 4.5
v 3.5 0 4.5
v 3.5 2 4.5
v 3.5 3 4.5
v 4.5 0 4.5
v 4.5 2 4.5
v -4.5 0 3.5
v -4.5 2 3.5
v -3.5 0 3.5
v -3.5 2 3.5
v -3.5 3 3.5
v -2.5 2 3.5
v -2.5 3 3.5
v -2.5 4 3.5
v -1.5 4 3.5
v -1.5 5 3.5
v -0.5 3 3.5
v -0.5 4 3.5
v -0.5 5 3.5
v 0.5 4 3.5
v 0.5 5 3.5
v 1.5 3 3.5
v 1.5 4 3.5
v 2.5 3 3.5
v 2.5 4 3.5
v 3.5 2 3.5
v 3.5 3 3.5
v 3.5 4 3.5
v 4.5 0 3.5
v 4.5 2 3.5
v 4.5 4 3.5
v 5.5 0 3.5
v 5.5 2 3.5
v -5.5 0 2.5
v -5.5 2 2.5
v -4.5 0 2.5
v -4.5 2 2.5
v -4.5 3 2.5
v -3.5 2 2.5
v -3.5 3 2.5
v -3.5 4 2.5
v -2.5 3 2.5
v -2.5 4 2.5
v -0.5 5 2.5
v -0.5 6 2.5
v 0.5 4 2.5
v 0.5 5 2.5
v 0.5 6 2.5
v 1.5 4 2.5
v 1.5 5 2.5
v 2.5 4 2.5
v 2.5 5 2.5
v -4.5 3 1.5
v -4.5 4 1.5
v -4.5 5 1.5
v -3.5 3 1.5
v -3.5 4 1.5
v -2.5 4 1.5
v -2.5 5 1.5
v -2.5 6 1.5
v -1.5 4 1.5
v -1.5 5 1.5
v -0.5 5 1.5
v -0.5 6 1.5
v -0.5 7 1.5
v 0.5 5 1.5
v 0.5 6 1.5
v 1.5 5 1.5
v 1.5 6 1.5
v 1.5 7 1.5
v 2.5 5 1.5
v 2.5 6 1.5
v 4.5 2 1.5
v 4.5 3 1.5
v 5.5 2 1.5
v 5.5 3 1.5
v -1.5 6 0.5
v -1.5 7 0.5
v -0.5 6 0.5
v -0.5 7 0.5
v -0.5 8 0.5
v 0.5 7 0.5
v 0.5 8 0.5
v -0.5 7 -0.5
v -0.5 8 -0.5
v 0.5 6 -0.5
v 0.5 7 -0.5
v 0.5 8 -0.5
v 1.5 6 -0.5
v 1.5 7 -0.5
v -2.5 4 -1.5
v -2.5 5 -1.5
v -2.5 6 -1.5
v -1.5 4 -1.5
v -1.5 6 -1.5
v -1.5 7 -1.5
v -0.5 6 -1.5
v -0.5 7 -1.5
v 0.5 6 -1.5
v 0.5 7 -1.5
v 1.5 4 -1.5
v 1.5 6 -1.5
v 2.5 4 -1.5
v 2.5 6 -1.5
v 3.5 3 -1.5
v 3.5 4 -1.5
v 4.5 2 -1.5
v 4.5 3 -1.5
v 4.5 4 -1.5
v 5.5 2 -1.5
v 5.5 3 -1.5
v -5.5 0 -2.5
v -5.5 2 -2.5
v -4.5 0 -2.5
v -4.5 2 -2.5
v -4.5 3 -2.5
v -4.5 4 -2.5
v -4.5 5 -2.5
v -3.5 3 -2.5
v -3.5 4 -2.5
v -2.5 4 -2.5
v -2.5 5 -2.5
v 1.5 3 -2.5
v 1.5 4 -2.5
v 3.5 3 -2.5
v 3.5 4 -2.5
v 4.5 0 -2.5
v 4.5 1 -2.5
v 4.5 2 -2.5
v 5.5 0 -2.5
v 5.5 1 -2.5
v 5.5 2 -2.5
v -4.5 2 -3.5
v -4.5 3 -3.5
v -3.5 2 -3.5
v -3.5 3 -3.5
v -3.5 4 -3.5
v -2.5 3 -3.5
v -2.5 4 -3.5
v -1.5 4 -3.5
v -1.5 6 -3.5
v -0.5 4 -3.5
v -0.5 5 -3.5
v 0.5 4 -3.5
v 0.5 5 -3.5
v 0.5 6 -3.5
v 1.5 4 -3.5
v 1.5 6 -3.5
v 2.5 2 -3.5
v 2.5 3 -3.5
v 3.5 0 -3.5
v 3.5 1 -3.5
v 3.5 2 -3.5
v 4.5 0 -3.5
v 4.5 1 -3.5
v 4.5 2 -3.5
v 4.5 3 -3.5
v -4.5 0 -4.5
v -4.5 2 -4.5
v -3.5 0 -4.5
v -3.5 1 -4.5
v -3.5 2 -4.5
v -3.5 3 -4.5
v -2.5 2 -4.5
v -2.5 3 -4.5
v -2.5 4 -4.5
v -1.5 3 -4.5
v -1.5 4 -4.5
v -0.5 3 -4.5
v 0.5 3 -4.5
v 0.5 4 -4.5
v 1.5 2 -4.5
v 1.5 3 -4.5
v 1.5 4 -4.5
v 2.5 0 -4.5
v 2.5 2 -4.5
v 2.5 3 -4.5
v 3.5 0 -4.5
v 3.5 2 -4.5
v -3.5 0 -5.5
v -3.5 1 -5.5
v -3.5 2 -5.5
v -2.5 2 -5.5
v -2.5 3 -5.5
v -1.5 0 -5.5
v -1.5 1 -5.5
v -1.5 2 -5.5
v -0.5 2 -5.5
v -0.5 3 -5.5
v 0.5 0 -5.5
v 0.5 1 -5.5
v 0.5 2 -5.5
v 0.5 3 -5.5
v 1.5 2 -5.5
v 1.5 3 -5.5
v 2.5 0 -5.5
v 2.5 2 -5.5
v -2.5 0 5.5
v -1.5 0 5.5
v -0.5 0 5.5
v 3.5 0 5.5
v -3.5 0 4.5
v -2.5 0 4.5
v -1.5 0 4.5
v -0.5 0 4.5
v 3.5 0 4.5
v 4.5 0 4.5
v -4.5 0 3.5
v -3.5 0 3.5
v -2.5 0 3.5
v 4.5 0 3.5
v 5.5 0 3.5
v -5.5 0 2.5
v -4.5 0 2.5
v 4.5 0 0.5
v 5.5 0 0.5
v -5.5 0 -0.5
v -4.5 0 -0.5
v 4.5 0 -0.5
v 5.5 0 -0.5
v -5.5 0 -1.5
v -4.5 0 -1.5
v 4.5 0 -1.5
v 5.5 0 -1.5
v -5.5 0 -2.5
v -4.5 0 -2.5
v -2.5 0 -2.5
v 0.5 0 -2.5
v 1.5 0 -2.5
v 3.5 0 -2.5
v 4.5 0 -2.5
v 5.5 0 -2.5
v 3.5 0 -3.5
v 4.5 0 -3.5
v -4.5 0 -4.5
v -3.5 0 -4.5
v -1.5 0 -4.5
v 0.5 0 -4.5
v 1.5 0 -4.5
v 2.5 0 -4.5
v 3.5 0 -4.5
v -3.5 0 -5.5
v -1.5 0 -5.5
v 0.5 0 -5.5
v 2.5 0 -5.5
v -2.5 2 5.5
v -1.5 2 5.5
v 2.5 2 5.5
v 3.5 2 5.5
v -3.5 2 4.5
v -2.5 2 4.5
v -1.5 2 4.5
v 2.5 2 4.5
v 3.5 2 4.5
v 4.5 2 4.5
v -4.5 2 3.5
v -3.5 2 3.5
v -2.5 2 3.5
v 3.5 2 3.5
v 4.5 2 3.5
v 5.5 2 3.5
v -5.5 2 2.5
v -4.5 2 2.5
v -3.5 2 2.5
v 4.5 2 2.5
v 5.5 2 2.5
v -5.5 2 1.5
v -4.5 2 1.5
v 4.5 2 1.5
v 5.5 2 1.5
v -5.5 2 -0.5
v -4.5 2 -0.5
v 4.5 2 -1.5
v 5.5 2 -1.5
v -5.5 2 -2.5
v -4.5 2 -2.5
v 4.5 2 -2.5
v 5.5 2 -2.5
v -4.5 2 -3.5
v -3.5 2 -3.5
v 2.5 2 -3.5
v 3.5 2 -3.5
v -4.5 2 -4.5
v -3.5 2 -4.5
v -2.5 2 -4.5
v 1.5 2 -4.5
v 2.5 2 -4.5
v 3.5 2 -4.5
v -3.5 2 -5.5
v -2.5 2 -5.5
v 1.5 2 -5.5
v 2.5 2 -5.5
v -1.5 3 5.5
v 2.5 3 5.5
v -2.5 3 4.5
v -1.5 3 4.5
v -0.5 3 4.5
v 1.5 3 4.5
v 2.5 3 4.5
v 3.5 3 4.5
v -3.5 3 3.5
v -2.5 3 3.5
v -0.5 3 3.5
v 1.5 3 3.5
v 2.5 3 3.5
v 3.5 3 3.5
v -4.5 3 2.5
v -3.5 3 2.5
v -2.5 3 2.5
v -4.5 3 1.5
v -3.5 3 1.5
v 4.5 3 1.5
v 5.5 3 1.5
v 3.5 3 -1.5
v 4.5 3 -1.5
v 5.5 3 -1.5
v -4.5 3 -2.5
v -3.5 3 -2.5
v 1.5 3 -2.5
v 3.5 3 -2.5
v -4.5 3 -3.5
v -3.5 3 -3.5
v -2.5 3 -3.5
v 1.5 3 -3.5
v 2.5 3 -3.5
v 4.5 3 -3.5
v -3.5 3 -4.5
v -2.5 3 -4.5
v -1.5 3 -4.5
v -0.5 3 -4.5
v 0.5 3 -4.5
v 1.5 3 -4.5
v 2.5 3 -4.5
v -2.5 3 -5.5
v -0.5 3 -5.5
v 0.5 3 -5.5
v 1.5 3 -5.5
v -0.5 4 4.5
v 1.5 4 4.5
v -2.5 4 3.5
v -1.5 4 3.5
v -0.5 4 3.5
v 0.5 4 3.5
v 1.5 4 3.5
v 2.5 4 3.5
v 3.5 4 3.5
v 4.5 4 3.5
v -3.5 4 2.5
v -2.5 4 2.5
v 0.5 4 2.5
v 1.5 4 2.5
v 2.5 4 2.5
v 3.5 4 2.5
v 4.5 4 2.5
v -3.5 4 1.5
v -2.5 4 1.5
v -1.5 4 1.5
v 2.5 4 -0.5
v -2.5 4 -1.5
v -1.5 4 -1.5
v 1.5 4 -1.5
v 2.5 4 -1.5
v 3.5 4 -1.5
v 4.5 4 -1.5
v -3.5 4 -2.5
v -2.5 4 -2.5
v 1.5 4 -2.5
v 3.5 4 -2.5
v -3.5 4 -3.5
v -2.5 4 -3.5
v -1.5 4 -3.5
v -0.5 4 -3.5
v 0.5 4 -3.5
v 1.5 4 -3.5
v -2.5 4 -4.5
v -1.5 4 -4.5
v 0.5 4 -4.5
v 1.5 4 -4.5
v -1.5 5 3.5
v -0.5 5 3.5
v 0.5 5 3.5
v -0.5 5 2.5
v 0.5 5 2.5
v 1.5 5 2.5
v 2.5 5 2.5
v -4.5 5 1.5
v -2.5 5 1.5
v -1.5 5 1.5
v -0.5 5 1.5
v 0.5 5 1.5
v 1.5 5 1.5
v 2.5 5 1.5
v -4.5 5 -1.5
v -2.5 5 -1.5
v -4.5 5 -2.5
v -2.5 5 -2.5
v -0.5 6 2.5
v 0.5 6 2.5
v -2.5 6 1.5
v -0.5 6 1.5
v 0.5 6 1.5
v 1.5 6 1.5
v 2.5 6 1.5
v -1.5 6 0.5
v -0.5 6 0.5
v 1.5 6 0.5
v 2.5 6 0.5
v 0.5 6 -0.5
v 1.5 6 -0.5
v -2.5 6 -1.5
v -1.5 6 -1.5
v -0.5 6 -1.5
v 0.5 6 -1.5
v 1.5 6 -1.5
v 2.5 6 -1.5
v -0.5 6 -2.5
v 0.5 6 -2.5
v -1.5 6 -3.5
v 0.5 6 -3.5
v 1.5 6 -3.5
v -0.5 7 1.5
v 1.5 7 1.5
v -1.5 7 0.5
v -0.5 7 0.5
v 0.5 7 0.5
v -0.5 7 -0.5
v 0.5 7 -0.5
v 1.5 7 -0.5
v -1.5 7 -1.5
v -0.5 7 -1.5
v 0.5 7 -1.5
v -0.5 8 0.5
v 0.5 8 0.5
v -0.5 8 -0.5
v 0.5 8 -0.5

# faces
f 5/1/1 2/1/1 1/1/1
f 6/2/1 3/2/1 2/2/1
f 6/1/1 2/1/1 5/1/1
f 7/1/1 4/1/1 3/1/1
f 7/2/1 3/2/1 6/2/1
f 8/1/1 5/1/1 1/1/1
f 9/2/1 6/2/1 5/2/1
f 9/1/1 5/1/1 8/1/1
f 10/1/1 7/1/1 6/1/1
f 10/2/1 6/2/1 9/2/1
f 11/1/1 4/1/1 7/1/1
f 11/1/1 7/1/1 10/1/1
f 16/1/1 13/1/1 12/1/1
f 17/1/1 13/1/1 16/1/1
f 20/1/1 15/1/1 14/1/1
f 21/1/1 15/1/1 20/1/1
f 22/1/1 15/1/1 21/1/1
f 23/2/1 19/2/1 18/2/1
f 23/2/1 21/2/1 20/2/1
f 23/2/1 20/2/1 19/2/1
f 23/2/1 18/2/1 17/2/1
f 24/2/1 21/2/1 23/2/1
f 25/2/1 21/2/1 24/2/1
f 26/2/1 21/2/1 25/2/1
f 27/2/1 21/2/1 26/2/1
f 28/2/1 25/2/1 24/2/1
f 29/1/1 26/1/1 25/1/1
f 29/2/1 25/2/1 28/2/1
f 30/1/1 26/1/1 29/1/1
f 31/1/1 29/1/1 28/1/1
f 32/2/1 30/2/1 29/2/1
f 32/1/1 29/1/1 31/1/1
f 33/2/1 30/2/1 32/2/1
f 38/1/1 37/1/1 36/1/1
f 39/1/1 37/1/1 38/1/1
f 40/1/1 35/1/1 34/1/1
f 41/1/1 35/1/1 40/1/1
f 44/2/1 39/2/1 38/2/1
f 45/2/1 39/2/1 44/2/1
f 46/2/1 42/2/1 41/2/1
f 47/2/1 42/2/1 46/2/1
f 50/2/1 44/2/1 43/2/1
f 51/2/1 44/2/1 50/2/1
f 52/2/1 48/2/1 47/2/1
f 53/2/1 48/2/1 52/2/1
f 54/1/1 50/1/1 49/1/1
f 55/1/1 50/1/1 54/1/1
f 58/1/1 57/1/1 56/1/1
f 59/1/1 57/1/1 58/1/1
f 60/2/1 59/2/1 58/2/1
f 61/2/1 59/2/1 60/2/1
f 65/2/1 62/2/1 61/2/1
f 66/2/1 62/2/1 65/2/1
f 69/2/1 64/2/1 63/2/1
f 70/2/1 64/2/1 69/2/1
f 71/1/1 67/1/1 66/1/1
f 72/1/1 67/1/1 71/1/1
f 73/2/1 69/2/1 68/2/1
f 74/2/1 69/2/1 73/2/1
f 77/2/1 76/2/1 75/2/1
f 78/2/1 76/2/1 77/2/1
f 81/2/1 80/2/1 79/2/1
f 82/2/1 80/2/1 81/2/1
f 87/1/1 84/1/1 83/1/1
f 88/1/1 84/1/1 87/1/1
f 90/2/1 86/2/1 85/2/1
f 91/2/1 86/2/1 90/2/1
f 92/2/1 90/2/1 89/2/1
f 93/2/1 90/2/1 92/2/1
f 96/2/1 95/2/1 94/2/1
f 97/2/1 95/2/1 96/2/1
f 100/1/1 99/1/1 98/1/1
f 101/1/1 99/1/1 100/1/1
f 103/2/1 102/2/1 101/2/1
f 104/2/1 102/2/1 103/2/1
f 106/1/1 105/1/1 104/1/1
f 107/1/1 105/1/1 106/1/1
f 108/2/2 109/2/2 110/2/2
f 110/2/2 109/2/2 111/2/2
f 112/2/2 113/2/2 114/2/2
f 114/2/2 113/2/2 115/2/2
f 115/1/2 116/1/2 117/1/2
f 117/1/2 116/1/2 118/1/2
f 119/1/2 120/1/2 122/1/2
f 122/1/2 120/1/2 123/1/2
f 121/1/2 122/1/2 124/1/2
f 124/1/2 122/1/2 125/1/2
f 126/2/2 127/2/2 132/2/2
f 132/2/2 127/2/2 133/2/2
f 128/2/2 129/2/2 134/2/2
f 134/2/2 129/2/2 135/2/2
f 130/1/2 131/1/2 137/1/2
f 131/2/2 132/2/2 138/2/2
f 137/1/2 131/1/2 138/1/2
f 138/2/2 132/2/2 139/2/2
f 136/1/2 137/1/2 143/1/2
f 137/1/2 138/1/2 143/1/2
f 143/1/2 138/1/2 144/1/2
f 141/2/2 142/2/2 145/2/2
f 140/2/2 141/2/2 145/2/2
f 145/2/2 142/2/2 146/2/2
f 147/1/2 148/1/2 152/1/2
f 152/1/2 148/1/2 153/1/2
f 149/2/2 150/2/2 154/2/2
f 154/2/2 150/2/2 155/2/2
f 151/2/2 152/2/2 156/2/2
f 156/2/2 152/2/2 157/2/2
f 158/1/2 159/1/2 161/1/2
f 161/1/2 159/1/2 162/1/2
f 162/1/2 159/1/2 163/1/2
f 159/2/2 160/2/2 164/2/2
f 163/1/2 159/1/2 164/1/2
f 162/1/2 163/1/2 165/1/2
f 163/2/2 164/2/2 166/2/2
f 165/1/2 163/1/2 166/1/2
f 164/2/2 160/2/2 167/2/2
f 166/2/2 164/2/2 167/2/2
f 170/1/2 171/1/2 172/1/2
f 168/1/2 169/1/2 173/1/2
f 173/1/2 169/1/2 174/1/2
f 172/1/2 171/1/2 176/1/2
f 176/1/2 171/1/2 177/1/2
f 174/2/2 175/2/2 178/2/2
f 178/2/2 175/2/2 179/2/2
f 180/2/2 181/2/2 182/2/2
f 182/2/2 181/2/2 183/2/2
f 186/2/2 187/2/2 188/2/2
f 188/2/2 187/2/2 189/2/2
f 184/1/2 185/1/2 190/1/2
f 190/1/2 185/1/2 191/1/2
f 188/1/2 189/1/2 195/1/2
f 195/1/2 189/1/2 196/1/2
f 192/2/2 193/2/2 197/2/2
f 191/2/2 192/2/2 197/2/2
f 197/2/2 193/2/2 198/2/2
f 195/2/2 196/2/2 199/2/2
f 194/2/2 195/2/2 199/2/2
f 199/2/2 196/2/2 200/2/2
f 191/2/2 197/2/2 201/2/2
f 197/1/2 198/1/2 202/1/2
f 201/2/2 197/2/2 202/2/2
f 198/1/2 199/1/2 202/1/2
f 202/1/2 199/1/2 203/1/2
f 204/1/2 205/1/2 209/1/2
f 209/1/2 205/1/2 210/1/2
f 205/2/2 206/2/2 211/2/2
f 210/1/2 205/1/2 211/1/2
f 206/1/2 207/1/2 212/1/2
f 211/2/2 206/2/2 212/2/2
f 207/2/2 208/2/2 213/2/2
f 212/1/2 207/1/2 213/1/2
f 213/2/2 208/2/2 214/2/2
f 204/1/2 209/1/2 215/1/2
f 209/2/2 210/2/2 216/2/2
f 215/1/2 209/1/2 216/1/2
f 211/1/2 212/1/2 217/1/2
f 216/2/2 210/2/2 217/2/2
f 210/1/2 211/1/2 217/1/2
f 212/2/2 213/2/2 218/2/2
f 217/1/2 212/1/2 218/1/2
f 213/1/2 214/1/2 219/1/2
f 218/2/2 213/2/2 219/2/2
f 219/1/2 214/1/2 220/1/2
f 217/2/2 218/2/2 221/2/2
f 218/2/2 219/2/2 221/2/2
f 221/2/2 219/2/2 222/2/2
f 226/1/3 224/1/3 223/1/3
f 227/2/3 225/2/3 224/2/3
f 227/1/3 224/1/3 226/1/3
f 228/2/3 225/2/3 227/2/3
f 230/2/3 227/2/3 226/2/3
f 231/1/3 228/1/3 227/1/3
f 231/2/3 227/2/3 230/2/3
f 232/2/3 229/2/3 228/2/3
f 232/1/3 228/1/3 231/1/3
f 232/1/3 231/1/3 230/1/3
f 233/2/3 229/2/3 232/2/3
f 234/1/3 232/1/3 230/1/3
f 235/1/3 232/1/3 234/1/3
f 238/1/3 237/1/3 236/1/3
f 239/1/3 237/1/3 238/1/3
f 240/1/3 237/1/3 239/1/3
f 242/2/3 241/2/3 240/2/3
f 243/2/3 241/2/3 242/2/3
f 246/2/3 245/2/3 244/2/3
f 247/2/3 245/2/3 246/2/3
f 251/2/3 249/2/3 248/2/3
f 252/2/3 249/2/3 251/2/3
f 253/1/3 251/1/3 250/1/3
f 254/1/3 251/1/3 253/1/3
f 257/1/3 256/1/3 255/1/3
f 258/1/3 256/1/3 257/1/3
f 260/2/3 259/2/3 258/2/3
f 261/2/3 259/2/3 260/2/3
f 263/1/3 262/1/3 261/1/3
f 265/1/3 263/1/3 261/1/3
f 265/1/3 264/1/3 263/1/3
f 266/1/3 264/1/3 265/1/3
f 267/1/3 264/1/3 266/1/3
f 268/2/3 267/2/3 266/2/3
f 269/2/3 267/2/3 268/2/3
f 272/2/3 271/2/3 270/2/3
f 273/2/3 271/2/3 272/2/3
f 275/1/3 273/1/3 272/1/3
f 276/1/3 273/1/3 275/1/3
f 278/2/3 275/2/3 274/2/3
f 278/2/3 276/2/3 275/2/3
f 279/2/3 276/2/3 278/2/3
f 280/1/3 278/1/3 277/1/3
f 281/1/3 278/1/3 280/1/3
f 284/1/3 283/1/3 282/1/3
f 285/1/3 283/1/3 284/1/3
f 287/2/3 286/2/3 285/2/3
f 288/2/3 286/2/3 287/2/3
f 290/2/3 289/2/3 288/2/3
f 291/2/3 289/2/3 290/2/3
f 295/1/3 293/1/3 292/1/3
f 296/1/3 293/1/3 295/1/3
f 297/2/3 295/2/3 294/2/3
f 298/2/3 295/2/3 297/2/3
f 299/1/3 298/1/3 297/1/3
f 300/1/3 298/1/3 299/1/3
f 304/2/3 302/2/3 301/2/3
f 305/1/3 303/1/3 302/1/3
f 305/2/3 302/2/3 304/2/3
f 306/1/3 303/1/3 305/1/3
f 307/1/3 303/1/3 306/1/3
f 309/2/3 307/2/3 306/2/3
f 309/2/3 308/2/3 307/2/3
f 310/2/3 308/2/3 309/2/3
f 311/2/3 308/2/3 310/2/3
f 312/2/3 308/2/3 311/2/3
f 315/2/3 313/2/3 312/2/3
f 316/2/3 315/2/3 314/2/3
f 317/2/3 313/2/3 315/2/3
f 317/2/3 315/2/3 316/2/3
f 318/2/3 313/2/3 317/2/3
f 319/1/3 317/1/3 316/1/3
f 320/1/3 317/1/3 319/1/3
f 323/2/3 322/2/3 321/2/3
f 324/2/3 322/2/3 323/2/3
f 327/2/3 326/2/3 325/2/3
f 328/2/3 326/2/3 327/2/3
f 330/1/3 329/1/3 328/1/3
f 331/1/3 329/1/3 330/1/3
f 332/1/4 333/1/4 335/1/4
f 335/1/4 333/1/4 336/1/4
f 334/2/4 335/2/4 337/2/4
f 337/2/4 335/2/4 338/2/4
f 339/2/4 340/2/4 342/2/4
f 340/2/4 341/2/4 342/2/4
f 342/2/4 341/2/4 343/2/4
f 343/2/4 344/2/4 345/2/4
f 345/2/4 344/2/4 346/2/4
f 345/1/4 346/1/4 347/1/4
f 347/1/4 346/1/4 348/1/4
f 349/2/4 350/2/4 351/2/4
f 351/2/4 350/2/4 352/2/4
f 353/1/4 354/1/4 356/1/4
f 356/1/4 354/1/4 357/1/4
f 355/2/4 356/2/4 358/2/4
f 358/2/4 356/2/4 359/2/4
f 360/1/4 361/1/4 362/1/4
f 362/1/4 361/1/4 363/1/4
f 364/1/4 365/1/4 367/1/4
f 365/2/4 366/2/4 368/2/4
f 367/1/4 365/1/4 368/1/4
f 368/2/4 366/2/4 369/2/4
f 369/2/4 366/2/4 370/2/4
f 371/2/4 372/2/4 373/2/4
f 373/2/4 372/2/4 374/2/4
f 375/2/4 376/2/4 378/2/4
f 376/1/4 377/1/4 379/1/4
f 378/2/4 376/2/4 379/2/4
f 379/1/4 377/1/4 380/1/4
f 381/2/4 382/2/4 383/2/4
f 383/2/4 382/2/4 384/2/4
f 384/1/4 385/1/4 386/1/4
f 386/1/4 385/1/4 387/1/4
f 388/2/4 389/2/4 390/2/4
f 390/2/4 389/2/4 391/2/4
f 390/1/4 391/1/4 392/1/4
f 391/2/4 389/2/4 393/2/4
f 392/1/4 391/1/4 393/1/4
f 393/2/4 389/2/4 394/2/4
f 392/1/4 393/1/4 395/1/4
f 393/1/4 394/1/4 395/1/4
f 395/1/4 394/1/4 396/1/4
f 397/2/4 398/2/4 401/2/4
f 399/2/4 400/2/4 402/2/4
f 400/1/4 401/1/4 403/1/4
f 402/2/4 400/2/4 403/2/4
f 401/2/4 398/2/4 404/2/4
f 403/1/4 401/1/4 404/1/4
f 404/2/4 398/2/4 405/2/4
f 406/1/4 407/1/4 408/1/4
f 408/1/4 407/1/4 409/1/4
f 409/1/4 407/1/4 410/1/4
f 410/2/4 411/2/4 412/2/4
f 412/2/4 411/2/4 413/2/4
f 413/2/4 414/2/4 415/2/4
f 415/2/4 414/2/4 416/2/4
f 415/1/4 416/1/4 417/1/4
f 417/1/4 416/1/4 418/1/4
f 418/1/4 416/1/4 419/1/4
f 418/2/4 419/2/4 421/2/4
f 421/2/4 419/2/4 422/2/4
f 420/2/4 421/2/4 424/2/4
f 424/2/4 421/2/4 425/2/4
f 423/1/4 424/1/4 426/1/4
f 426/1/4 424/1/4 427/1/4
f 429/2/4 430/2/4 431/2/4
f 428/1/4 429/1/4 433/1/4
f 431/2/4 432/2/4 434/2/4
f 433/1/4 429/1/4 434/1/4
f 429/2/4 431/2/4 434/2/4
f 434/2/4 432/2/4 435/2/4
f 434/1/4 435/1/4 436/1/4
f 435/2/4 432/2/4 436/2/4
f 436/2/4 432/2/4 437/2/4
f 433/2/4 434/2/4 438/2/4
f 434/1/4 436/1/4 439/1/4
f 438/2/4 434/2/4 439/2/4
f 436/1/4 437/1/4 439/1/4
f 439/1/4 437/1/4 440/1/4
f 440/1/4 437/1/4 441/1/4
f 438/1/4 439/1/4 442/1/4
f 439/1/4 440/1/4 442/1/4
f 440/2/4 441/2/4 442/2/4
f 442/2/4 441/2/4 443/2/4
f 438/1/4 442/1/4 444/1/4
f 444/1/4 442/1/4 445/1/4
f 451/1/5 447/1/5 446/1/5
f 452/2/5 448/2/5 447/2/5
f 452/1/5 447/1/5 451/1/5
f 453/1/5 449/1/5 448/1/5
f 453/2/5 448/2/5 452/2/5
f 454/1/5 449/1/5 453/1/5
f 457/1/5 452/1/5 451/1/5
f 457/1/5 455/1/5 454/1/5
f 457/1/5 454/1/5 453/1/5
f 457/1/5 453/1/5 452/1/5
f 457/1/5 451/1/5 450/1/5
f 458/1/5 455/1/5 457/1/5
f 459/1/5 455/1/5 458/1/5
f 462/1/5 457/1/5 456/1/5
f 462/1/5 458/1/5 457/1/5
f 463/1/5 460/1/5 459/1/5
f 463/2/5 459/2/5 458/2/5
f 464/1/5 460/1/5 463/1/5
f 465/1/5 462/1/5 461/1/5
f 466/1/5 458/1/5 462/1/5
f 466/1/5 462/1/5 465/1/5
f 467/2/5 463/2/5 458/2/5
f 467/2/5 464/2/5 463/2/5
f 468/2/5 464/2/5 467/2/5
f 469/2/5 466/2/5 465/2/5
f 470/1/5 458/1/5 466/1/5
f 470/2/5 466/2/5 469/2/5
f 471/2/5 467/2/5 458/2/5
f 471/1/5 468/1/5 467/1/5
f 472/1/5 468/1/5 471/1/5
f 473/1/5 470/1/5 469/1/5
f 474/1/5 458/1/5 470/1/5
f 474/1/5 470/1/5 473/1/5
f 475/2/5 471/2/5 458/2/5
f 475/1/5 458/1/5 474/1/5
f 475/2/5 472/2/5 471/2/5
f 476/2/5 472/2/5 475/2/5
f 477/2/5 472/2/5 476/2/5
f 478/2/5 472/2/5 477/2/5
f 479/2/5 472/2/5 478/2/5
f 480/2/5 472/2/5 479/2/5
f 481/1/5 478/1/5 477/1/5
f 481/2/5 479/2/5 478/2/5
f 482/2/5 479/2/5 481/2/5
f 483/1/5 475/1/5 474/1/5
f 483/1/5 476/1/5 475/1/5
f 484/1/5 476/1/5 483/1/5
f 485/1/5 476/1/5 484/1/5
f 486/2/5 477/2/5 476/2/5
f 486/1/5 476/1/5 485/1/5
f 487/1/5 481/1/5 477/1/5
f 487/2/5 477/2/5 486/2/5
f 488/1/5 481/1/5 487/1/5
f 489/1/5 481/1/5 488/1/5
f 490/1/5 485/1/5 484/1/5
f 491/2/5 486/2/5 485/2/5
f 491/1/5 485/1/5 490/1/5
f 492/1/5 488/1/5 487/1/5
f 492/2/5 486/2/5 491/2/5
f 492/1/5 487/1/5 486/1/5
f 493/1/5 488/1/5 492/1/5
f 494/2/6 495/2/6 499/2/6
f 499/2/6 495/2/6 500/2/6
f 496/1/6 497/1/6 501/1/6
f 501/1/6 497/1/6 502/1/6
f 498/1/6 499/1/6 505/1/6
f 505/1/6 499/1/6 506/1/6
f 502/1/6 503/1/6 507/1/6
f 507/1/6 503/1/6 508/1/6
f 504/1/6 505/1/6 511/1/6
f 511/1/6 505/1/6 512/1/6
f 508/1/6 509/1/6 513/1/6
f 513/1/6 509/1/6 514/1/6
f 510/1/6 511/1/6 515/1/6
f 515/1/6 511/1/6 516/1/6
f 513/2/6 514/2/6 517/2/6
f 517/2/6 514/2/6 518/2/6
f 515/2/6 516/2/6 519/2/6
f 519/2/6 516/2/6 520/2/6
f 519/1/6 520/1/6 523/1/6
f 523/1/6 520/1/6 524/1/6
f 521/1/6 522/1/6 525/1/6
f 525/1/6 522/1/6 526/1/6
f 527/1/6 528/1/6 531/1/6
f 531/1/6 528/1/6 532/1/6
f 529/1/6 530/1/6 535/1/6
f 535/1/6 530/1/6 536/1/6
f 532/2/6 533/2/6 537/2/6
f 537/2/6 533/2/6 538/2/6
f 534/1/6 535/1/6 539/1/6
f 539/1/6 535/1/6 540/1/6
f 541/2/6 542/2/6 544/2/6
f 544/2/6 542/2/6 545/2/6
f 545/2/6 542/2/6 546/2/6
f 546/2/6 542/2/6 547/2/6
f 543/2/6 544/2/6 550/2/6
f 544/2/6 545/2/6 550/2/6
f 550/2/6 545/2/6 551/2/6
f 546/2/6 547/2/6 552/2/6
f 547/2/6 548/2/6 552/2/6
f 552/2/6 548/2/6 553/2/6
f 553/2/6 548/2/6 554/2/6
f 549/2/6 550/2/6 556/2/6
f 556/2/6 550/2/6 557/2/6
f 555/2/6 556/2/6 558/2/6
f 558/2/6 556/2/6 559/2/6
f 560/2/6 561/2/6 563/2/6
f 563/2/6 561/2/6 564/2/6
f 562/2/6 563/2/6 568/2/6
f 565/2/6 566/2/6 569/2/6
f 569/2/6 566/2/6 570/2/6
f 567/2/6 568/2/6 572/2/6
f 572/2/6 568/2/6 573/2/6
f 568/2/6 563/2/6 574/2/6
f 573/2/6 568/2/6 574/2/6
f 570/2/6 571/2/6 575/2/6
f 575/2/6 571/2/6 576/2/6
f 572/2/6 573/2/6 580/2/6
f 580/2/6 573/2/6 581/2/6
f 576/2/6 577/2/6 582/2/6
f 577/2/6 578/2/6 582/2/6
f 578/1/6 579/1/6 583/1/6
f 582/2/6 578/2/6 583/2/6
f 579/2/6 580/2/6 584/2/6
f 583/1/6 579/1/6 584/1/6
f 584/2/6 580/2/6 585/2/6
f 586/2/6 587/2/6 590/2/6
f 590/2/6 587/2/6 591/2/6
f 591/2/6 587/2/6 592/2/6
f 588/1/6 589/1/6 597/1/6
f 591/2/6 592/2/6 598/2/6
f 592/2/6 593/2/6 598/2/6
f 598/2/6 593/2/6 599/2/6
f 593/1/6 594/1/6 600/1/6
f 599/2/6 593/2/6 600/2/6
f 594/2/6 595/2/6 601/2/6
f 600/1/6 594/1/6 601/1/6
f 601/2/6 595/2/6 602/2/6
f 596/2/6 597/2/6 603/2/6
f 597/1/6 589/1/6 604/1/6
f 603/2/6 597/2/6 604/2/6
f 604/1/6 589/1/6 605/1/6
f 600/2/6 601/2/6 606/2/6
f 606/2/6 601/2/6 610/2/6
f 601/1/6 602/1/6 611/1/6
f 610/2/6 601/2/6 611/2/6
f 611/1/6 602/1/6 612/1/6
f 607/2/6 608/2/6 614/2/6
f 609/2/6 610/2/6 615/2/6
f 610/2/6 611/2/6 615/2/6
f 615/2/6 611/2/6 616/2/6
f 613/1/6 614/1/6 617/1/6
f 614/2/6 608/2/6 618/2/6
f 617/1/6 614/1/6 618/1/6
f 618/2/6 608/2/6 619/2/6
f 618/2/6 619/2/6 623/2/6
f 620/1/6 621/1/6 624/1/6
f 623/2/6 619/2/6 624/2/6
f 619/1/6 620/1/6 624/1/6
f 621/2/6 622/2/6 625/2/6
f 624/1/6 621/1/6 625/1/6
f 625/2/6 622/2/6 626/2/6
f 627/1/6 628/1/6 630/1/6
f 628/2/6 629/2/6 630/2/6
f 630/2/6 629/2/6 631/2/6
f 627/1/6 630/1/6 636/1/6
f 636/1/6 630/1/6 637/1/6
f 631/2/6 632/2/6 638/2/6
f 632/1/6 633/1/6 639/1/6
f 638/2/6 632/2/6 639/2/6
f 639/1/6 633/1/6 640/1/6
f 634/1/6 635/1/6 641/1/6
f 641/1/6 635/1/6 642/1/6
f 641/2/6 642/2/6 643/2/6
f 643/2/6 642/2/6 644/2/6
f 645/1/6 646/1/6 648/1/6
f 648/1/6 646/1/6 649/1/6
f 647/2/6 648/2/6 652/2/6
f 652/2/6 648/2/6 653/2/6
f 650/1/6 651/1/6 654/1/6
f 654/1/6 651/1/6 655/1/6
f 654/2/6 655/2/6 657/2/6
f 647/2/6 652/2/6 658/2/6
f 658/2/6 652/2/6 659/2/6
f 656/1/6 657/1/6 661/1/6
f 657/2/6 655/2/6 662/2/6
f 661/1/6 657/1/6 662/1/6
f 662/2/6 655/2/6 663/2/6
f 659/2/6 660/2/6 664/2/6
f 660/1/6 661/1/6 664/1/6
f 661/1/6 662/1/6 664/1/6
f 664/1/6 662/1/6 665/1/6
f 659/2/6 664/2/6 666/2/6
f 664/2/6 665/2/6 666/2/6
f 665/1/6 662/1/6 667/1/6
f 666/2/6 665/2/6 667/2/6
f 667/1/6 662/1/6 668/1/6
f 669/2/6 670/2/6 672/2/6
f 672/2/6 670/2/6 673/2/6
f 671/2/6 672/2/6 674/2/6
f 673/2/6 670/2/6 675/2/6
f 675/2/6 670/2/6 676/2/6
f 671/2/6 674/2/6 677/2/6
f 674/1/6 675/1/6 678/1/6
f 677/2/6 674/2/6 678/2/6
f 678/1/6 675/1/6 679/1/6
f 680/1/6 681/1/6 682/1/6
f 682/1/6 681/1/6 683/1/6
