# MagicaVoxel @ Ephtracy

# group
g campfire

# material
mtllib campfire.mtl
usemtl palette

# normals
vn -1 0 0
vn 1 0 0
vn 0 0 1
vn 0 0 -1
vn 0 -1 0
vn 0 1 0

# texcoords
vt 0.537109 0.5
vt 0.873047 0.5

# verts
v -4 0 2
v -4 0 1
v -4 0 -0
v -4 0 -1
v -4 1 2
v -4 1 1
v -4 1 -0
v -4 1 -1
v -3 0 -3
v -3 0 -4
v -3 1 -0
v -3 1 -1
v -3 1 -3
v -3 1 -4
v -3 2 -0
v -3 2 -1
v -2 0 1
v -2 0 -0
v -2 0 -1
v -2 0 -2
v -2 1 1
v -2 1 -0
v -2 1 -1
v -2 1 -2
v -2 2 -0
v -2 2 -1
v -2 3 -0
v -2 3 -1
v -1 0 4
v -1 0 2
v -1 1 4
v -1 1 3
v -1 1 2
v -1 1 1
v -1 2 3
v -1 2 2
v -1 2 1
v -1 2 -0
v -1 2 -1
v -1 2 -2
v -1 3 2
v -1 3 1
v -1 3 -0
v -1 3 -1
v -1 4 1
v -1 4 -2
v 0 0 -0
v 0 0 -2
v 0 1 -0
v 0 1 -2
v 0 1 -3
v 0 2 -2
v 0 3 -2
v 0 3 -3
v 1 0 -2
v 1 0 -4
v 1 1 -0
v 1 1 -1
v 1 1 -2
v 1 1 -3
v 1 2 -0
v 1 2 -1
v 1 2 -3
v 1 2 -4
v 2 0 -0
v 2 0 -1
v 2 1 -0
v 2 1 -1
v -1 0 1
v -1 0 -2
v -1 1 1
v -1 1 -0
v -1 1 -1
v -1 1 -2
v -1 2 -0
v -1 2 -1
v 0 0 4
v 0 0 2
v 0 0 -3
v 0 0 -4
v 0 1 4
v 0 1 3
v 0 1 2
v 0 1 1
v 0 1 -3
v 0 1 -4
v 0 2 3
v 0 2 2
v 0 2 1
v 0 2 -0
v 0 2 -1
v 0 2 -2
v 0 3 2
v 0 3 1
v 0 3 -2
v 0 4 1
v 0 4 -0
v 0 4 -1
v 0 4 -2
v 1 0 2
v 1 0 1
v 1 0 -0
v 1 0 -2
v 1 1 2
v 1 1 1
v 1 1 -0
v 1 1 -1
v 1 1 -2
v 1 2 -2
v 1 2 -3
v 1 3 -0
v 1 3 -1
v 1 3 -2
v 1 3 -3
v 1 4 -0
v 1 4 -1
v 2 0 -2
v 2 0 -4
v 2 2 -0
v 2 2 -1
v 2 2 -2
v 2 2 -4
v 2 3 -0
v 2 3 -1
v 3 1 -0
v 3 1 -1
v 3 2 -0
v 3 2 -1
v 4 0 -0
v 4 0 -1
v 4 1 -0
v 4 1 -1
v -1 0 4
v -1 1 4
v 0 0 4
v 0 1 4
v -1 1 3
v -1 2 3
v 0 1 3
v 0 2 3
v -4 0 2
v -4 1 2
v -1 0 2
v -1 1 2
v -1 2 2
v -1 3 2
v 0 0 2
v 0 1 2
v 0 2 2
v 0 3 2
v 1 0 2
v 1 1 2
v -1 3 1
v -1 4 1
v 0 3 1
v 0 4 1
v -4 0 -0
v -4 1 -0
v -3 1 -0
v -3 2 -0
v -2 0 -0
v -2 1 -0
v -2 2 -0
v -2 3 -0
v -1 1 -0
v -1 2 -0
v -1 3 -0
v 0 0 -0
v 0 1 -0
v 0 2 -0
v 0 4 -0
v 1 0 -0
v 1 1 -0
v 1 2 -0
v 1 3 -0
v 1 4 -0
v 2 0 -0
v 2 1 -0
v 2 2 -0
v 2 3 -0
v 3 1 -0
v 3 2 -0
v 4 0 -0
v 4 1 -0
v 0 1 -2
v 0 2 -2
v 0 3 -2
v 1 0 -2
v 1 1 -2
v 1 2 -2
v 1 3 -2
v 2 0 -2
v 2 2 -2
v -3 0 -3
v -3 1 -3
v 0 0 -3
v 0 1 -3
v -4 0 1
v -4 1 1
v -2 0 1
v -2 1 1
v -1 0 1
v -1 1 1
v -1 2 1
v 0 1 1
v 0 2 1
v 1 0 1
v 1 1 1
v -4 0 -1
v -4 1 -1
v -3 1 -1
v -3 2 -1
v -2 0 -1
v -2 1 -1
v -2 2 -1
v -2 3 -1
v -1 1 -1
v -1 2 -1
v -1 3 -1
v 0 2 -1
v 0 4 -1
v 1 1 -1
v 1 2 -1
v 1 3 -1
v 1 4 -1
v 2 0 -1
v 2 1 -1
v 2 2 -1
v 2 3 -1
v 3 1 -1
v 3 2 -1
v 4 0 -1
v 4 1 -1
v -2 0 -2
v -2 1 -2
v -1 0 -2
v -1 1 -2
v -1 2 -2
v -1 4 -2
v 0 0 -2
v 0 1 -2
v 0 2 -2
v 0 3 -2
v 0 4 -2
v 1 0 -2
v 1 1 -2
v 0 1 -3
v 0 3 -3
v 1 1 -3
v 1 2 -3
v 1 3 -3
v -3 0 -4
v -3 1 -4
v 0 0 -4
v 0 1 -4
v 1 0 -4
v 1 2 -4
v 2 0 -4
v 2 2 -4
v -1 0 4
v 0 0 4
v -4 0 2
v -1 0 2
v 0 0 2
v 1 0 2
v -4 0 1
v -2 0 1
v -1 0 1
v 1 0 1
v -4 0 -0
v -2 0 -0
v 0 0 -0
v 1 0 -0
v 2 0 -0
v 4 0 -0
v -4 0 -1
v -2 0 -1
v 2 0 -1
v 4 0 -1
v -2 0 -2
v -1 0 -2
v 0 0 -2
v 1 0 -2
v 2 0 -2
v -3 0 -3
v 0 0 -3
v -3 0 -4
v 0 0 -4
v 1 0 -4
v 2 0 -4
v 1 1 -0
v 2 1 -0
v 1 1 -1
v 2 1 -1
v 0 1 -2
v 1 1 -2
v 0 1 -3
v 1 1 -3
v -1 2 1
v 0 2 1
v -1 2 -0
v 0 2 -0
v 1 2 -0
v -1 2 -1
v 0 2 -1
v 1 2 -1
v -1 2 -2
v 0 2 -2
v -1 1 4
v 0 1 4
v -1 1 3
v 0 1 3
v -4 1 2
v -1 1 2
v 0 1 2
v 1 1 2
v -4 1 1
v -2 1 1
v -1 1 1
v 0 1 1
v 1 1 1
v -4 1 -0
v -3 1 -0
v -2 1 -0
v -1 1 -0
v 0 1 -0
v 1 1 -0
v 3 1 -0
v 4 1 -0
v -4 1 -1
v -3 1 -1
v -2 1 -1
v -1 1 -1
v 1 1 -1
v 3 1 -1
v 4 1 -1
v -2 1 -2
v -1 1 -2
v 0 1 -2
v 1 1 -2
v -3 1 -3
v 0 1 -3
v -3 1 -4
v 0 1 -4
v -1 2 3
v 0 2 3
v -1 2 2
v 0 2 2
v -3 2 -0
v -2 2 -0
v 2 2 -0
v 3 2 -0
v -3 2 -1
v -2 2 -1
v 2 2 -1
v 3 2 -1
v 1 2 -2
v 2 2 -2
v 1 2 -3
v 1 2 -4
v 2 2 -4
v -1 3 2
v 0 3 2
v -1 3 1
v 0 3 1
v -2 3 -0
v -1 3 -0
v 1 3 -0
v 2 3 -0
v -2 3 -1
v -1 3 -1
v 1 3 -1
v 2 3 -1
v 0 3 -2
v 1 3 -2
v 0 3 -3
v 1 3 -3
v -1 4 1
v 0 4 1
v 0 4 -0
v 1 4 -0
v 0 4 -1
v 1 4 -1
v -1 4 -2
v 0 4 -2

# faces
f 5/1/1 2/1/1 1/1/1
f 6/1/1 2/1/1 5/1/1
f 7/1/1 4/1/1 3/1/1
f 8/1/1 4/1/1 7/1/1
f 13/1/1 10/1/1 9/1/1
f 14/1/1 10/1/1 13/1/1
f 15/1/1 12/1/1 11/1/1
f 16/1/1 12/1/1 15/1/1
f 21/1/1 18/1/1 17/1/1
f 22/1/1 18/1/1 21/1/1
f 23/1/1 20/1/1 19/1/1
f 24/1/1 20/1/1 23/1/1
f 27/2/1 26/2/1 25/2/1
f 28/2/1 26/2/1 27/2/1
f 31/1/1 30/1/1 29/1/1
f 32/1/1 30/1/1 31/1/1
f 33/1/1 30/1/1 32/1/1
f 35/1/1 34/1/1 33/1/1
f 35/1/1 33/1/1 32/1/1
f 36/1/1 34/1/1 35/1/1
f 37/1/1 34/1/1 36/1/1
f 41/2/1 37/2/1 36/2/1
f 41/2/1 38/2/1 37/2/1
f 42/2/1 38/2/1 41/2/1
f 43/2/1 38/2/1 42/2/1
f 44/2/1 40/2/1 39/2/1
f 45/2/1 43/2/1 42/2/1
f 45/2/1 44/2/1 43/2/1
f 46/2/1 40/2/1 44/2/1
f 46/2/1 44/2/1 45/2/1
f 49/1/1 48/1/1 47/1/1
f 50/1/1 48/1/1 49/1/1
f 52/1/1 51/1/1 50/1/1
f 53/1/1 51/1/1 52/1/1
f 54/1/1 51/1/1 53/1/1
f 59/1/1 56/1/1 55/1/1
f 60/1/1 56/1/1 59/1/1
f 61/2/1 58/2/1 57/2/1
f 62/2/1 58/2/1 61/2/1
f 63/1/1 56/1/1 60/1/1
f 64/1/1 56/1/1 63/1/1
f 67/1/1 66/1/1 65/1/1
f 68/1/1 66/1/1 67/1/1
f 69/1/2 70/1/2 71/1/2
f 71/1/2 70/1/2 72/1/2
f 72/1/2 70/1/2 73/1/2
f 73/1/2 70/1/2 74/1/2
f 72/2/2 73/2/2 75/2/2
f 75/2/2 73/2/2 76/2/2
f 77/1/2 78/1/2 81/1/2
f 81/1/2 78/1/2 82/1/2
f 82/1/2 78/1/2 83/1/2
f 79/1/2 80/1/2 85/1/2
f 85/1/2 80/1/2 86/1/2
f 83/1/2 84/1/2 87/1/2
f 82/1/2 83/1/2 87/1/2
f 87/1/2 84/1/2 88/1/2
f 88/1/2 84/1/2 89/1/2
f 88/2/2 89/2/2 93/2/2
f 89/2/2 90/2/2 93/2/2
f 93/2/2 90/2/2 94/2/2
f 91/2/2 92/2/2 95/2/2
f 94/2/2 90/2/2 96/2/2
f 96/2/2 90/2/2 97/2/2
f 91/2/2 95/2/2 98/2/2
f 98/2/2 95/2/2 99/2/2
f 100/1/2 101/1/2 104/1/2
f 104/1/2 101/1/2 105/1/2
f 102/1/2 103/1/2 106/1/2
f 106/1/2 103/1/2 107/1/2
f 107/1/2 103/1/2 108/1/2
f 109/1/2 110/1/2 113/1/2
f 113/1/2 110/1/2 114/1/2
f 111/2/2 112/2/2 115/2/2
f 115/2/2 112/2/2 116/2/2
f 117/1/2 118/1/2 121/1/2
f 121/1/2 118/1/2 122/1/2
f 119/2/2 120/2/2 123/2/2
f 123/2/2 120/2/2 124/2/2
f 125/1/2 126/1/2 127/1/2
f 127/1/2 126/1/2 128/1/2
f 129/1/2 130/1/2 131/1/2
f 131/1/2 130/1/2 132/1/2
f 135/1/3 134/1/3 133/1/3
f 136/1/3 134/1/3 135/1/3
f 139/1/3 138/1/3 137/1/3
f 140/1/3 138/1/3 139/1/3
f 143/1/3 142/1/3 141/1/3
f 144/1/3 142/1/3 143/1/3
f 149/2/3 146/2/3 145/2/3
f 150/2/3 146/2/3 149/2/3
f 151/1/3 148/1/3 147/1/3
f 152/1/3 148/1/3 151/1/3
f 155/2/3 154/2/3 153/2/3
f 156/2/3 154/2/3 155/2/3
f 159/1/3 158/1/3 157/1/3
f 161/1/3 159/1/3 157/1/3
f 161/1/3 160/1/3 159/1/3
f 162/1/3 160/1/3 161/1/3
f 163/1/3 160/1/3 162/1/3
f 165/2/3 164/2/3 163/2/3
f 165/2/3 163/2/3 162/2/3
f 166/2/3 164/2/3 165/2/3
f 167/2/3 164/2/3 166/2/3
f 172/1/3 169/1/3 168/1/3
f 173/1/3 169/1/3 172/1/3
f 174/2/3 171/2/3 170/2/3
f 175/2/3 171/2/3 174/2/3
f 176/2/3 171/2/3 175/2/3
f 178/2/3 174/2/3 173/2/3
f 178/2/3 175/2/3 174/2/3
f 179/2/3 175/2/3 178/2/3
f 180/2/3 175/2/3 179/2/3
f 181/1/3 178/1/3 177/1/3
f 181/1/3 179/1/3 178/1/3
f 182/1/3 179/1/3 181/1/3
f 183/1/3 181/1/3 177/1/3
f 184/1/3 181/1/3 183/1/3
f 189/1/3 186/1/3 185/1/3
f 189/1/3 187/1/3 186/1/3
f 190/1/3 187/1/3 189/1/3
f 191/1/3 187/1/3 190/1/3
f 192/1/3 189/1/3 188/1/3
f 192/1/3 190/1/3 189/1/3
f 193/1/3 190/1/3 192/1/3
f 196/1/3 195/1/3 194/1/3
f 197/1/3 195/1/3 196/1/3
f 198/1/4 199/1/4 200/1/4
f 200/1/4 199/1/4 201/1/4
f 202/1/4 203/1/4 205/1/4
f 203/1/4 204/1/4 205/1/4
f 205/1/4 204/1/4 206/1/4
f 202/1/4 205/1/4 207/1/4
f 207/1/4 205/1/4 208/1/4
f 209/1/4 210/1/4 211/1/4
f 209/1/4 211/1/4 213/1/4
f 211/1/4 212/1/4 213/1/4
f 213/1/4 212/1/4 214/1/4
f 214/1/4 212/1/4 215/1/4
f 215/2/4 216/2/4 217/2/4
f 214/2/4 215/2/4 217/2/4
f 217/2/4 216/2/4 218/2/4
f 218/2/4 216/2/4 219/2/4
f 220/2/4 221/2/4 223/2/4
f 223/2/4 221/2/4 224/2/4
f 224/2/4 221/2/4 225/2/4
f 222/2/4 223/2/4 227/2/4
f 223/2/4 224/2/4 227/2/4
f 227/2/4 224/2/4 228/2/4
f 228/2/4 224/2/4 229/2/4
f 226/1/4 227/1/4 230/1/4
f 227/1/4 228/1/4 230/1/4
f 230/1/4 228/1/4 231/1/4
f 226/1/4 230/1/4 232/1/4
f 232/1/4 230/1/4 233/1/4
f 234/1/4 235/1/4 236/1/4
f 236/1/4 235/1/4 237/1/4
f 238/2/4 239/2/4 242/2/4
f 242/2/4 239/2/4 243/2/4
f 243/2/4 239/2/4 244/2/4
f 240/1/4 241/1/4 245/1/4
f 245/1/4 241/1/4 246/1/4
f 247/1/4 248/1/4 249/1/4
f 249/1/4 248/1/4 250/1/4
f 250/1/4 248/1/4 251/1/4
f 252/1/4 253/1/4 254/1/4
f 254/1/4 253/1/4 255/1/4
f 256/1/4 257/1/4 258/1/4
f 258/1/4 257/1/4 259/1/4
f 263/1/5 261/1/5 260/1/5
f 264/1/5 261/1/5 263/1/5
f 266/1/5 263/1/5 262/1/5
f 266/1/5 265/1/5 264/1/5
f 266/1/5 264/1/5 263/1/5
f 267/1/5 265/1/5 266/1/5
f 268/1/5 265/1/5 267/1/5
f 269/1/5 265/1/5 268/1/5
f 271/1/5 268/1/5 267/1/5
f 276/1/5 271/1/5 270/1/5
f 277/1/5 268/1/5 271/1/5
f 277/1/5 271/1/5 276/1/5
f 278/1/5 275/1/5 274/1/5
f 279/1/5 275/1/5 278/1/5
f 280/1/5 268/1/5 277/1/5
f 281/1/5 268/1/5 280/1/5
f 282/1/5 273/1/5 272/1/5
f 283/1/5 273/1/5 282/1/5
f 287/1/5 286/1/5 285/1/5
f 288/1/5 286/1/5 287/1/5
f 289/1/5 284/1/5 283/1/5
f 290/1/5 284/1/5 289/1/5
f 293/2/5 292/2/5 291/2/5
f 294/2/5 292/2/5 293/2/5
f 297/1/5 296/1/5 295/1/5
f 298/1/5 296/1/5 297/1/5
f 301/2/5 300/2/5 299/2/5
f 302/2/5 300/2/5 301/2/5
f 304/1/5 302/1/5 301/1/5
f 305/2/5 303/2/5 302/2/5
f 305/1/5 302/1/5 304/1/5
f 306/2/5 303/2/5 305/2/5
f 307/2/5 305/2/5 304/2/5
f 308/2/5 305/2/5 307/2/5
f 309/1/6 310/1/6 311/1/6
f 311/1/6 310/1/6 312/1/6
f 313/1/6 314/1/6 317/1/6
f 317/1/6 314/1/6 318/1/6
f 318/1/6 314/1/6 319/1/6
f 315/1/6 316/1/6 320/1/6
f 320/1/6 316/1/6 321/1/6
f 318/1/6 319/1/6 324/1/6
f 324/1/6 319/1/6 325/1/6
f 322/1/6 323/1/6 330/1/6
f 330/1/6 323/1/6 331/1/6
f 326/1/6 327/1/6 334/1/6
f 328/1/6 329/1/6 335/1/6
f 335/1/6 329/1/6 336/1/6
f 332/1/6 333/1/6 337/1/6
f 337/1/6 333/1/6 338/1/6
f 326/1/6 334/1/6 339/1/6
f 339/1/6 334/1/6 340/1/6
f 341/1/6 342/1/6 343/1/6
f 343/1/6 342/1/6 344/1/6
f 345/1/6 346/1/6 347/1/6
f 347/1/6 346/1/6 348/1/6
f 349/1/6 350/1/6 353/1/6
f 353/1/6 350/1/6 354/1/6
f 351/1/6 352/1/6 355/1/6
f 355/1/6 352/1/6 356/1/6
f 357/1/6 358/1/6 359/1/6
f 359/1/6 358/1/6 360/1/6
f 360/1/6 358/1/6 361/1/6
f 362/2/6 363/2/6 364/2/6
f 364/2/6 363/2/6 365/2/6
f 366/2/6 367/2/6 370/2/6
f 370/2/6 367/2/6 371/2/6
f 368/2/6 369/2/6 372/2/6
f 372/2/6 369/2/6 373/2/6
f 374/1/6 375/1/6 376/1/6
f 376/1/6 375/1/6 377/1/6
f 378/2/6 379/2/6 380/2/6
f 378/2/6 380/2/6 382/2/6
f 380/2/6 381/2/6 382/2/6
f 382/2/6 381/2/6 383/2/6
f 378/2/6 382/2/6 384/2/6
f 384/2/6 382/2/6 385/2/6
