# MagicaVoxel @ Ephtracy

# group
g spear_stone

# material
mtllib spear_stone.mtl
usemtl palette

# normals
vn -1 0 0
vn 1 0 0
vn 0 0 1
vn 0 0 -1
vn 0 -1 0
vn 0 1 0

# texcoords
vt 0.373047 0.5
vt 0.970703 0.5
vt 0.978516 0.5

# verts
v -1.5 1 17
v -1.5 1 15
v -1.5 2 17
v -1.5 2 15
v -0.5 0 17
v -0.5 0 15
v -0.5 1 19
v -0.5 1 17
v -0.5 1 15
v -0.5 1 -3
v -0.5 2 19
v -0.5 2 17
v -0.5 2 15
v -0.5 2 -3
v -0.5 3 17
v -0.5 3 15
v 0.5 0 17
v 0.5 0 15
v 0.5 1 19
v 0.5 1 17
v 0.5 1 15
v 0.5 1 -3
v 0.5 2 19
v 0.5 2 17
v 0.5 2 15
v 0.5 2 -3
v 0.5 3 17
v 0.5 3 15
v 1.5 1 17
v 1.5 1 15
v 1.5 2 17
v 1.5 2 15
v -0.5 1 19
v -0.5 2 19
v 0.5 1 19
v 0.5 2 19
v -1.5 1 17
v -1.5 2 17
v -0.5 0 17
v -0.5 1 17
v -0.5 2 17
v -0.5 3 17
v 0.5 0 17
v 0.5 1 17
v 0.5 2 17
v 0.5 3 17
v 1.5 1 17
v 1.5 2 17
v -1.5 1 15
v -1.5 2 15
v -0.5 0 15
v -0.5 1 15
v -0.5 2 15
v -0.5 3 15
v 0.5 0 15
v 0.5 1 15
v 0.5 2 15
v 0.5 3 15
v 1.5 1 15
v 1.5 2 15
v -0.5 1 -3
v -0.5 2 -3
v 0.5 1 -3
v 0.5 2 -3
v -0.5 0 17
v 0.5 0 17
v -0.5 0 15
v 0.5 0 15
v -0.5 1 19
v 0.5 1 19
v -1.5 1 17
v -0.5 1 17
v 0.5 1 17
v 1.5 1 17
v -1.5 1 15
v -0.5 1 15
v 0.5 1 15
v 1.5 1 15
v -0.5 1 -3
v 0.5 1 -3
v -0.5 2 19
v 0.5 2 19
v -1.5 2 17
v -0.5 2 17
v 0.5 2 17
v 1.5 2 17
v -1.5 2 15
v -0.5 2 15
v 0.5 2 15
v 1.5 2 15
v -0.5 2 -3
v 0.5 2 -3
v -0.5 3 17
v 0.5 3 17
v -0.5 3 15
v 0.5 3 15

# faces
f 3/3/1 2/3/1 1/3/1
f 4/3/1 2/3/1 3/3/1
f 8/3/1 6/3/1 5/3/1
f 9/3/1 6/3/1 8/3/1
f 11/3/1 8/3/1 7/3/1
f 12/3/1 8/3/1 11/3/1
f 13/1/1 10/1/1 9/1/1
f 14/1/1 10/1/1 13/1/1
f 15/3/1 13/3/1 12/3/1
f 16/3/1 13/3/1 15/3/1
f 17/3/2 18/3/2 20/3/2
f 20/3/2 18/3/2 21/3/2
f 19/3/2 20/3/2 23/3/2
f 23/3/2 20/3/2 24/3/2
f 21/1/2 22/1/2 25/1/2
f 25/1/2 22/1/2 26/1/2
f 24/3/2 25/3/2 27/3/2
f 27/3/2 25/3/2 28/3/2
f 29/3/2 30/3/2 31/3/2
f 31/3/2 30/3/2 32/3/2
f 35/3/3 34/3/3 33/3/3
f 36/3/3 34/3/3 35/3/3
f 40/3/3 38/3/3 37/3/3
f 41/3/3 38/3/3 40/3/3
f 43/3/3 40/3/3 39/3/3
f 44/3/3 40/3/3 43/3/3
f 45/3/3 42/3/3 41/3/3
f 46/3/3 42/3/3 45/3/3
f 47/3/3 45/3/3 44/3/3
f 48/3/3 45/3/3 47/3/3
f 49/3/4 50/3/4 52/3/4
f 52/3/4 50/3/4 53/3/4
f 51/3/4 52/3/4 55/3/4
f 55/3/4 52/3/4 56/3/4
f 53/3/4 54/3/4 57/3/4
f 57/3/4 54/3/4 58/3/4
f 56/3/4 57/3/4 59/3/4
f 59/3/4 57/3/4 60/3/4
f 61/1/4 62/1/4 63/1/4
f 63/1/4 62/1/4 64/1/4
f 67/3/5 66/3/5 65/3/5
f 68/3/5 66/3/5 67/3/5
f 72/3/5 70/3/5 69/3/5
f 73/3/5 70/3/5 72/3/5
f 75/3/5 72/3/5 71/3/5
f 76/3/5 72/3/5 75/3/5
f 77/3/5 74/3/5 73/3/5
f 78/3/5 74/3/5 77/3/5
f 79/1/5 77/1/5 76/1/5
f 80/1/5 77/1/5 79/1/5
f 81/3/6 82/3/6 84/3/6
f 84/3/6 82/3/6 85/3/6
f 83/3/6 84/3/6 87/3/6
f 87/3/6 84/3/6 88/3/6
f 85/3/6 86/3/6 89/3/6
f 89/3/6 86/3/6 90/3/6
f 88/1/6 89/1/6 91/1/6
f 91/1/6 89/1/6 92/1/6
f 93/3/6 94/3/6 95/3/6
f 95/3/6 94/3/6 96/3/6
