# MagicaVoxel @ Ephtracy

# group
g fox

# material
mtllib fox.mtl
usemtl palette

# normals
vn -1 0 0
vn 1 0 0
vn 0 0 1
vn 0 0 -1
vn 0 -1 0
vn 0 1 0

# texcoords
vt 0.0644531 0.5
vt 0.0878906 0.5
vt 0.0917969 0.5
vt 0.958984 0.5
vt 0.962891 0.5
vt 0.966797 0.5
vt 0.970703 0.5
vt 0.994141 0.5

# verts
v -2.5 0 4
v -2.5 0 2
v -2.5 0 -2
v -2.5 0 -4
v -2.5 1 -2
v -2.5 1 -4
v -2.5 3 4
v -2.5 3 2
v -2.5 3 -2
v -2.5 4 3
v -2.5 4 -1
v -2.5 4 -3
v -2.5 4 -4
v -2.5 5 4
v -2.5 5 3
v -2.5 5 -1
v -2.5 5 -3
v -1.5 3 5
v -1.5 3 4
v -1.5 4 8
v -1.5 4 7
v -1.5 4 6
v -1.5 4 5
v -1.5 4 4
v -1.5 4 -3
v -1.5 4 -4
v -1.5 5 8
v -1.5 5 7
v -1.5 5 6
v -1.5 5 5
v -1.5 5 4
v -1.5 5 3
v -1.5 5 -1
v -1.5 5 -2
v -1.5 5 -3
v -1.5 5 -4
v -1.5 6 6
v -1.5 6 5
v -1.5 6 4
v -1.5 6 3
v -1.5 6 -1
v -1.5 6 -2
v -1.5 6 -3
v -1.5 7 6
v -1.5 7 5
v -1.5 8 4
v -1.5 8 3
v -1.5 9 5
v -1.5 9 4
v -1.5 9 3
v -0.5 2 -6
v -0.5 2 -7
v -0.5 2 -8
v -0.5 2 -9
v -0.5 3 -4
v -0.5 3 -6
v -0.5 3 -7
v -0.5 3 -8
v -0.5 3 -9
v -0.5 4 -4
v -0.5 4 -5
v -0.5 4 -6
v -0.5 4 -7
v -0.5 4 -8
v -0.5 4 -9
v -0.5 5 8
v -0.5 5 7
v -0.5 5 6
v -0.5 5 -3
v -0.5 5 -4
v -0.5 5 -5
v -0.5 5 -6
v -0.5 5 -7
v -0.5 6 8
v -0.5 6 7
v -0.5 6 6
v -0.5 6 -3
v -0.5 6 -5
v 0.5 0 4
v 0.5 0 3
v 0.5 0 2
v 0.5 0 -2
v 0.5 0 -3
v 0.5 0 -4
v 0.5 1 -3
v 0.5 1 -4
v 0.5 3 4
v 0.5 3 3
v 0.5 3 2
v 0.5 3 -2
v 0.5 3 -3
v 0.5 3 -4
v 0.5 7 5
v 0.5 7 4
v 0.5 8 4
v 0.5 8 3
v 0.5 9 5
v 0.5 9 4
v 0.5 9 3
v -0.5 0 4
v -0.5 0 3
v -0.5 0 2
v -0.5 0 -2
v -0.5 0 -4
v -0.5 1 4
v -0.5 1 3
v -0.5 2 -3
v -0.5 2 -4
v -0.5 3 4
v -0.5 3 2
v -0.5 3 -2
v -0.5 3 -3
v -0.5 3 -4
v -0.5 7 5
v -0.5 7 4
v -0.5 8 4
v -0.5 8 3
v -0.5 9 5
v -0.5 9 4
v -0.5 9 3
v 0.5 2 -6
v 0.5 2 -7
v 0.5 2 -8
v 0.5 2 -9
v 0.5 3 -4
v 0.5 3 -6
v 0.5 3 -7
v 0.5 3 -8
v 0.5 3 -9
v 0.5 4 -5
v 0.5 4 -6
v 0.5 4 -7
v 0.5 4 -8
v 0.5 4 -9
v 0.5 5 8
v 0.5 5 7
v 0.5 5 6
v 0.5 5 -3
v 0.5 5 -4
v 0.5 5 -5
v 0.5 5 -6
v 0.5 5 -7
v 0.5 6 8
v 0.5 6 7
v 0.5 6 6
v 0.5 6 -3
v 0.5 6 -5
v 1.5 3 5
v 1.5 3 4
v 1.5 4 8
v 1.5 4 7
v 1.5 4 6
v 1.5 4 5
v 1.5 4 4
v 1.5 4 -3
v 1.5 4 -4
v 1.5 5 8
v 1.5 5 7
v 1.5 5 6
v 1.5 5 5
v 1.5 5 4
v 1.5 5 3
v 1.5 5 2
v 1.5 5 -0
v 1.5 5 -1
v 1.5 5 -2
v 1.5 5 -3
v 1.5 5 -4
v 1.5 6 6
v 1.5 6 5
v 1.5 6 4
v 1.5 6 3
v 1.5 6 2
v 1.5 6 -0
v 1.5 6 -1
v 1.5 6 -2
v 1.5 6 -3
v 1.5 7 6
v 1.5 7 5
v 1.5 8 4
v 1.5 8 3
v 1.5 9 5
v 1.5 9 4
v 1.5 9 3
v 2.5 0 4
v 2.5 0 2
v 2.5 0 -2
v 2.5 0 -3
v 2.5 0 -4
v 2.5 1 3
v 2.5 1 2
v 2.5 1 -2
v 2.5 1 -3
v 2.5 2 -2
v 2.5 2 -3
v 2.5 3 4
v 2.5 3 3
v 2.5 3 2
v 2.5 3 -2
v 2.5 3 -3
v 2.5 3 -4
v 2.5 4 3
v 2.5 4 2
v 2.5 4 -0
v 2.5 4 -1
v 2.5 4 -3
v 2.5 4 -4
v 2.5 5 4
v 2.5 5 3
v 2.5 5 2
v 2.5 5 -0
v 2.5 5 -1
v 2.5 5 -3
v -1.5 4 8
v -1.5 5 8
v -0.5 5 8
v -0.5 6 8
v 0.5 5 8
v 0.5 6 8
v 1.5 4 8
v 1.5 5 8
v -1.5 5 6
v -1.5 6 6
v -1.5 7 6
v -0.5 5 6
v -0.5 6 6
v -0.5 7 6
v 0.5 5 6
v 0.5 6 6
v 0.5 7 6
v 1.5 5 6
v 1.5 6 6
v 1.5 7 6
v -1.5 3 5
v -1.5 4 5
v -1.5 7 5
v -1.5 9 5
v -0.5 3 5
v -0.5 4 5
v -0.5 7 5
v -0.5 9 5
v 0.5 4 5
v 0.5 7 5
v 0.5 9 5
v 1.5 3 5
v 1.5 4 5
v 1.5 7 5
v 1.5 9 5
v -2.5 0 4
v -2.5 3 4
v -2.5 5 4
v -1.5 1 4
v -1.5 3 4
v -1.5 4 4
v -1.5 5 4
v -0.5 0 4
v -0.5 1 4
v -0.5 3 4
v 0.5 0 4
v 0.5 3 4
v 1.5 3 4
v 1.5 4 4
v 1.5 5 4
v 2.5 0 4
v 2.5 3 4
v 2.5 5 4
v -2.5 0 -2
v -2.5 1 -2
v -2.5 3 -2
v -1.5 0 -2
v -1.5 1 -2
v -1.5 3 -2
v -0.5 0 -2
v -0.5 3 -2
v 0.5 0 -2
v 0.5 3 -2
v 1.5 1 -2
v 1.5 2 -2
v 1.5 3 -2
v 2.5 0 -2
v 2.5 1 -2
v 2.5 2 -2
v 2.5 3 -2
v -0.5 2 -6
v -0.5 3 -6
v 0.5 2 -6
v 0.5 3 -6
v -1.5 6 4
v -1.5 8 4
v -0.5 7 4
v -0.5 8 4
v 0.5 7 4
v 0.5 8 4
v 1.5 6 4
v 1.5 8 4
v -1.5 8 3
v -1.5 9 3
v -0.5 8 3
v -0.5 9 3
v 0.5 8 3
v 0.5 9 3
v 1.5 8 3
v 1.5 9 3
v -2.5 0 2
v -2.5 3 2
v -1.5 0 2
v -1.5 3 2
v -0.5 0 2
v -0.5 3 2
v 0.5 0 2
v 0.5 3 2
v 1.5 0 2
v 1.5 1 2
v 1.5 3 2
v 2.5 0 2
v 2.5 1 2
v 2.5 3 2
v -2.5 4 -3
v -2.5 5 -3
v -1.5 4 -3
v -1.5 5 -3
v -1.5 6 -3
v -0.5 5 -3
v -0.5 6 -3
v 0.5 5 -3
v 0.5 6 -3
v 1.5 4 -3
v 1.5 5 -3
v 1.5 6 -3
v 2.5 4 -3
v 2.5 5 -3
v -2.5 0 -4
v -2.5 1 -4
v -2.5 4 -4
v -1.5 0 -4
v -1.5 1 -4
v -1.5 2 -4
v -1.5 4 -4
v -1.5 5 -4
v -0.5 0 -4
v -0.5 2 -4
v -0.5 3 -4
v -0.5 4 -4
v -0.5 5 -4
v 0.5 0 -4
v 0.5 1 -4
v 0.5 3 -4
v 0.5 5 -4
v 1.5 1 -4
v 1.5 3 -4
v 1.5 4 -4
v 1.5 5 -4
v 2.5 0 -4
v 2.5 3 -4
v 2.5 4 -4
v -0.5 5 -5
v -0.5 6 -5
v 0.5 5 -5
v 0.5 6 -5
v -0.5 4 -7
v -0.5 5 -7
v 0.5 4 -7
v 0.5 5 -7
v -0.5 2 -9
v -0.5 3 -9
v -0.5 4 -9
v 0.5 2 -9
v 0.5 3 -9
v 0.5 4 -9
v -2.5 0 4
v -0.5 0 4
v 0.5 0 4
v 2.5 0 4
v -1.5 0 3
v -0.5 0 3
v 0.5 0 3
v 1.5 0 3
v -2.5 0 2
v -1.5 0 2
v -0.5 0 2
v 0.5 0 2
v 1.5 0 2
v 2.5 0 2
v -2.5 0 -2
v -1.5 0 -2
v -0.5 0 -2
v 0.5 0 -2
v 2.5 0 -2
v 0.5 0 -3
v 2.5 0 -3
v -2.5 0 -4
v -1.5 0 -4
v -0.5 0 -4
v 0.5 0 -4
v 2.5 0 -4
v -0.5 2 -6
v 0.5 2 -6
v -0.5 2 -7
v 0.5 2 -7
v -0.5 2 -8
v 0.5 2 -8
v -0.5 2 -9
v 0.5 2 -9
v -1.5 3 5
v -0.5 3 5
v 1.5 3 5
v -1.5 3 4
v -0.5 3 4
v 0.5 3 4
v 1.5 3 4
v 0.5 3 3
v -2.5 3 2
v -1.5 3 2
v -0.5 3 2
v 0.5 3 2
v 1.5 3 2
v 2.5 3 2
v -0.5 3 1
v 1.5 3 1
v -0.5 3 -0
v 1.5 3 -0
v -1.5 3 -1
v -0.5 3 -1
v 0.5 3 -1
v 1.5 3 -1
v -2.5 3 -2
v -1.5 3 -2
v -0.5 3 -2
v 0.5 3 -2
v 1.5 3 -2
v 2.5 3 -2
v -0.5 3 -3
v 0.5 3 -3
v -0.5 3 -4
v 0.5 3 -4
v -0.5 3 -6
v 0.5 3 -6
v -1.5 4 8
v 1.5 4 8
v -1.5 4 7
v -0.5 4 7
v 0.5 4 7
v 1.5 4 7
v -1.5 4 6
v -0.5 4 6
v 0.5 4 6
v 1.5 4 6
v -1.5 4 5
v -0.5 4 5
v 0.5 4 5
v 1.5 4 5
v -1.5 8 4
v -0.5 8 4
v 0.5 8 4
v 1.5 8 4
v -1.5 8 3
v -0.5 8 3
v 0.5 8 3
v 1.5 8 3
v -2.5 4 -3
v -1.5 4 -3
v 1.5 4 -3
v 2.5 4 -3
v -2.5 4 -4
v -1.5 4 -4
v 1.5 4 -4
v 2.5 4 -4
v -0.5 4 -7
v 0.5 4 -7
v -0.5 4 -8
v 0.5 4 -8
v -0.5 4 -9
v 0.5 4 -9
v -1.5 5 8
v -0.5 5 8
v 0.5 5 8
v 1.5 5 8
v -1.5 5 7
v -0.5 5 7
v 0.5 5 7
v 1.5 5 7
v -1.5 5 6
v -0.5 5 6
v 0.5 5 6
v 1.5 5 6
v -2.5 5 4
v -1.5 5 4
v 1.5 5 4
v 2.5 5 4
v -2.5 5 3
v -1.5 5 3
v 1.5 5 3
v 2.5 5 3
v 1.5 5 2
v 2.5 5 2
v 1.5 5 -0
v 2.5 5 -0
v -2.5 5 -1
v -1.5 5 -1
v 1.5 5 -1
v 2.5 5 -1
v -1.5 5 -2
v 1.5 5 -2
v -2.5 5 -3
v -1.5 5 -3
v -0.5 5 -3
v 0.5 5 -3
v 1.5 5 -3
v 2.5 5 -3
v -1.5 5 -4
v -0.5 5 -4
v 0.5 5 -4
v 1.5 5 -4
v -0.5 5 -5
v 0.5 5 -5
v -0.5 5 -6
v 0.5 5 -6
v -0.5 5 -7
v 0.5 5 -7
v -0.5 6 8
v 0.5 6 8
v -0.5 6 7
v 0.5 6 7
v -0.5 6 6
v 0.5 6 6
v -1.5 6 4
v 1.5 6 4
v -1.5 6 3
v -0.5 6 3
v 0.5 6 3
v 1.5 6 3
v 0.5 6 2
v 1.5 6 2
v 0.5 6 -0
v 1.5 6 -0
v -1.5 6 -1
v -0.5 6 -1
v 0.5 6 -1
v 1.5 6 -1
v -1.5 6 -2
v -0.5 6 -2
v 0.5 6 -2
v 1.5 6 -2
v -1.5 6 -3
v -0.5 6 -3
v 0.5 6 -3
v 1.5 6 -3
v -0.5 6 -5
v 0.5 6 -5
v -1.5 7 6
v -0.5 7 6
v 0.5 7 6
v 1.5 7 6
v -1.5 7 5
v -0.5 7 5
v 0.5 7 5
v 1.5 7 5
v -0.5 7 4
v 0.5 7 4
v -1.5 9 5
v -0.5 9 5
v 0.5 9 5
v 1.5 9 5
v -1.5 9 4
v -0.5 9 4
v 0.5 9 4
v 1.5 9 4
v -1.5 9 3
v -0.5 9 3
v 0.5 9 3
v 1.5 9 3

# faces
f 5/2/1 4/2/1 3/2/1
f 6/2/1 4/2/1 5/2/1
f 7/2/1 2/2/1 1/2/1
f 8/2/1 2/2/1 7/2/1
f 9/3/1 6/3/1 5/3/1
f 10/3/1 8/3/1 7/3/1
f 10/3/1 9/3/1 8/3/1
f 11/3/1 9/3/1 10/3/1
f 12/3/1 6/3/1 9/3/1
f 12/3/1 9/3/1 11/3/1
f 13/3/1 6/3/1 12/3/1
f 14/3/1 10/3/1 7/3/1
f 15/2/1 11/2/1 10/2/1
f 15/3/1 10/3/1 14/3/1
f 16/3/1 12/3/1 11/3/1
f 16/2/1 11/2/1 15/2/1
f 17/3/1 12/3/1 16/3/1
f 23/4/1 19/4/1 18/4/1
f 24/4/1 19/4/1 23/4/1
f 27/5/1 21/5/1 20/5/1
f 28/4/1 22/4/1 21/4/1
f 28/5/1 21/5/1 27/5/1
f 29/5/1 23/5/1 22/5/1
f 29/4/1 22/4/1 28/4/1
f 30/3/1 24/3/1 23/3/1
f 30/5/1 23/5/1 29/5/1
f 31/3/1 24/3/1 30/3/1
f 35/3/1 26/3/1 25/3/1
f 36/3/1 26/3/1 35/3/1
f 37/3/1 30/3/1 29/3/1
f 37/3/1 31/3/1 30/3/1
f 37/3/1 32/3/1 31/3/1
f 38/3/1 32/3/1 37/3/1
f 39/3/1 32/3/1 38/3/1
f 40/2/1 33/2/1 32/2/1
f 40/3/1 32/3/1 39/3/1
f 41/3/1 34/3/1 33/3/1
f 41/2/1 33/2/1 40/2/1
f 42/2/1 35/2/1 34/2/1
f 42/3/1 34/3/1 41/3/1
f 43/2/1 35/2/1 42/2/1
f 44/8/1 38/8/1 37/8/1
f 45/3/1 39/3/1 38/3/1
f 45/8/1 38/8/1 44/8/1
f 46/3/1 39/3/1 45/3/1
f 48/3/1 46/3/1 45/3/1
f 49/8/1 47/8/1 46/8/1
f 49/3/1 46/3/1 48/3/1
f 50/8/1 47/8/1 49/8/1
f 56/3/1 52/3/1 51/3/1
f 57/4/1 53/4/1 52/4/1
f 57/3/1 52/3/1 56/3/1
f 58/5/1 54/5/1 53/5/1
f 58/4/1 53/4/1 57/4/1
f 59/5/1 54/5/1 58/5/1
f 60/3/1 57/3/1 56/3/1
f 60/3/1 56/3/1 55/3/1
f 61/3/1 57/3/1 60/3/1
f 62/3/1 57/3/1 61/3/1
f 63/5/1 58/5/1 57/5/1
f 63/3/1 57/3/1 62/3/1
f 64/4/1 59/4/1 58/4/1
f 64/5/1 58/5/1 63/5/1
f 65/4/1 59/4/1 64/4/1
f 70/3/1 61/3/1 60/3/1
f 71/2/1 62/2/1 61/2/1
f 71/3/1 61/3/1 70/3/1
f 72/3/1 63/3/1 62/3/1
f 72/2/1 62/2/1 71/2/1
f 73/3/1 63/3/1 72/3/1
f 74/8/1 67/8/1 66/8/1
f 75/3/1 68/3/1 67/3/1
f 75/8/1 67/8/1 74/8/1
f 76/3/1 68/3/1 75/3/1
f 77/3/1 71/3/1 70/3/1
f 77/3/1 70/3/1 69/3/1
f 78/3/1 71/3/1 77/3/1
f 85/3/1 83/3/1 82/3/1
f 85/2/1 84/2/1 83/2/1
f 86/2/1 84/2/1 85/2/1
f 87/2/1 80/2/1 79/2/1
f 88/3/1 81/3/1 80/3/1
f 88/2/1 80/2/1 87/2/1
f 89/3/1 81/3/1 88/3/1
f 90/3/1 85/3/1 82/3/1
f 90/3/1 86/3/1 85/3/1
f 91/3/1 86/3/1 90/3/1
f 92/3/1 86/3/1 91/3/1
f 95/3/1 94/3/1 93/3/1
f 97/3/1 95/3/1 93/3/1
f 98/8/1 96/8/1 95/8/1
f 98/3/1 95/3/1 97/3/1
f 99/8/1 96/8/1 98/8/1
f 100/2/2 101/2/2 105/2/2
f 101/3/2 102/3/2 106/3/2
f 105/2/2 101/2/2 106/2/2
f 103/3/2 104/3/2 107/3/2
f 107/3/2 104/3/2 108/3/2
f 105/3/2 106/3/2 109/3/2
f 106/3/2 102/3/2 110/3/2
f 109/3/2 106/3/2 110/3/2
f 103/3/2 107/3/2 111/3/2
f 107/2/2 108/2/2 112/2/2
f 111/3/2 107/3/2 112/3/2
f 112/2/2 108/2/2 113/2/2
f 114/3/2 115/3/2 116/3/2
f 114/3/2 116/3/2 118/3/2
f 116/8/2 117/8/2 119/8/2
f 118/3/2 116/3/2 119/3/2
f 119/8/2 117/8/2 120/8/2
f 121/3/2 122/3/2 126/3/2
f 122/4/2 123/4/2 127/4/2
f 126/3/2 122/3/2 127/3/2
f 123/5/2 124/5/2 128/5/2
f 127/4/2 123/4/2 128/4/2
f 128/5/2 124/5/2 129/5/2
f 126/3/2 127/3/2 130/3/2
f 125/3/2 126/3/2 130/3/2
f 130/3/2 127/3/2 131/3/2
f 127/5/2 128/5/2 132/5/2
f 131/3/2 127/3/2 132/3/2
f 128/4/2 129/4/2 133/4/2
f 132/5/2 128/5/2 133/5/2
f 133/4/2 129/4/2 134/4/2
f 125/3/2 130/3/2 139/3/2
f 130/2/2 131/2/2 140/2/2
f 139/3/2 130/3/2 140/3/2
f 131/3/2 132/3/2 141/3/2
f 140/2/2 131/2/2 141/2/2
f 141/3/2 132/3/2 142/3/2
f 135/8/2 136/8/2 143/8/2
f 136/3/2 137/3/2 144/3/2
f 143/8/2 136/8/2 144/8/2
f 144/3/2 137/3/2 145/3/2
f 139/3/2 140/3/2 146/3/2
f 138/3/2 139/3/2 146/3/2
f 146/3/2 140/3/2 147/3/2
f 148/5/2 149/5/2 153/5/2
f 153/5/2 149/5/2 154/5/2
f 150/5/2 151/5/2 157/5/2
f 151/4/2 152/4/2 158/4/2
f 157/5/2 151/5/2 158/5/2
f 152/5/2 153/5/2 159/5/2
f 158/4/2 152/4/2 159/4/2
f 153/3/2 154/3/2 160/3/2
f 159/5/2 153/5/2 160/5/2
f 160/3/2 154/3/2 161/3/2
f 155/3/2 156/3/2 167/3/2
f 167/3/2 156/3/2 168/3/2
f 159/3/2 160/3/2 169/3/2
f 160/3/2 161/3/2 169/3/2
f 161/3/2 162/3/2 169/3/2
f 169/3/2 162/3/2 170/3/2
f 170/3/2 162/3/2 171/3/2
f 162/2/2 163/2/2 172/2/2
f 171/3/2 162/3/2 172/3/2
f 163/3/2 164/3/2 173/3/2
f 172/2/2 163/2/2 173/2/2
f 164/2/2 165/2/2 174/2/2
f 173/3/2 164/3/2 174/3/2
f 165/3/2 166/3/2 175/3/2
f 174/2/2 165/2/2 175/2/2
f 166/2/2 167/2/2 176/2/2
f 175/3/2 166/3/2 176/3/2
f 176/2/2 167/2/2 177/2/2
f 169/8/2 170/8/2 178/8/2
f 170/3/2 171/3/2 179/3/2
f 178/8/2 170/8/2 179/8/2
f 179/3/2 171/3/2 180/3/2
f 179/3/2 180/3/2 182/3/2
f 180/8/2 181/8/2 183/8/2
f 182/3/2 180/3/2 183/3/2
f 183/8/2 181/8/2 184/8/2
f 185/2/2 186/2/2 190/2/2
f 190/2/2 186/2/2 191/2/2
f 187/3/2 188/3/2 192/3/2
f 188/2/2 189/2/2 193/2/2
f 192/3/2 188/3/2 193/3/2
f 192/2/2 193/2/2 194/2/2
f 193/2/2 189/2/2 195/2/2
f 194/2/2 193/2/2 195/2/2
f 185/2/2 190/2/2 196/2/2
f 190/3/2 191/3/2 197/3/2
f 196/2/2 190/2/2 197/2/2
f 197/3/2 191/3/2 198/3/2
f 194/3/2 195/3/2 199/3/2
f 195/2/2 189/2/2 200/2/2
f 199/3/2 195/3/2 200/3/2
f 200/2/2 189/2/2 201/2/2
f 198/3/2 199/3/2 202/3/2
f 197/3/2 198/3/2 202/3/2
f 200/3/2 201/3/2 202/3/2
f 199/3/2 200/3/2 202/3/2
f 196/3/2 197/3/2 202/3/2
f 202/3/2 201/3/2 203/3/2
f 203/3/2 201/3/2 204/3/2
f 204/3/2 201/3/2 205/3/2
f 205/3/2 201/3/2 206/3/2
f 206/3/2 201/3/2 207/3/2
f 196/3/2 202/3/2 208/3/2
f 202/2/2 203/2/2 209/2/2
f 208/3/2 202/3/2 209/3/2
f 203/3/2 204/3/2 210/3/2
f 209/2/2 203/2/2 210/2/2
f 204/2/2 205/2/2 211/2/2
f 210/3/2 204/3/2 211/3/2
f 205/3/2 206/3/2 212/3/2
f 211/2/2 205/2/2 212/2/2
f 212/3/2 206/3/2 213/3/2
f 216/5/3 215/5/3 214/5/3
f 218/5/3 216/5/3 214/5/3
f 218/8/3 217/8/3 216/8/3
f 219/8/3 217/8/3 218/8/3
f 220/5/3 218/5/3 214/5/3
f 221/5/3 218/5/3 220/5/3
f 225/3/3 223/3/3 222/3/3
f 226/8/3 224/8/3 223/8/3
f 226/3/3 223/3/3 225/3/3
f 227/8/3 224/8/3 226/8/3
f 229/3/3 227/3/3 226/3/3
f 230/3/3 227/3/3 229/3/3
f 231/3/3 229/3/3 228/3/3
f 232/8/3 230/8/3 229/8/3
f 232/3/3 229/3/3 231/3/3
f 233/8/3 230/8/3 232/8/3
f 238/4/3 235/4/3 234/4/3
f 239/4/3 235/4/3 238/4/3
f 240/3/3 237/3/3 236/3/3
f 241/3/3 237/3/3 240/3/3
f 242/5/3 239/5/3 238/5/3
f 245/5/3 242/5/3 238/5/3
f 246/5/3 242/5/3 245/5/3
f 247/3/3 244/3/3 243/3/3
f 248/3/3 244/3/3 247/3/3
f 252/2/3 250/2/3 249/2/3
f 253/3/3 251/3/3 250/3/3
f 253/2/3 250/2/3 252/2/3
f 254/3/3 251/3/3 253/3/3
f 255/3/3 251/3/3 254/3/3
f 256/2/3 252/2/3 249/2/3
f 257/3/3 253/3/3 252/3/3
f 257/2/3 252/2/3 256/2/3
f 258/3/3 253/3/3 257/3/3
f 261/2/3 260/2/3 259/2/3
f 264/2/3 261/2/3 259/2/3
f 265/3/3 263/3/3 262/3/3
f 265/2/3 261/2/3 264/2/3
f 265/3/3 262/3/3 261/3/3
f 266/3/3 263/3/3 265/3/3
f 270/2/3 268/2/3 267/2/3
f 271/3/3 269/3/3 268/3/3
f 271/2/3 268/2/3 270/2/3
f 272/3/3 269/3/3 271/3/3
f 273/3/3 271/3/3 270/3/3
f 273/3/3 272/3/3 271/3/3
f 274/3/3 272/3/3 273/3/3
f 277/3/3 276/3/3 275/3/3
f 278/3/3 276/3/3 277/3/3
f 279/3/3 276/3/3 278/3/3
f 280/3/3 277/3/3 275/3/3
f 281/2/3 278/2/3 277/2/3
f 281/3/3 277/3/3 280/3/3
f 282/3/3 279/3/3 278/3/3
f 282/2/3 278/2/3 281/2/3
f 283/3/3 279/3/3 282/3/3
f 286/3/3 285/3/3 284/3/3
f 287/3/3 285/3/3 286/3/3
f 288/3/4 289/3/4 290/3/4
f 290/3/4 289/3/4 291/3/4
f 288/3/4 290/3/4 292/3/4
f 288/3/4 292/3/4 294/3/4
f 292/3/4 293/3/4 294/3/4
f 294/3/4 293/3/4 295/3/4
f 296/8/4 297/8/4 298/8/4
f 298/8/4 297/8/4 299/8/4
f 300/8/4 301/8/4 302/8/4
f 302/8/4 301/8/4 303/8/4
f 304/2/4 305/2/4 306/2/4
f 306/2/4 305/2/4 307/2/4
f 306/3/4 307/3/4 308/3/4
f 308/3/4 307/3/4 309/3/4
f 310/3/4 311/3/4 312/3/4
f 312/3/4 311/3/4 313/3/4
f 313/3/4 311/3/4 314/3/4
f 312/2/4 313/2/4 315/2/4
f 313/3/4 314/3/4 316/3/4
f 315/2/4 313/2/4 316/2/4
f 316/3/4 314/3/4 317/3/4
f 318/3/4 319/3/4 320/3/4
f 320/3/4 319/3/4 321/3/4
f 321/2/4 322/2/4 323/2/4
f 323/2/4 322/2/4 324/2/4
f 325/2/4 326/2/4 328/2/4
f 328/2/4 326/2/4 329/2/4
f 327/3/4 328/3/4 330/3/4
f 330/3/4 328/3/4 331/3/4
f 332/2/4 333/2/4 335/2/4
f 333/3/4 334/3/4 336/3/4
f 335/2/4 333/2/4 336/2/4
f 336/3/4 334/3/4 337/3/4
f 337/3/4 334/3/4 338/3/4
f 335/3/4 336/3/4 340/3/4
f 336/3/4 337/3/4 340/3/4
f 337/2/4 338/2/4 341/2/4
f 340/3/4 337/3/4 341/3/4
f 341/2/4 338/2/4 342/2/4
f 338/3/4 339/3/4 343/3/4
f 342/2/4 338/2/4 343/2/4
f 343/3/4 339/3/4 344/3/4
f 345/2/4 346/2/4 349/2/4
f 347/3/4 348/3/4 349/3/4
f 346/3/4 347/3/4 349/3/4
f 349/3/4 348/3/4 350/3/4
f 350/3/4 348/3/4 351/3/4
f 351/3/4 348/3/4 352/3/4
f 345/2/4 349/2/4 353/2/4
f 349/2/4 350/2/4 353/2/4
f 350/3/4 351/3/4 354/3/4
f 353/2/4 350/2/4 354/2/4
f 354/3/4 351/3/4 355/3/4
f 356/3/4 357/3/4 358/3/4
f 358/3/4 357/3/4 359/3/4
f 360/3/4 361/3/4 362/3/4
f 362/3/4 361/3/4 363/3/4
f 364/5/4 365/5/4 367/5/4
f 365/4/4 366/4/4 368/4/4
f 367/5/4 365/5/4 368/5/4
f 368/4/4 366/4/4 369/4/4
f 374/2/5 371/2/5 370/2/5
f 375/2/5 371/2/5 374/2/5
f 376/2/5 373/2/5 372/2/5
f 377/2/5 373/2/5 376/2/5
f 378/2/5 374/2/5 370/2/5
f 379/3/5 375/3/5 374/3/5
f 379/2/5 374/2/5 378/2/5
f 380/3/5 375/3/5 379/3/5
f 381/3/5 377/3/5 376/3/5
f 382/2/5 373/2/5 377/2/5
f 382/3/5 377/3/5 381/3/5
f 383/2/5 373/2/5 382/2/5
f 389/3/5 388/3/5 387/3/5
f 390/3/5 388/3/5 389/3/5
f 391/2/5 385/2/5 384/2/5
f 392/3/5 386/3/5 385/3/5
f 392/2/5 385/2/5 391/2/5
f 393/3/5 386/3/5 392/3/5
f 394/2/5 390/2/5 389/2/5
f 395/2/5 390/2/5 394/2/5
f 398/3/5 397/3/5 396/3/5
f 399/3/5 397/3/5 398/3/5
f 400/4/5 399/4/5 398/4/5
f 401/4/5 399/4/5 400/4/5
f 402/5/5 401/5/5 400/5/5
f 403/5/5 401/5/5 402/5/5
f 407/4/5 405/4/5 404/4/5
f 408/5/5 406/5/5 405/5/5
f 408/4/5 405/4/5 407/4/5
f 409/5/5 406/5/5 408/5/5
f 410/5/5 406/5/5 409/5/5
f 411/4/5 409/4/5 408/4/5
f 414/4/5 411/4/5 408/4/5
f 415/4/5 411/4/5 414/4/5
f 418/4/5 416/4/5 415/4/5
f 418/4/5 415/4/5 414/4/5
f 418/4/5 414/4/5 413/4/5
f 419/3/5 417/3/5 416/3/5
f 419/4/5 416/4/5 418/4/5
f 420/4/5 418/4/5 413/4/5
f 420/5/5 419/5/5 418/5/5
f 421/3/5 417/3/5 419/3/5
f 421/5/5 419/5/5 420/5/5
f 422/4/5 420/4/5 413/4/5
f 422/3/5 413/3/5 412/3/5
f 422/4/5 421/4/5 420/4/5
f 423/4/5 421/4/5 422/4/5
f 424/4/5 421/4/5 423/4/5
f 425/3/5 417/3/5 421/3/5
f 425/4/5 421/4/5 424/4/5
f 426/3/5 422/3/5 412/3/5
f 427/5/5 423/5/5 422/5/5
f 427/3/5 422/3/5 426/3/5
f 428/4/5 424/4/5 423/4/5
f 428/5/5 423/5/5 427/5/5
f 429/5/5 425/5/5 424/5/5
f 429/4/5 424/4/5 428/4/5
f 430/3/5 417/3/5 425/3/5
f 430/5/5 425/5/5 429/5/5
f 431/3/5 417/3/5 430/3/5
f 432/4/5 429/4/5 428/4/5
f 433/4/5 429/4/5 432/4/5
f 434/3/5 433/3/5 432/3/5
f 435/3/5 433/3/5 434/3/5
f 436/3/5 435/3/5 434/3/5
f 437/3/5 435/3/5 436/3/5
f 440/5/5 439/5/5 438/5/5
f 441/5/5 439/5/5 440/5/5
f 442/5/5 439/5/5 441/5/5
f 443/5/5 439/5/5 442/5/5
f 444/4/5 441/4/5 440/4/5
f 445/5/5 442/5/5 441/5/5
f 445/4/5 441/4/5 444/4/5
f 446/4/5 443/4/5 442/4/5
f 446/5/5 442/5/5 445/5/5
f 447/4/5 443/4/5 446/4/5
f 448/5/5 445/5/5 444/5/5
f 449/4/5 446/4/5 445/4/5
f 449/5/5 445/5/5 448/5/5
f 450/5/5 447/5/5 446/5/5
f 450/4/5 446/4/5 449/4/5
f 451/5/5 447/5/5 450/5/5
f 456/8/5 453/8/5 452/8/5
f 457/8/5 453/8/5 456/8/5
f 458/8/5 455/8/5 454/8/5
f 459/8/5 455/8/5 458/8/5
f 460/3/6 461/3/6 464/3/6
f 464/3/6 461/3/6 465/3/6
f 462/3/6 463/3/6 466/3/6
f 466/3/6 463/3/6 467/3/6
f 468/5/6 469/5/6 470/5/6
f 470/5/6 469/5/6 471/5/6
f 470/4/6 471/4/6 472/4/6
f 472/4/6 471/4/6 473/4/6
f 474/5/6 475/5/6 478/5/6
f 478/5/6 475/5/6 479/5/6
f 476/5/6 477/5/6 480/5/6
f 480/5/6 477/5/6 481/5/6
f 478/4/6 479/4/6 482/4/6
f 482/4/6 479/4/6 483/4/6
f 480/4/6 481/4/6 484/4/6
f 484/4/6 481/4/6 485/4/6
f 486/3/6 487/3/6 490/3/6
f 490/3/6 487/3/6 491/3/6
f 488/3/6 489/3/6 492/3/6
f 492/3/6 489/3/6 493/3/6
f 492/2/6 493/2/6 494/2/6
f 494/2/6 493/2/6 495/2/6
f 494/3/6 495/3/6 496/3/6
f 496/3/6 495/3/6 497/3/6
f 490/2/6 491/2/6 498/2/6
f 498/2/6 491/2/6 499/2/6
f 496/2/6 497/2/6 500/2/6
f 500/2/6 497/2/6 501/2/6
f 498/3/6 499/3/6 502/3/6
f 500/3/6 501/3/6 503/3/6
f 498/3/6 502/3/6 504/3/6
f 504/3/6 502/3/6 505/3/6
f 503/3/6 501/3/6 508/3/6
f 508/3/6 501/3/6 509/3/6
f 505/3/6 506/3/6 510/3/6
f 510/3/6 506/3/6 511/3/6
f 507/3/6 508/3/6 512/3/6
f 512/3/6 508/3/6 513/3/6
f 514/2/6 515/2/6 516/2/6
f 516/2/6 515/2/6 517/2/6
f 516/3/6 517/3/6 518/3/6
f 518/3/6 517/3/6 519/3/6
f 520/8/6 521/8/6 522/8/6
f 522/8/6 521/8/6 523/8/6
f 522/3/6 523/3/6 524/3/6
f 524/3/6 523/3/6 525/3/6
f 526/3/6 527/3/6 528/3/6
f 528/3/6 527/3/6 529/3/6
f 529/3/6 527/3/6 530/3/6
f 530/3/6 527/3/6 531/3/6
f 529/3/6 530/3/6 532/3/6
f 530/2/6 531/2/6 532/2/6
f 532/2/6 531/2/6 533/2/6
f 529/3/6 532/3/6 534/3/6
f 532/3/6 533/3/6 534/3/6
f 534/3/6 533/3/6 535/3/6
f 528/2/6 529/2/6 536/2/6
f 529/3/6 534/3/6 537/3/6
f 536/2/6 529/2/6 537/2/6
f 534/2/6 535/2/6 538/2/6
f 537/3/6 534/3/6 538/3/6
f 538/2/6 535/2/6 539/2/6
f 536/3/6 537/3/6 540/3/6
f 537/3/6 538/3/6 540/3/6
f 538/3/6 539/3/6 540/3/6
f 540/3/6 539/3/6 541/3/6
f 541/3/6 539/3/6 542/3/6
f 542/3/6 539/3/6 543/3/6
f 540/2/6 541/2/6 544/2/6
f 541/3/6 542/3/6 545/3/6
f 544/2/6 541/2/6 545/2/6
f 542/2/6 543/2/6 546/2/6
f 545/3/6 542/3/6 546/3/6
f 546/2/6 543/2/6 547/2/6
f 545/3/6 546/3/6 548/3/6
f 548/3/6 546/3/6 549/3/6
f 550/8/6 551/8/6 554/8/6
f 551/3/6 552/3/6 555/3/6
f 554/8/6 551/8/6 555/8/6
f 552/8/6 553/8/6 556/8/6
f 555/3/6 552/3/6 556/3/6
f 556/8/6 553/8/6 557/8/6
f 555/3/6 556/3/6 558/3/6
f 558/3/6 556/3/6 559/3/6
f 560/3/6 561/3/6 564/3/6
f 564/3/6 561/3/6 565/3/6
f 562/3/6 563/3/6 566/3/6
f 566/3/6 563/3/6 567/3/6
f 564/8/6 565/8/6 568/8/6
f 568/8/6 565/8/6 569/8/6
f 566/8/6 567/8/6 570/8/6
f 570/8/6 567/8/6 571/8/6
