# MagicaVoxel @ Ephtracy

# group
g bear

# material
mtllib bear.mtl
usemtl palette

# normals
vn -1 0 0
vn 1 0 0
vn 0 0 1
vn 0 0 -1
vn 0 -1 0
vn 0 1 0

# texcoords
vt 0.365234 0.5
vt 0.369141 0.5
vt 0.373047 0.5
vt 0.982422 0.5
vt 0.994141 0.5

# verts
v -5 4 4.5
v -5 4 -7.5
v -5 9 2.5
v -5 9 0.5
v -5 10 2.5
v -5 10 0.5
v -5 10 -4.5
v -5 10 -7.5
v -5 11 4.5
v -5 11 -4.5
v -5 11 -7.5
v -4 0 3.5
v -4 0 2.5
v -4 0 0.5
v -4 0 -3.5
v -4 0 -4.5
v -4 0 -6.5
v -4 1 3.5
v -4 1 2.5
v -4 1 0.5
v -4 1 -3.5
v -4 1 -4.5
v -4 1 -6.5
v -4 4 3.5
v -4 4 0.5
v -4 4 -3.5
v -4 4 -6.5
v -4 12 5.5
v -4 12 4.5
v -4 14 5.5
v -4 14 4.5
v -3 5 5.5
v -3 5 4.5
v -3 7 6.5
v -3 7 5.5
v -3 11 4.5
v -3 11 1.5
v -3 12 5.5
v -3 12 4.5
v -3 13 6.5
v -3 13 5.5
v -3 13 4.5
v -3 13 1.5
v -2 8 8.5
v -2 8 6.5
v -2 10 8.5
v -2 10 6.5
v 1 0 3.5
v 1 0 2.5
v 1 0 0.5
v 1 0 -3.5
v 1 0 -4.5
v 1 0 -6.5
v 1 1 3.5
v 1 1 2.5
v 1 1 0.5
v 1 1 -3.5
v 1 1 -4.5
v 1 1 -6.5
v 1 4 3.5
v 1 4 0.5
v 1 4 -3.5
v 1 4 -6.5
v 2 13 5.5
v 2 13 4.5
v 2 14 5.5
v 2 14 4.5
v -2 13 5.5
v -2 13 4.5
v -2 14 5.5
v -2 14 4.5
v -1 0 3.5
v -1 0 2.5
v -1 0 0.5
v -1 0 -3.5
v -1 0 -4.5
v -1 0 -6.5
v -1 1 3.5
v -1 1 2.5
v -1 1 0.5
v -1 1 -3.5
v -1 1 -4.5
v -1 1 -6.5
v -1 4 3.5
v -1 4 0.5
v -1 4 -3.5
v -1 4 -6.5
v 2 8 8.5
v 2 8 6.5
v 2 10 8.5
v 2 10 6.5
v 3 5 5.5
v 3 5 4.5
v 3 7 6.5
v 3 7 5.5
v 3 11 4.5
v 3 11 1.5
v 3 12 5.5
v 3 12 4.5
v 3 13 6.5
v 3 13 5.5
v 3 13 4.5
v 3 13 1.5
v 4 0 3.5
v 4 0 2.5
v 4 0 0.5
v 4 0 -3.5
v 4 0 -4.5
v 4 0 -6.5
v 4 1 3.5
v 4 1 2.5
v 4 1 0.5
v 4 1 -3.5
v 4 1 -4.5
v 4 1 -6.5
v 4 4 3.5
v 4 4 0.5
v 4 4 -3.5
v 4 4 -6.5
v 4 12 5.5
v 4 12 4.5
v 4 14 5.5
v 4 14 4.5
v 5 4 4.5
v 5 4 -7.5
v 5 7 -4.5
v 5 7 -5.5
v 5 8 -4.5
v 5 8 -5.5
v 5 9 4.5
v 5 9 0.5
v 5 10 -3.5
v 5 10 -4.5
v 5 11 4.5
v 5 11 0.5
v 5 11 -3.5
v 5 11 -4.5
v 5 11 -7.5
v -2 8 8.5
v -2 10 8.5
v -1 8 8.5
v -1 9 8.5
v 1 8 8.5
v 1 9 8.5
v 2 8 8.5
v 2 10 8.5
v -3 7 6.5
v -3 13 6.5
v -2 8 6.5
v -2 10 6.5
v -2 11 6.5
v -1 10 6.5
v -1 11 6.5
v 1 10 6.5
v 1 11 6.5
v 2 8 6.5
v 2 10 6.5
v 2 11 6.5
v 3 7 6.5
v 3 13 6.5
v -4 12 5.5
v -4 14 5.5
v -3 5 5.5
v -3 7 5.5
v -3 12 5.5
v -3 13 5.5
v -2 13 5.5
v -2 14 5.5
v 2 13 5.5
v 2 14 5.5
v 3 5 5.5
v 3 7 5.5
v 3 12 5.5
v 3 13 5.5
v 4 12 5.5
v 4 14 5.5
v -5 4 4.5
v -5 11 4.5
v -3 5 4.5
v -3 11 4.5
v 3 5 4.5
v 3 11 4.5
v 4 9 4.5
v 4 11 4.5
v 5 4 4.5
v 5 9 4.5
v 5 11 4.5
v -4 0 3.5
v -4 1 3.5
v -4 4 3.5
v -3 0 3.5
v -3 1 3.5
v -2 0 3.5
v -2 1 3.5
v -1 0 3.5
v -1 1 3.5
v -1 4 3.5
v 1 0 3.5
v 1 1 3.5
v 1 4 3.5
v 2 0 3.5
v 2 1 3.5
v 3 0 3.5
v 3 1 3.5
v 4 0 3.5
v 4 1 3.5
v 4 4 3.5
v -4 0 -3.5
v -4 1 -3.5
v -4 4 -3.5
v -3 0 -3.5
v -3 1 -3.5
v -2 0 -3.5
v -2 1 -3.5
v -1 0 -3.5
v -1 1 -3.5
v -1 4 -3.5
v 1 0 -3.5
v 1 1 -3.5
v 1 4 -3.5
v 2 0 -3.5
v 2 1 -3.5
v 3 0 -3.5
v 3 1 -3.5
v 4 0 -3.5
v 4 1 -3.5
v 4 4 -3.5
v -4 12 4.5
v -4 14 4.5
v -3 12 4.5
v -3 13 4.5
v -2 13 4.5
v -2 14 4.5
v 2 13 4.5
v 2 14 4.5
v 3 12 4.5
v 3 13 4.5
v 4 12 4.5
v 4 14 4.5
v -3 11 1.5
v -3 13 1.5
v -2 12 1.5
v -2 13 1.5
v 1 12 1.5
v 1 13 1.5
v 3 11 1.5
v 3 13 1.5
v -4 0 0.5
v -4 1 0.5
v -4 4 0.5
v -1 0 0.5
v -1 1 0.5
v -1 4 0.5
v 1 0 0.5
v 1 1 0.5
v 1 4 0.5
v 4 0 0.5
v 4 1 0.5
v 4 4 0.5
v -4 0 -6.5
v -4 1 -6.5
v -4 4 -6.5
v -1 0 -6.5
v -1 1 -6.5
v -1 4 -6.5
v 1 0 -6.5
v 1 1 -6.5
v 1 4 -6.5
v 4 0 -6.5
v 4 1 -6.5
v 4 4 -6.5
v -5 4 -7.5
v -5 10 -7.5
v -5 11 -7.5
v -4 6 -7.5
v -4 7 -7.5
v -4 10 -7.5
v -4 11 -7.5
v -3 6 -7.5
v -3 7 -7.5
v -2 6 -7.5
v -2 8 -7.5
v -1 9 -7.5
v -1 10 -7.5
v 0 9 -7.5
v 0 10 -7.5
v 1 6 -7.5
v 1 8 -7.5
v 2 5 -7.5
v 2 6 -7.5
v 2 10 -7.5
v 2 11 -7.5
v 3 5 -7.5
v 3 6 -7.5
v 3 10 -7.5
v 3 11 -7.5
v 5 4 -7.5
v 5 11 -7.5
v -4 0 3.5
v -3 0 3.5
v -2 0 3.5
v -1 0 3.5
v 1 0 3.5
v 2 0 3.5
v 3 0 3.5
v 4 0 3.5
v -4 0 2.5
v -3 0 2.5
v -2 0 2.5
v -1 0 2.5
v 1 0 2.5
v 2 0 2.5
v 3 0 2.5
v 4 0 2.5
v -4 0 0.5
v -1 0 0.5
v 1 0 0.5
v 4 0 0.5
v -4 0 -3.5
v -3 0 -3.5
v -2 0 -3.5
v -1 0 -3.5
v 1 0 -3.5
v 2 0 -3.5
v 3 0 -3.5
v 4 0 -3.5
v -4 0 -4.5
v -3 0 -4.5
v -2 0 -4.5
v -1 0 -4.5
v 1 0 -4.5
v 2 0 -4.5
v 3 0 -4.5
v 4 0 -4.5
v -4 0 -6.5
v -1 0 -6.5
v 1 0 -6.5
v 4 0 -6.5
v -5 4 4.5
v 5 4 4.5
v -4 4 3.5
v -1 4 3.5
v 1 4 3.5
v 4 4 3.5
v -4 4 0.5
v -1 4 0.5
v 1 4 0.5
v 4 4 0.5
v -4 4 -3.5
v -1 4 -3.5
v 1 4 -3.5
v 4 4 -3.5
v -4 4 -6.5
v -1 4 -6.5
v 1 4 -6.5
v 4 4 -6.5
v -5 4 -7.5
v 5 4 -7.5
v -3 5 5.5
v 3 5 5.5
v -3 5 4.5
v 3 5 4.5
v -3 7 6.5
v 3 7 6.5
v -3 7 5.5
v 3 7 5.5
v -2 8 8.5
v -1 8 8.5
v 1 8 8.5
v 2 8 8.5
v -1 8 7.5
v 1 8 7.5
v -2 8 6.5
v 2 8 6.5
v -4 12 5.5
v -3 12 5.5
v 3 12 5.5
v 4 12 5.5
v -4 12 4.5
v -3 12 4.5
v 3 12 4.5
v 4 12 4.5
v -2 10 8.5
v 2 10 8.5
v -2 10 6.5
v -1 10 6.5
v 1 10 6.5
v 2 10 6.5
v -5 11 4.5
v -3 11 4.5
v 3 11 4.5
v 4 11 4.5
v 5 11 4.5
v -3 11 1.5
v 3 11 1.5
v 4 11 0.5
v 5 11 0.5
v -3 11 -0.5
v -1 11 -0.5
v 3 11 -0.5
v 4 11 -0.5
v -3 11 -1.5
v -2 11 -1.5
v 2 11 -1.5
v 3 11 -1.5
v -2 11 -2.5
v -1 11 -2.5
v 2 11 -2.5
v 4 11 -2.5
v 4 11 -3.5
v 5 11 -3.5
v -5 11 -4.5
v -4 11 -4.5
v 4 11 -4.5
v 5 11 -4.5
v -2 11 -5.5
v 1 11 -5.5
v -2 11 -6.5
v 1 11 -6.5
v 2 11 -6.5
v 3 11 -6.5
v -5 11 -7.5
v -4 11 -7.5
v 2 11 -7.5
v 3 11 -7.5
v 5 11 -7.5
v -3 13 6.5
v 3 13 6.5
v -3 13 5.5
v -2 13 5.5
v 2 13 5.5
v 3 13 5.5
v -3 13 4.5
v -2 13 4.5
v 2 13 4.5
v 3 13 4.5
v -2 13 2.5
v 1 13 2.5
v -3 13 1.5
v -2 13 1.5
v 1 13 1.5
v 3 13 1.5
v -4 14 5.5
v -2 14 5.5
v 2 14 5.5
v 4 14 5.5
v -4 14 4.5
v -2 14 4.5
v 2 14 4.5
v 4 14 4.5

# faces
f 3/3/1 2/3/1 1/3/1
f 4/3/1 2/3/1 3/3/1
f 5/3/1 3/3/1 1/3/1
f 5/1/1 4/1/1 3/1/1
f 6/3/1 2/3/1 4/3/1
f 6/1/1 4/1/1 5/1/1
f 7/3/1 2/3/1 6/3/1
f 8/3/1 2/3/1 7/3/1
f 9/3/1 5/3/1 1/3/1
f 9/3/1 6/3/1 5/3/1
f 9/3/1 7/3/1 6/3/1
f 10/1/1 8/1/1 7/1/1
f 10/3/1 7/3/1 9/3/1
f 11/1/1 8/1/1 10/1/1
f 18/2/1 13/2/1 12/2/1
f 19/1/1 14/1/1 13/1/1
f 19/2/1 13/2/1 18/2/1
f 20/1/1 14/1/1 19/1/1
f 21/2/1 16/2/1 15/2/1
f 22/1/1 17/1/1 16/1/1
f 22/2/1 16/2/1 21/2/1
f 23/1/1 17/1/1 22/1/1
f 24/3/1 20/3/1 19/3/1
f 24/3/1 19/3/1 18/3/1
f 25/3/1 20/3/1 24/3/1
f 26/3/1 23/3/1 22/3/1
f 26/3/1 22/3/1 21/3/1
f 27/3/1 23/3/1 26/3/1
f 30/2/1 29/2/1 28/2/1
f 31/2/1 29/2/1 30/2/1
f 35/3/1 33/3/1 32/3/1
f 36/3/1 33/3/1 35/3/1
f 36/3/1 35/3/1 34/3/1
f 38/3/1 36/3/1 34/3/1
f 38/3/1 37/3/1 36/3/1
f 39/3/1 37/3/1 38/3/1
f 40/3/1 38/3/1 34/3/1
f 41/3/1 38/3/1 40/3/1
f 42/3/1 37/3/1 39/3/1
f 43/3/1 37/3/1 42/3/1
f 46/2/1 45/2/1 44/2/1
f 47/2/1 45/2/1 46/2/1
f 54/2/1 49/2/1 48/2/1
f 55/1/1 50/1/1 49/1/1
f 55/2/1 49/2/1 54/2/1
f 56/1/1 50/1/1 55/1/1
f 57/2/1 52/2/1 51/2/1
f 58/1/1 53/1/1 52/1/1
f 58/2/1 52/2/1 57/2/1
f 59/1/1 53/1/1 58/1/1
f 60/3/1 56/3/1 55/3/1
f 60/3/1 55/3/1 54/3/1
f 61/3/1 56/3/1 60/3/1
f 62/3/1 59/3/1 58/3/1
f 62/3/1 58/3/1 57/3/1
f 63/3/1 59/3/1 62/3/1
f 66/2/1 65/2/1 64/2/1
f 67/2/1 65/2/1 66/2/1
f 68/2/2 69/2/2 70/2/2
f 70/2/2 69/2/2 71/2/2
f 72/2/2 73/2/2 78/2/2
f 73/1/2 74/1/2 79/1/2
f 78/2/2 73/2/2 79/2/2
f 79/1/2 74/1/2 80/1/2
f 75/2/2 76/2/2 81/2/2
f 76/1/2 77/1/2 82/1/2
f 81/2/2 76/2/2 82/2/2
f 82/1/2 77/1/2 83/1/2
f 79/3/2 80/3/2 84/3/2
f 78/3/2 79/3/2 84/3/2
f 84/3/2 80/3/2 85/3/2
f 82/3/2 83/3/2 86/3/2
f 81/3/2 82/3/2 86/3/2
f 86/3/2 83/3/2 87/3/2
f 88/2/2 89/2/2 90/2/2
f 90/2/2 89/2/2 91/2/2
f 92/3/2 93/3/2 95/3/2
f 95/3/2 93/3/2 96/3/2
f 94/3/2 95/3/2 96/3/2
f 94/3/2 96/3/2 98/3/2
f 96/3/2 97/3/2 98/3/2
f 98/3/2 97/3/2 99/3/2
f 94/3/2 98/3/2 100/3/2
f 100/3/2 98/3/2 101/3/2
f 99/3/2 97/3/2 102/3/2
f 102/3/2 97/3/2 103/3/2
f 104/2/2 105/2/2 110/2/2
f 105/1/2 106/1/2 111/1/2
f 110/2/2 105/2/2 111/2/2
f 111/1/2 106/1/2 112/1/2
f 107/2/2 108/2/2 113/2/2
f 108/1/2 109/1/2 114/1/2
f 113/2/2 108/2/2 114/2/2
f 114/1/2 109/1/2 115/1/2
f 111/3/2 112/3/2 116/3/2
f 110/3/2 111/3/2 116/3/2
f 116/3/2 112/3/2 117/3/2
f 114/3/2 115/3/2 118/3/2
f 113/3/2 114/3/2 118/3/2
f 118/3/2 115/3/2 119/3/2
f 120/2/2 121/2/2 122/2/2
f 122/2/2 121/2/2 123/2/2
f 124/3/2 125/3/2 126/3/2
f 126/3/2 125/3/2 127/3/2
f 124/3/2 126/3/2 128/3/2
f 126/1/2 127/1/2 128/1/2
f 127/3/2 125/3/2 129/3/2
f 128/1/2 127/1/2 129/1/2
f 124/3/2 128/3/2 130/3/2
f 128/3/2 129/3/2 130/3/2
f 130/3/2 129/3/2 131/3/2
f 131/3/2 129/3/2 132/3/2
f 132/3/2 129/3/2 133/3/2
f 130/1/2 131/1/2 134/1/2
f 131/3/2 132/3/2 135/3/2
f 134/1/2 131/1/2 135/1/2
f 132/1/2 133/1/2 136/1/2
f 135/3/2 132/3/2 136/3/2
f 133/3/2 129/3/2 137/3/2
f 136/1/2 133/1/2 137/1/2
f 129/3/2 125/3/2 138/3/2
f 137/3/2 129/3/2 138/3/2
f 141/2/3 140/2/3 139/2/3
f 142/2/3 140/2/3 141/2/3
f 143/5/3 142/5/3 141/5/3
f 144/2/3 140/2/3 142/2/3
f 144/5/3 142/5/3 143/5/3
f 145/2/3 144/2/3 143/2/3
f 146/2/3 140/2/3 144/2/3
f 146/2/3 144/2/3 145/2/3
f 149/3/3 148/3/3 147/3/3
f 150/3/3 148/3/3 149/3/3
f 151/3/3 148/3/3 150/3/3
f 152/5/3 151/5/3 150/5/3
f 153/3/3 148/3/3 151/3/3
f 153/5/3 151/5/3 152/5/3
f 154/3/3 153/3/3 152/3/3
f 155/3/3 148/3/3 153/3/3
f 155/3/3 153/3/3 154/3/3
f 156/3/3 149/3/3 147/3/3
f 157/5/3 155/5/3 154/5/3
f 158/3/3 148/3/3 155/3/3
f 158/5/3 155/5/3 157/5/3
f 159/3/3 157/3/3 156/3/3
f 159/3/3 156/3/3 147/3/3
f 159/3/3 158/3/3 157/3/3
f 160/3/3 148/3/3 158/3/3
f 160/3/3 158/3/3 159/3/3
f 165/2/3 162/2/3 161/2/3
f 166/2/3 162/2/3 165/2/3
f 167/2/3 162/2/3 166/2/3
f 168/2/3 162/2/3 167/2/3
f 171/3/3 164/3/3 163/3/3
f 172/3/3 164/3/3 171/3/3
f 174/2/3 170/2/3 169/2/3
f 175/2/3 174/2/3 173/2/3
f 176/2/3 170/2/3 174/2/3
f 176/2/3 174/2/3 175/2/3
f 179/3/3 178/3/3 177/3/3
f 180/3/3 178/3/3 179/3/3
f 181/3/3 179/3/3 177/3/3
f 183/3/3 182/3/3 181/3/3
f 184/3/3 182/3/3 183/3/3
f 185/3/3 181/3/3 177/3/3
f 185/3/3 183/3/3 181/3/3
f 186/1/3 184/1/3 183/1/3
f 186/3/3 183/3/3 185/3/3
f 187/1/3 184/1/3 186/1/3
f 191/2/3 189/2/3 188/2/3
f 192/3/3 190/3/3 189/3/3
f 192/2/3 189/2/3 191/2/3
f 193/1/3 192/1/3 191/1/3
f 194/3/3 190/3/3 192/3/3
f 194/1/3 192/1/3 193/1/3
f 195/2/3 194/2/3 193/2/3
f 196/3/3 190/3/3 194/3/3
f 196/2/3 194/2/3 195/2/3
f 197/3/3 190/3/3 196/3/3
f 201/2/3 199/2/3 198/2/3
f 202/3/3 200/3/3 199/3/3
f 202/2/3 199/2/3 201/2/3
f 203/1/3 202/1/3 201/1/3
f 204/3/3 200/3/3 202/3/3
f 204/1/3 202/1/3 203/1/3
f 205/2/3 204/2/3 203/2/3
f 206/3/3 200/3/3 204/3/3
f 206/2/3 204/2/3 205/2/3
f 207/3/3 200/3/3 206/3/3
f 211/2/3 209/2/3 208/2/3
f 212/3/3 210/3/3 209/3/3
f 212/2/3 209/2/3 211/2/3
f 213/1/3 212/1/3 211/1/3
f 214/3/3 210/3/3 212/3/3
f 214/1/3 212/1/3 213/1/3
f 215/2/3 214/2/3 213/2/3
f 216/3/3 210/3/3 214/3/3
f 216/2/3 214/2/3 215/2/3
f 217/3/3 210/3/3 216/3/3
f 221/2/3 219/2/3 218/2/3
f 222/3/3 220/3/3 219/3/3
f 222/2/3 219/2/3 221/2/3
f 223/1/3 222/1/3 221/1/3
f 224/3/3 220/3/3 222/3/3
f 224/1/3 222/1/3 223/1/3
f 225/2/3 224/2/3 223/2/3
f 226/3/3 220/3/3 224/3/3
f 226/2/3 224/2/3 225/2/3
f 227/3/3 220/3/3 226/3/3
f 228/2/4 229/2/4 230/2/4
f 230/2/4 229/2/4 231/2/4
f 231/2/4 229/2/4 232/2/4
f 232/2/4 229/2/4 233/2/4
f 234/2/4 235/2/4 237/2/4
f 236/2/4 237/2/4 238/2/4
f 237/2/4 235/2/4 239/2/4
f 238/2/4 237/2/4 239/2/4
f 240/3/4 241/3/4 242/3/4
f 242/3/4 241/3/4 243/3/4
f 240/3/4 242/3/4 244/3/4
f 242/1/4 243/1/4 244/1/4
f 244/1/4 243/1/4 245/1/4
f 240/3/4 244/3/4 246/3/4
f 244/3/4 245/3/4 246/3/4
f 246/3/4 245/3/4 247/3/4
f 248/1/4 249/1/4 251/1/4
f 249/3/4 250/3/4 252/3/4
f 251/1/4 249/1/4 252/1/4
f 252/3/4 250/3/4 253/3/4
f 254/1/4 255/1/4 257/1/4
f 255/3/4 256/3/4 258/3/4
f 257/1/4 255/1/4 258/1/4
f 258/3/4 256/3/4 259/3/4
f 260/1/4 261/1/4 263/1/4
f 261/3/4 262/3/4 264/3/4
f 263/1/4 261/1/4 264/1/4
f 264/3/4 262/3/4 265/3/4
f 266/1/4 267/1/4 269/1/4
f 267/3/4 268/3/4 270/3/4
f 269/1/4 267/1/4 270/1/4
f 270/3/4 268/3/4 271/3/4
f 272/3/4 273/3/4 275/3/4
f 275/3/4 273/3/4 276/3/4
f 273/1/4 274/1/4 277/1/4
f 276/3/4 273/3/4 277/3/4
f 277/1/4 274/1/4 278/1/4
f 275/1/4 276/1/4 279/1/4
f 272/3/4 275/3/4 279/3/4
f 277/3/4 278/3/4 280/3/4
f 279/1/4 276/1/4 280/1/4
f 276/3/4 277/3/4 280/3/4
f 272/3/4 279/3/4 281/3/4
f 279/3/4 280/3/4 281/3/4
f 280/3/4 278/3/4 282/3/4
f 281/3/4 280/3/4 282/3/4
f 282/3/4 278/3/4 283/3/4
f 283/3/4 278/3/4 284/3/4
f 282/3/4 283/3/4 285/3/4
f 283/1/4 284/1/4 285/1/4
f 284/3/4 278/3/4 286/3/4
f 285/1/4 284/1/4 286/1/4
f 272/3/4 281/3/4 287/3/4
f 281/1/4 282/1/4 287/1/4
f 285/3/4 286/3/4 288/3/4
f 287/1/4 282/1/4 288/1/4
f 282/3/4 285/3/4 288/3/4
f 272/3/4 287/3/4 289/3/4
f 287/3/4 288/3/4 289/3/4
f 289/3/4 288/3/4 290/3/4
f 286/3/4 278/3/4 291/3/4
f 290/3/4 288/3/4 291/3/4
f 288/3/4 286/3/4 291/3/4
f 291/3/4 278/3/4 292/3/4
f 289/1/4 290/1/4 293/1/4
f 272/3/4 289/3/4 293/3/4
f 290/3/4 291/3/4 294/3/4
f 293/1/4 290/1/4 294/1/4
f 291/1/4 292/1/4 295/1/4
f 294/3/4 291/3/4 295/3/4
f 295/1/4 292/1/4 296/1/4
f 293/3/4 294/3/4 297/3/4
f 272/3/4 293/3/4 297/3/4
f 295/3/4 296/3/4 297/3/4
f 294/3/4 295/3/4 297/3/4
f 297/3/4 296/3/4 298/3/4
f 307/2/5 300/2/5 299/2/5
f 308/1/5 301/1/5 300/1/5
f 308/2/5 300/2/5 307/2/5
f 309/2/5 302/2/5 301/2/5
f 309/1/5 301/1/5 308/1/5
f 310/2/5 302/2/5 309/2/5
f 311/2/5 304/2/5 303/2/5
f 312/1/5 305/1/5 304/1/5
f 312/2/5 304/2/5 311/2/5
f 313/2/5 306/2/5 305/2/5
f 313/1/5 305/1/5 312/1/5
f 314/2/5 306/2/5 313/2/5
f 315/1/5 308/1/5 307/1/5
f 315/1/5 310/1/5 309/1/5
f 315/1/5 309/1/5 308/1/5
f 316/1/5 310/1/5 315/1/5
f 317/1/5 312/1/5 311/1/5
f 317/1/5 314/1/5 313/1/5
f 317/1/5 313/1/5 312/1/5
f 318/1/5 314/1/5 317/1/5
f 327/2/5 320/2/5 319/2/5
f 328/1/5 321/1/5 320/1/5
f 328/2/5 320/2/5 327/2/5
f 329/2/5 322/2/5 321/2/5
f 329/1/5 321/1/5 328/1/5
f 330/2/5 322/2/5 329/2/5
f 331/2/5 324/2/5 323/2/5
f 332/1/5 325/1/5 324/1/5
f 332/2/5 324/2/5 331/2/5
f 333/2/5 326/2/5 325/2/5
f 333/1/5 325/1/5 332/1/5
f 334/2/5 326/2/5 333/2/5
f 335/1/5 328/1/5 327/1/5
f 335/1/5 330/1/5 329/1/5
f 335/1/5 329/1/5 328/1/5
f 336/1/5 330/1/5 335/1/5
f 337/1/5 332/1/5 331/1/5
f 337/1/5 334/1/5 333/1/5
f 337/1/5 333/1/5 332/1/5
f 338/1/5 334/1/5 337/1/5
f 341/3/5 340/3/5 339/3/5
f 342/3/5 340/3/5 341/3/5
f 343/3/5 340/3/5 342/3/5
f 344/3/5 340/3/5 343/3/5
f 345/3/5 341/3/5 339/3/5
f 346/3/5 343/3/5 342/3/5
f 347/3/5 343/3/5 346/3/5
f 348/3/5 340/3/5 344/3/5
f 349/3/5 347/3/5 346/3/5
f 349/3/5 348/3/5 347/3/5
f 349/3/5 345/3/5 339/3/5
f 349/3/5 346/3/5 345/3/5
f 350/3/5 348/3/5 349/3/5
f 351/3/5 348/3/5 350/3/5
f 352/3/5 340/3/5 348/3/5
f 352/3/5 348/3/5 351/3/5
f 353/3/5 349/3/5 339/3/5
f 354/3/5 351/3/5 350/3/5
f 355/3/5 351/3/5 354/3/5
f 356/3/5 340/3/5 352/3/5
f 357/3/5 353/3/5 339/3/5
f 357/3/5 356/3/5 355/3/5
f 357/3/5 355/3/5 354/3/5
f 357/3/5 354/3/5 353/3/5
f 358/3/5 340/3/5 356/3/5
f 358/3/5 356/3/5 357/3/5
f 361/3/5 360/3/5 359/3/5
f 362/3/5 360/3/5 361/3/5
f 365/3/5 364/3/5 363/3/5
f 366/3/5 364/3/5 365/3/5
f 371/2/5 368/2/5 367/2/5
f 371/5/5 369/5/5 368/5/5
f 372/2/5 370/2/5 369/2/5
f 372/5/5 369/5/5 371/5/5
f 373/2/5 371/2/5 367/2/5
f 373/2/5 372/2/5 371/2/5
f 374/2/5 370/2/5 372/2/5
f 374/2/5 372/2/5 373/2/5
f 379/2/5 376/2/5 375/2/5
f 380/2/5 376/2/5 379/2/5
f 381/2/5 378/2/5 377/2/5
f 382/2/5 378/2/5 381/2/5
f 383/2/6 384/2/6 385/2/6
f 385/2/6 384/2/6 386/2/6
f 386/2/6 384/2/6 387/2/6
f 387/2/6 384/2/6 388/2/6
f 389/3/6 390/3/6 394/3/6
f 391/3/6 392/3/6 395/3/6
f 392/1/6 393/1/6 396/1/6
f 394/3/6 395/3/6 396/3/6
f 395/3/6 392/3/6 396/3/6
f 396/1/6 393/1/6 397/1/6
f 389/3/6 394/3/6 398/3/6
f 394/3/6 396/3/6 398/3/6
f 396/3/6 397/3/6 398/3/6
f 398/3/6 397/3/6 399/3/6
f 399/3/6 397/3/6 400/3/6
f 400/3/6 397/3/6 401/3/6
f 389/3/6 398/3/6 402/3/6
f 398/1/6 399/1/6 402/1/6
f 402/1/6 399/1/6 403/1/6
f 399/3/6 400/3/6 404/3/6
f 400/1/6 401/1/6 405/1/6
f 404/3/6 400/3/6 405/3/6
f 403/1/6 399/1/6 406/1/6
f 402/3/6 403/3/6 406/3/6
f 399/3/6 404/3/6 407/3/6
f 406/1/6 399/1/6 407/1/6
f 404/1/6 405/1/6 408/1/6
f 407/3/6 404/3/6 408/3/6
f 401/3/6 397/3/6 409/3/6
f 408/1/6 405/1/6 409/1/6
f 405/1/6 401/1/6 409/1/6
f 407/3/6 408/3/6 410/3/6
f 409/3/6 397/3/6 410/3/6
f 408/3/6 409/3/6 410/3/6
f 406/3/6 407/3/6 410/3/6
f 410/3/6 397/3/6 411/3/6
f 389/3/6 402/3/6 412/3/6
f 402/3/6 406/3/6 412/3/6
f 406/3/6 410/3/6 412/3/6
f 412/3/6 410/3/6 413/3/6
f 410/1/6 411/1/6 414/1/6
f 413/3/6 410/3/6 414/3/6
f 414/1/6 411/1/6 415/1/6
f 413/3/6 414/3/6 416/3/6
f 414/3/6 415/3/6 416/3/6
f 416/3/6 415/3/6 417/3/6
f 413/3/6 416/3/6 418/3/6
f 416/1/6 417/1/6 418/1/6
f 417/3/6 415/3/6 419/3/6
f 418/1/6 417/1/6 419/1/6
f 419/3/6 415/3/6 420/3/6
f 420/3/6 415/3/6 421/3/6
f 412/1/6 413/1/6 422/1/6
f 413/3/6 418/3/6 423/3/6
f 422/1/6 413/1/6 423/1/6
f 418/3/6 419/3/6 423/3/6
f 419/3/6 420/3/6 423/3/6
f 420/1/6 421/1/6 424/1/6
f 423/3/6 420/3/6 424/3/6
f 421/3/6 415/3/6 425/3/6
f 424/1/6 421/1/6 425/1/6
f 425/3/6 415/3/6 426/3/6
f 427/3/6 428/3/6 429/3/6
f 429/3/6 428/3/6 430/3/6
f 430/3/6 428/3/6 431/3/6
f 431/3/6 428/3/6 432/3/6
f 430/3/6 431/3/6 434/3/6
f 434/3/6 431/3/6 435/3/6
f 433/3/6 434/3/6 437/3/6
f 435/3/6 436/3/6 437/3/6
f 434/3/6 435/3/6 437/3/6
f 437/3/6 436/3/6 438/3/6
f 433/3/6 437/3/6 439/3/6
f 437/1/6 438/1/6 440/1/6
f 439/3/6 437/3/6 440/3/6
f 438/3/6 436/3/6 441/3/6
f 440/1/6 438/1/6 441/1/6
f 441/3/6 436/3/6 442/3/6
f 443/2/6 444/2/6 447/2/6
f 447/2/6 444/2/6 448/2/6
f 445/2/6 446/2/6 449/2/6
f 449/2/6 446/2/6 450/2/6
