# MagicaVoxel @ Ephtracy

# group
g gather_rock_frth

# material
mtllib gather_rock_frth.mtl
usemtl palette

# normals
vn -1 0 0
vn 1 0 0
vn 0 0 1
vn 0 0 -1
vn 0 -1 0
vn 0 1 0

# texcoords
vt 0.978516 0.5
vt 0.986328 0.5

# verts
v -1.5 0 2.5
v -1.5 0 -1.5
v -1.5 1 2.5
v -1.5 1 -0.5
v -1.5 1 -1.5
v -1.5 2 2.5
v -1.5 2 -0.5
v -0.5 0 -0.5
v -0.5 0 -1.5
v -0.5 1 2.5
v -0.5 1 1.5
v -0.5 1 0.5
v -0.5 1 -0.5
v -0.5 1 -1.5
v -0.5 2 2.5
v -0.5 2 1.5
v -0.5 2 0.5
v -0.5 2 -0.5
v 0.5 0 0.5
v 0.5 0 -0.5
v 0.5 1 1.5
v 0.5 1 0.5
v 0.5 1 -0.5
v 0.5 2 1.5
v 0.5 2 0.5
v 1.5 0 2.5
v 1.5 0 1.5
v 1.5 0 0.5
v 1.5 1 2.5
v 1.5 1 1.5
v 1.5 1 0.5
v -1.5 0 2.5
v -1.5 1 2.5
v -1.5 2 2.5
v -0.5 1 2.5
v -0.5 2 2.5
v 1.5 0 2.5
v 1.5 1 2.5
v -0.5 1 1.5
v -0.5 2 1.5
v 0.5 1 1.5
v 0.5 2 1.5
v -0.5 1 0.5
v -0.5 2 0.5
v 0.5 0 0.5
v 0.5 1 0.5
v 0.5 2 0.5
v 1.5 0 0.5
v 1.5 1 0.5
v -1.5 1 -0.5
v -1.5 2 -0.5
v -0.5 0 -0.5
v -0.5 1 -0.5
v -0.5 2 -0.5
v 0.5 0 -0.5
v 0.5 1 -0.5
v -1.5 0 -1.5
v -1.5 1 -1.5
v -0.5 0 -1.5
v -0.5 1 -1.5
v -1.5 0 2.5
v 1.5 0 2.5
v -0.5 0 1.5
v 1.5 0 1.5
v 0.5 0 0.5
v 1.5 0 0.5
v -0.5 0 -0.5
v 0.5 0 -0.5
v -1.5 0 -1.5
v -0.5 0 -1.5
v -0.5 1 2.5
v 1.5 1 2.5
v -0.5 1 1.5
v 0.5 1 1.5
v 1.5 1 1.5
v -0.5 1 0.5
v 0.5 1 0.5
v 1.5 1 0.5
v -1.5 1 -0.5
v -0.5 1 -0.5
v 0.5 1 -0.5
v -1.5 1 -1.5
v -0.5 1 -1.5
v -1.5 2 2.5
v -0.5 2 2.5
v -0.5 2 1.5
v 0.5 2 1.5
v -0.5 2 0.5
v 0.5 2 0.5
v -1.5 2 -0.5
v -0.5 2 -0.5

# faces
f 3/2/1 2/2/1 1/2/1
f 4/2/1 2/2/1 3/2/1
f 5/2/1 2/2/1 4/2/1
f 6/1/1 4/1/1 3/1/1
f 7/1/1 4/1/1 6/1/1
f 8/2/2 9/2/2 13/2/2
f 13/2/2 9/2/2 14/2/2
f 10/1/2 11/1/2 15/1/2
f 15/1/2 11/1/2 16/1/2
f 12/1/2 13/1/2 17/1/2
f 17/1/2 13/1/2 18/1/2
f 19/1/2 20/1/2 22/1/2
f 22/1/2 20/1/2 23/1/2
f 21/1/2 22/1/2 24/1/2
f 24/1/2 22/1/2 25/1/2
f 26/2/2 27/2/2 29/2/2
f 27/1/2 28/1/2 30/1/2
f 29/2/2 27/2/2 30/2/2
f 30/1/2 28/1/2 31/1/2
f 35/2/3 33/2/3 32/2/3
f 35/1/3 34/1/3 33/1/3
f 36/1/3 34/1/3 35/1/3
f 37/2/3 35/2/3 32/2/3
f 38/2/3 35/2/3 37/2/3
f 41/1/3 40/1/3 39/1/3
f 42/1/3 40/1/3 41/1/3
f 43/1/4 44/1/4 46/1/4
f 46/1/4 44/1/4 47/1/4
f 45/1/4 46/1/4 48/1/4
f 48/1/4 46/1/4 49/1/4
f 50/1/4 51/1/4 53/1/4
f 53/1/4 51/1/4 54/1/4
f 52/1/4 53/1/4 55/1/4
f 55/1/4 53/1/4 56/1/4
f 57/2/4 58/2/4 59/2/4
f 59/2/4 58/2/4 60/2/4
f 63/2/5 62/2/5 61/2/5
f 64/2/5 62/2/5 63/2/5
f 65/1/5 64/1/5 63/1/5
f 66/1/5 64/1/5 65/1/5
f 67/2/5 63/2/5 61/2/5
f 67/1/5 65/1/5 63/1/5
f 68/1/5 65/1/5 67/1/5
f 69/2/5 67/2/5 61/2/5
f 70/2/5 67/2/5 69/2/5
f 71/2/6 72/2/6 73/2/6
f 73/2/6 72/2/6 74/2/6
f 74/2/6 72/2/6 75/2/6
f 74/1/6 75/1/6 77/1/6
f 77/1/6 75/1/6 78/1/6
f 76/1/6 77/1/6 80/1/6
f 80/1/6 77/1/6 81/1/6
f 79/2/6 80/2/6 82/2/6
f 82/2/6 80/2/6 83/2/6
f 84/1/6 85/1/6 86/1/6
f 84/1/6 86/1/6 88/1/6
f 86/1/6 87/1/6 88/1/6
f 88/1/6 87/1/6 89/1/6
f 84/1/6 88/1/6 90/1/6
f 90/1/6 88/1/6 91/1/6
