# MagicaVoxel @ Ephtracy

# group
g Spruce

# material
mtllib Spruce.mtl
usemtl palette

# normals
vn -1 0 0
vn 1 0 0
vn 0 0 1
vn 0 0 -1
vn 0 -1 0
vn 0 1 0

# texcoords
vt 0.373047 0.5
vt 0.818359 0.5
vt 0.908203 0.5

# verts
v -6.5 14 6.5
v -6.5 14 5.5
v -6.5 14 3.5
v -6.5 14 -2.5
v -6.5 14 -6.5
v -6.5 15 6.5
v -6.5 15 5.5
v -6.5 15 3.5
v -6.5 15 -2.5
v -6.5 16 -3.5
v -6.5 16 -6.5
v -6.5 17 6.5
v -6.5 17 -3.5
v -6.5 17 -6.5
v -5.5 17 5.5
v -5.5 17 2.5
v -5.5 17 -0.5
v -5.5 17 -3.5
v -5.5 17 -5.5
v -5.5 18 2.5
v -5.5 18 -0.5
v -5.5 21 5.5
v -5.5 21 -5.5
v -4.5 21 4.5
v -4.5 21 1.5
v -4.5 21 -1.5
v -4.5 21 -4.5
v -4.5 22 1.5
v -4.5 22 -1.5
v -4.5 23 1.5
v -4.5 23 -1.5
v -4.5 24 4.5
v -4.5 24 1.5
v -4.5 24 -1.5
v -4.5 24 -4.5
v -3.5 24 3.5
v -3.5 24 1.5
v -3.5 24 -1.5
v -3.5 24 -3.5
v -3.5 25 1.5
v -3.5 25 -1.5
v -3.5 27 3.5
v -3.5 27 -3.5
v -2.5 27 2.5
v -2.5 27 -1.5
v -2.5 27 -2.5
v -2.5 28 -1.5
v -2.5 28 -2.5
v -2.5 29 -0.5
v -2.5 29 -1.5
v -2.5 30 2.5
v -2.5 30 -0.5
v -2.5 30 -1.5
v -2.5 30 -2.5
v -1.5 0 1.5
v -1.5 0 -1.5
v -1.5 14 1.5
v -1.5 14 -1.5
v -1.5 30 1.5
v -1.5 30 -0.5
v -1.5 30 -1.5
v -1.5 32 -0.5
v -1.5 32 -1.5
v -1.5 33 1.5
v -1.5 33 -1.5
v 1.5 0 1.5
v 1.5 0 -1.5
v 1.5 14 1.5
v 1.5 14 -1.5
v 1.5 30 1.5
v 1.5 30 -1.5
v 1.5 31 1.5
v 1.5 31 -0.5
v 1.5 33 1.5
v 1.5 33 -0.5
v 1.5 33 -1.5
v 2.5 27 2.5
v 2.5 27 -2.5
v 2.5 30 2.5
v 2.5 30 -2.5
v 3.5 24 3.5
v 3.5 24 -3.5
v 3.5 25 3.5
v 3.5 25 2.5
v 3.5 26 3.5
v 3.5 26 2.5
v 3.5 27 3.5
v 3.5 27 -3.5
v 4.5 21 4.5
v 4.5 21 2.5
v 4.5 21 1.5
v 4.5 21 -4.5
v 4.5 23 2.5
v 4.5 23 1.5
v 4.5 24 4.5
v 4.5 24 -4.5
v 5.5 17 5.5
v 5.5 17 2.5
v 5.5 17 -3.5
v 5.5 17 -5.5
v 5.5 18 5.5
v 5.5 18 4.5
v 5.5 19 5.5
v 5.5 19 4.5
v 5.5 20 2.5
v 5.5 20 1.5
v 5.5 21 5.5
v 5.5 21 2.5
v 5.5 21 1.5
v 5.5 21 -5.5
v 6.5 14 6.5
v 6.5 14 -5.5
v 6.5 14 -6.5
v 6.5 15 -5.5
v 6.5 15 -6.5
v 6.5 16 2.5
v 6.5 16 -3.5
v 6.5 17 6.5
v 6.5 17 2.5
v 6.5 17 -3.5
v 6.5 17 -6.5
v -6.5 14 6.5
v -6.5 15 6.5
v -6.5 17 6.5
v 1.5 14 6.5
v 1.5 15 6.5
v 1.5 16 6.5
v 3.5 15 6.5
v 3.5 16 6.5
v 6.5 14 6.5
v 6.5 17 6.5
v -5.5 17 5.5
v -5.5 21 5.5
v -3.5 19 5.5
v -3.5 21 5.5
v -0.5 19 5.5
v -0.5 21 5.5
v 1.5 18 5.5
v 1.5 19 5.5
v 2.5 18 5.5
v 2.5 19 5.5
v 4.5 18 5.5
v 4.5 19 5.5
v 5.5 17 5.5
v 5.5 18 5.5
v 5.5 19 5.5
v 5.5 21 5.5
v -4.5 21 4.5
v -4.5 24 4.5
v -3.5 21 4.5
v -2.5 22 4.5
v -2.5 24 4.5
v -0.5 21 4.5
v -0.5 22 4.5
v -0.5 24 4.5
v 2.5 21 4.5
v 2.5 22 4.5
v 3.5 21 4.5
v 3.5 22 4.5
v 4.5 21 4.5
v 4.5 24 4.5
v -3.5 24 3.5
v -3.5 27 3.5
v -2.5 24 3.5
v -2.5 25 3.5
v -0.5 24 3.5
v -0.5 25 3.5
v -0.5 26 3.5
v -0.5 27 3.5
v 0.5 26 3.5
v 0.5 27 3.5
v 1.5 25 3.5
v 1.5 27 3.5
v 2.5 26 3.5
v 2.5 27 3.5
v 3.5 24 3.5
v 3.5 25 3.5
v 3.5 26 3.5
v 3.5 27 3.5
v -2.5 27 2.5
v -2.5 30 2.5
v -0.5 27 2.5
v 0.5 27 2.5
v 1.5 27 2.5
v 2.5 27 2.5
v 2.5 30 2.5
v -1.5 0 1.5
v -1.5 14 1.5
v -1.5 30 1.5
v -1.5 33 1.5
v 0.5 31 1.5
v 0.5 33 1.5
v 1.5 0 1.5
v 1.5 14 1.5
v 1.5 30 1.5
v 1.5 31 1.5
v 1.5 33 1.5
v -1.5 0 -1.5
v -1.5 14 -1.5
v -1.5 30 -1.5
v -1.5 32 -1.5
v -1.5 33 -1.5
v 0.5 30 -1.5
v 0.5 32 -1.5
v 1.5 0 -1.5
v 1.5 14 -1.5
v 1.5 30 -1.5
v 1.5 33 -1.5
v -2.5 27 -2.5
v -2.5 28 -2.5
v -2.5 30 -2.5
v 0.5 27 -2.5
v 0.5 28 -2.5
v 2.5 27 -2.5
v 2.5 30 -2.5
v -3.5 24 -3.5
v -3.5 27 -3.5
v -2.5 24 -3.5
v -2.5 26 -3.5
v -2.5 27 -3.5
v 0.5 26 -3.5
v 0.5 27 -3.5
v 3.5 24 -3.5
v 3.5 27 -3.5
v -4.5 21 -4.5
v -4.5 24 -4.5
v -3.5 21 -4.5
v -3.5 23 -4.5
v -3.5 24 -4.5
v -2.5 21 -4.5
v -2.5 23 -4.5
v -2.5 24 -4.5
v -1.5 21 -4.5
v 1.5 21 -4.5
v 1.5 23 -4.5
v 2.5 21 -4.5
v 2.5 23 -4.5
v 4.5 21 -4.5
v 4.5 24 -4.5
v -5.5 17 -5.5
v -5.5 21 -5.5
v -4.5 19 -5.5
v -4.5 21 -5.5
v -3.5 19 -5.5
v -3.5 21 -5.5
v -2.5 20 -5.5
v -2.5 21 -5.5
v -1.5 20 -5.5
v -1.5 21 -5.5
v 1.5 17 -5.5
v 1.5 18 -5.5
v 1.5 20 -5.5
v 1.5 21 -5.5
v 2.5 17 -5.5
v 2.5 18 -5.5
v 2.5 20 -5.5
v 2.5 21 -5.5
v 5.5 17 -5.5
v 5.5 21 -5.5
v -6.5 14 -6.5
v -6.5 16 -6.5
v -6.5 17 -6.5
v -5.5 16 -6.5
v -5.5 17 -6.5
v -2.5 15 -6.5
v -2.5 16 -6.5
v 2.5 15 -6.5
v 2.5 16 -6.5
v 5.5 14 -6.5
v 5.5 15 -6.5
v 6.5 14 -6.5
v 6.5 15 -6.5
v 6.5 17 -6.5
v -1.5 0 1.5
v 1.5 0 1.5
v -1.5 0 -1.5
v 1.5 0 -1.5
v -6.5 14 6.5
v 1.5 14 6.5
v 6.5 14 6.5
v -6.5 14 5.5
v 1.5 14 5.5
v -2.5 14 4.5
v 0.5 14 4.5
v -6.5 14 3.5
v -2.5 14 3.5
v 0.5 14 3.5
v 4.5 14 3.5
v -1.5 14 1.5
v 1.5 14 1.5
v -1.5 14 -1.5
v 1.5 14 -1.5
v -6.5 14 -2.5
v 0.5 14 -2.5
v 2.5 14 -2.5
v 4.5 14 -2.5
v 0.5 14 -4.5
v 2.5 14 -4.5
v 5.5 14 -5.5
v 6.5 14 -5.5
v -6.5 14 -6.5
v 5.5 14 -6.5
v 6.5 14 -6.5
v -6.5 17 6.5
v 6.5 17 6.5
v -5.5 17 5.5
v 5.5 17 5.5
v -5.5 17 2.5
v 5.5 17 2.5
v 6.5 17 2.5
v -5.5 17 -0.5
v -6.5 17 -3.5
v -5.5 17 -3.5
v 5.5 17 -3.5
v 6.5 17 -3.5
v -5.5 17 -5.5
v 1.5 17 -5.5
v 2.5 17 -5.5
v 5.5 17 -5.5
v -6.5 17 -6.5
v -5.5 17 -6.5
v 6.5 17 -6.5
v -5.5 21 5.5
v -3.5 21 5.5
v -0.5 21 5.5
v 5.5 21 5.5
v -4.5 21 4.5
v -3.5 21 4.5
v -0.5 21 4.5
v 2.5 21 4.5
v 3.5 21 4.5
v 4.5 21 4.5
v 4.5 21 2.5
v 5.5 21 2.5
v -4.5 21 1.5
v 4.5 21 1.5
v 5.5 21 1.5
v -4.5 21 -1.5
v -4.5 21 -4.5
v -3.5 21 -4.5
v -2.5 21 -4.5
v -1.5 21 -4.5
v 1.5 21 -4.5
v 2.5 21 -4.5
v 4.5 21 -4.5
v -5.5 21 -5.5
v -4.5 21 -5.5
v -3.5 21 -5.5
v -2.5 21 -5.5
v -1.5 21 -5.5
v 1.5 21 -5.5
v 2.5 21 -5.5
v 5.5 21 -5.5
v -4.5 24 4.5
v -2.5 24 4.5
v -0.5 24 4.5
v 4.5 24 4.5
v -3.5 24 3.5
v -2.5 24 3.5
v -0.5 24 3.5
v 3.5 24 3.5
v -4.5 24 1.5
v -3.5 24 1.5
v -4.5 24 -1.5
v -3.5 24 -1.5
v -3.5 24 -3.5
v -2.5 24 -3.5
v 3.5 24 -3.5
v -4.5 24 -4.5
v -3.5 24 -4.5
v -2.5 24 -4.5
v 4.5 24 -4.5
v -3.5 27 3.5
v -0.5 27 3.5
v 0.5 27 3.5
v 1.5 27 3.5
v 2.5 27 3.5
v 3.5 27 3.5
v -2.5 27 2.5
v -0.5 27 2.5
v 0.5 27 2.5
v 1.5 27 2.5
v 2.5 27 2.5
v -2.5 27 -1.5
v -2.5 27 -2.5
v 0.5 27 -2.5
v 2.5 27 -2.5
v -3.5 27 -3.5
v -2.5 27 -3.5
v 0.5 27 -3.5
v 3.5 27 -3.5
v -2.5 30 2.5
v 2.5 30 2.5
v -1.5 30 1.5
v 1.5 30 1.5
v -2.5 30 -0.5
v -1.5 30 -0.5
v -2.5 30 -1.5
v -1.5 30 -1.5
v 0.5 30 -1.5
v 1.5 30 -1.5
v -2.5 30 -2.5
v 2.5 30 -2.5
v -1.5 33 1.5
v 0.5 33 1.5
v 1.5 33 1.5
v 0.5 33 -0.5
v 1.5 33 -0.5
v -1.5 33 -1.5
v 1.5 33 -1.5

# faces
f 6/2/1 2/2/1 1/2/1
f 7/3/1 3/3/1 2/3/1
f 7/2/1 2/2/1 6/2/1
f 8/2/1 4/2/1 3/2/1
f 8/3/1 3/3/1 7/3/1
f 9/3/1 5/3/1 4/3/1
f 9/2/1 4/2/1 8/2/1
f 10/3/1 8/3/1 7/3/1
f 10/3/1 5/3/1 9/3/1
f 10/3/1 9/3/1 8/3/1
f 10/3/1 7/3/1 6/3/1
f 11/3/1 5/3/1 10/3/1
f 12/3/1 10/3/1 6/3/1
f 13/2/1 11/2/1 10/2/1
f 13/3/1 10/3/1 12/3/1
f 14/2/1 11/2/1 13/2/1
f 20/3/1 16/3/1 15/3/1
f 20/2/1 17/2/1 16/2/1
f 21/3/1 19/3/1 18/3/1
f 21/2/1 17/2/1 20/2/1
f 21/3/1 18/3/1 17/3/1
f 22/3/1 20/3/1 15/3/1
f 22/3/1 21/3/1 20/3/1
f 23/3/1 19/3/1 21/3/1
f 23/3/1 21/3/1 22/3/1
f 28/3/1 25/3/1 24/3/1
f 28/2/1 26/2/1 25/2/1
f 29/3/1 27/3/1 26/3/1
f 29/2/1 26/2/1 28/2/1
f 30/3/1 28/3/1 24/3/1
f 30/3/1 29/3/1 28/3/1
f 31/3/1 27/3/1 29/3/1
f 31/3/1 29/3/1 30/3/1
f 32/3/1 30/3/1 24/3/1
f 33/2/1 31/2/1 30/2/1
f 33/3/1 30/3/1 32/3/1
f 34/3/1 27/3/1 31/3/1
f 34/2/1 31/2/1 33/2/1
f 35/3/1 27/3/1 34/3/1
f 40/3/1 37/3/1 36/3/1
f 40/2/1 38/2/1 37/2/1
f 41/3/1 39/3/1 38/3/1
f 41/2/1 38/2/1 40/2/1
f 42/3/1 40/3/1 36/3/1
f 42/3/1 41/3/1 40/3/1
f 43/3/1 39/3/1 41/3/1
f 43/3/1 41/3/1 42/3/1
f 47/3/1 45/3/1 44/3/1
f 47/2/1 46/2/1 45/2/1
f 48/2/1 46/2/1 47/2/1
f 49/3/1 47/3/1 44/3/1
f 49/3/1 48/3/1 47/3/1
f 50/3/1 48/3/1 49/3/1
f 51/3/1 49/3/1 44/3/1
f 52/2/1 50/2/1 49/2/1
f 52/3/1 49/3/1 51/3/1
f 53/3/1 48/3/1 50/3/1
f 53/2/1 50/2/1 52/2/1
f 54/3/1 48/3/1 53/3/1
f 57/1/1 56/1/1 55/1/1
f 58/1/1 56/1/1 57/1/1
f 62/3/1 60/3/1 59/3/1
f 62/2/1 61/2/1 60/2/1
f 63/2/1 61/2/1 62/2/1
f 64/3/1 62/3/1 59/3/1
f 64/3/1 63/3/1 62/3/1
f 65/3/1 63/3/1 64/3/1
f 66/1/2 67/1/2 68/1/2
f 68/1/2 67/1/2 69/1/2
f 70/3/2 71/3/2 72/3/2
f 72/3/2 71/3/2 73/3/2
f 72/2/2 73/2/2 74/2/2
f 73/3/2 71/3/2 75/3/2
f 74/2/2 73/2/2 75/2/2
f 75/3/2 71/3/2 76/3/2
f 77/3/2 78/3/2 79/3/2
f 79/3/2 78/3/2 80/3/2
f 81/3/2 82/3/2 83/3/2
f 83/3/2 82/3/2 84/3/2
f 83/2/2 84/2/2 85/2/2
f 84/3/2 82/3/2 86/3/2
f 85/2/2 84/2/2 86/2/2
f 85/3/2 86/3/2 87/3/2
f 86/3/2 82/3/2 88/3/2
f 87/3/2 86/3/2 88/3/2
f 89/3/2 90/3/2 93/3/2
f 90/2/2 91/2/2 93/2/2
f 91/3/2 92/3/2 94/3/2
f 93/2/2 91/2/2 94/2/2
f 89/3/2 93/3/2 95/3/2
f 93/3/2 94/3/2 95/3/2
f 94/3/2 92/3/2 96/3/2
f 95/3/2 94/3/2 96/3/2
f 97/3/2 98/3/2 101/3/2
f 99/3/2 100/3/2 101/3/2
f 98/3/2 99/3/2 101/3/2
f 101/3/2 100/3/2 102/3/2
f 101/2/2 102/2/2 103/2/2
f 102/3/2 100/3/2 104/3/2
f 103/2/2 102/2/2 104/2/2
f 103/3/2 104/3/2 105/3/2
f 104/3/2 100/3/2 105/3/2
f 105/3/2 100/3/2 106/3/2
f 103/3/2 105/3/2 107/3/2
f 105/2/2 106/2/2 108/2/2
f 107/3/2 105/3/2 108/3/2
f 106/3/2 100/3/2 109/3/2
f 108/2/2 106/2/2 109/2/2
f 109/3/2 100/3/2 110/3/2
f 111/3/2 112/3/2 114/3/2
f 112/2/2 113/2/2 114/2/2
f 114/2/2 113/2/2 115/2/2
f 111/3/2 114/3/2 116/3/2
f 114/3/2 115/3/2 116/3/2
f 116/3/2 115/3/2 117/3/2
f 111/3/2 116/3/2 118/3/2
f 116/2/2 117/2/2 119/2/2
f 118/3/2 116/3/2 119/3/2
f 117/3/2 115/3/2 120/3/2
f 119/2/2 117/2/2 120/2/2
f 120/3/2 115/3/2 121/3/2
f 125/2/3 123/2/3 122/2/3
f 126/3/3 124/3/3 123/3/3
f 126/2/3 123/2/3 125/2/3
f 127/3/3 124/3/3 126/3/3
f 128/3/3 126/3/3 125/3/3
f 128/2/3 127/2/3 126/2/3
f 129/3/3 124/3/3 127/3/3
f 129/2/3 127/2/3 128/2/3
f 130/3/3 128/3/3 125/3/3
f 130/3/3 129/3/3 128/3/3
f 131/3/3 124/3/3 129/3/3
f 131/3/3 129/3/3 130/3/3
f 134/3/3 133/3/3 132/3/3
f 135/3/3 133/3/3 134/3/3
f 136/3/3 134/3/3 132/3/3
f 136/2/3 135/2/3 134/2/3
f 137/2/3 135/2/3 136/2/3
f 138/3/3 136/3/3 132/3/3
f 138/3/3 137/3/3 136/3/3
f 139/3/3 137/3/3 138/3/3
f 140/3/3 138/3/3 132/3/3
f 140/2/3 139/2/3 138/2/3
f 141/3/3 137/3/3 139/3/3
f 141/2/3 139/2/3 140/2/3
f 142/3/3 140/3/3 132/3/3
f 142/3/3 141/3/3 140/3/3
f 143/3/3 137/3/3 141/3/3
f 143/3/3 141/3/3 142/3/3
f 144/3/3 142/3/3 132/3/3
f 145/2/3 143/2/3 142/2/3
f 145/3/3 142/3/3 144/3/3
f 146/3/3 137/3/3 143/3/3
f 146/2/3 143/2/3 145/2/3
f 147/3/3 137/3/3 146/3/3
f 150/3/3 149/3/3 148/3/3
f 151/3/3 149/3/3 150/3/3
f 152/3/3 149/3/3 151/3/3
f 153/3/3 151/3/3 150/3/3
f 154/2/3 152/2/3 151/2/3
f 154/3/3 151/3/3 153/3/3
f 155/2/3 152/2/3 154/2/3
f 156/3/3 154/3/3 153/3/3
f 156/3/3 155/3/3 154/3/3
f 157/3/3 155/3/3 156/3/3
f 158/2/3 157/2/3 156/2/3
f 159/3/3 155/3/3 157/3/3
f 159/2/3 157/2/3 158/2/3
f 160/3/3 159/3/3 158/3/3
f 161/3/3 155/3/3 159/3/3
f 161/3/3 159/3/3 160/3/3
f 164/3/3 163/3/3 162/3/3
f 165/3/3 163/3/3 164/3/3
f 166/2/3 165/2/3 164/2/3
f 167/3/3 163/3/3 165/3/3
f 167/2/3 165/2/3 166/2/3
f 168/3/3 163/3/3 167/3/3
f 169/3/3 163/3/3 168/3/3
f 170/3/3 167/3/3 166/3/3
f 170/3/3 168/3/3 167/3/3
f 170/2/3 169/2/3 168/2/3
f 171/2/3 169/2/3 170/2/3
f 172/3/3 170/3/3 166/3/3
f 172/3/3 171/3/3 170/3/3
f 173/3/3 171/3/3 172/3/3
f 174/2/3 173/2/3 172/2/3
f 175/2/3 173/2/3 174/2/3
f 176/3/3 172/3/3 166/3/3
f 177/2/3 174/2/3 172/2/3
f 177/3/3 172/3/3 176/3/3
f 178/3/3 175/3/3 174/3/3
f 178/2/3 174/2/3 177/2/3
f 179/3/3 175/3/3 178/3/3
f 182/3/3 181/3/3 180/3/3
f 183/3/3 181/3/3 182/3/3
f 184/3/3 181/3/3 183/3/3
f 185/3/3 181/3/3 184/3/3
f 186/3/3 181/3/3 185/3/3
f 191/3/3 190/3/3 189/3/3
f 192/3/3 190/3/3 191/3/3
f 193/1/3 188/1/3 187/1/3
f 194/1/3 188/1/3 193/1/3
f 195/3/3 191/3/3 189/3/3
f 196/2/3 192/2/3 191/2/3
f 196/3/3 191/3/3 195/3/3
f 197/2/3 192/2/3 196/2/3
f 200/2/4 201/2/4 203/2/4
f 201/3/4 202/3/4 204/3/4
f 203/2/4 201/2/4 204/2/4
f 198/1/4 199/1/4 205/1/4
f 205/1/4 199/1/4 206/1/4
f 203/3/4 204/3/4 207/3/4
f 204/3/4 202/3/4 208/3/4
f 207/3/4 204/3/4 208/3/4
f 209/2/4 210/2/4 212/2/4
f 210/3/4 211/3/4 213/3/4
f 212/2/4 210/2/4 213/2/4
f 212/3/4 213/3/4 214/3/4
f 213/3/4 211/3/4 215/3/4
f 214/3/4 213/3/4 215/3/4
f 216/3/4 217/3/4 218/3/4
f 218/3/4 217/3/4 219/3/4
f 219/3/4 217/3/4 220/3/4
f 218/3/4 219/3/4 221/3/4
f 219/2/4 220/2/4 221/2/4
f 221/2/4 220/2/4 222/2/4
f 218/3/4 221/3/4 223/3/4
f 221/3/4 222/3/4 223/3/4
f 223/3/4 222/3/4 224/3/4
f 225/3/4 226/3/4 227/3/4
f 227/3/4 226/3/4 228/3/4
f 228/3/4 226/3/4 229/3/4
f 227/3/4 228/3/4 230/3/4
f 228/2/4 229/2/4 231/2/4
f 230/3/4 228/3/4 231/3/4
f 231/2/4 229/2/4 232/2/4
f 230/3/4 231/3/4 233/3/4
f 231/3/4 232/3/4 233/3/4
f 233/3/4 232/3/4 234/3/4
f 234/3/4 232/3/4 235/3/4
f 234/2/4 235/2/4 236/2/4
f 235/3/4 232/3/4 237/3/4
f 236/2/4 235/2/4 237/2/4
f 236/3/4 237/3/4 238/3/4
f 237/3/4 232/3/4 239/3/4
f 238/3/4 237/3/4 239/3/4
f 240/3/4 241/3/4 242/3/4
f 242/3/4 241/3/4 243/3/4
f 240/3/4 242/3/4 244/3/4
f 242/2/4 243/2/4 244/2/4
f 244/2/4 243/2/4 245/2/4
f 244/3/4 245/3/4 246/3/4
f 246/3/4 245/3/4 247/3/4
f 244/3/4 246/3/4 248/3/4
f 246/2/4 247/2/4 248/2/4
f 248/2/4 247/2/4 249/2/4
f 240/3/4 244/3/4 250/3/4
f 244/3/4 248/3/4 250/3/4
f 248/3/4 249/3/4 250/3/4
f 250/3/4 249/3/4 251/3/4
f 251/3/4 249/3/4 252/3/4
f 252/3/4 249/3/4 253/3/4
f 250/2/4 251/2/4 254/2/4
f 251/3/4 252/3/4 255/3/4
f 254/2/4 251/2/4 255/2/4
f 252/2/4 253/2/4 256/2/4
f 255/3/4 252/3/4 256/3/4
f 256/2/4 253/2/4 257/2/4
f 254/3/4 255/3/4 258/3/4
f 255/3/4 256/3/4 258/3/4
f 256/3/4 257/3/4 258/3/4
f 258/3/4 257/3/4 259/3/4
f 260/3/4 261/3/4 263/3/4
f 261/2/4 262/2/4 263/2/4
f 263/2/4 262/2/4 264/2/4
f 260/3/4 263/3/4 265/3/4
f 263/3/4 264/3/4 265/3/4
f 265/3/4 264/3/4 266/3/4
f 260/3/4 265/3/4 267/3/4
f 265/2/4 266/2/4 267/2/4
f 266/3/4 264/3/4 268/3/4
f 267/2/4 266/2/4 268/2/4
f 260/3/4 267/3/4 269/3/4
f 267/3/4 268/3/4 269/3/4
f 269/3/4 268/3/4 270/3/4
f 269/2/4 270/2/4 271/2/4
f 270/3/4 268/3/4 272/3/4
f 271/2/4 270/2/4 272/2/4
f 268/3/4 264/3/4 273/3/4
f 272/3/4 268/3/4 273/3/4
f 276/1/5 275/1/5 274/1/5
f 277/1/5 275/1/5 276/1/5
f 281/2/5 279/2/5 278/2/5
f 282/3/5 280/3/5 279/3/5
f 282/2/5 279/2/5 281/2/5
f 283/3/5 282/3/5 281/3/5
f 284/3/5 282/3/5 283/3/5
f 285/3/5 283/3/5 281/3/5
f 286/2/5 284/2/5 283/2/5
f 286/3/5 283/3/5 285/3/5
f 287/3/5 282/3/5 284/3/5
f 287/2/5 284/2/5 286/2/5
f 288/3/5 280/3/5 282/3/5
f 288/3/5 282/3/5 287/3/5
f 289/2/5 287/2/5 286/2/5
f 289/2/5 286/2/5 285/2/5
f 289/2/5 288/2/5 287/2/5
f 290/2/5 288/2/5 289/2/5
f 291/2/5 289/2/5 285/2/5
f 292/2/5 288/2/5 290/2/5
f 293/2/5 291/2/5 285/2/5
f 293/2/5 292/2/5 291/2/5
f 294/2/5 292/2/5 293/2/5
f 295/2/5 288/2/5 292/2/5
f 295/2/5 292/2/5 294/2/5
f 296/3/5 280/3/5 288/3/5
f 296/2/5 288/2/5 295/2/5
f 297/2/5 295/2/5 294/2/5
f 297/3/5 294/3/5 293/3/5
f 298/3/5 296/3/5 295/3/5
f 298/2/5 295/2/5 297/2/5
f 299/3/5 280/3/5 296/3/5
f 299/3/5 296/3/5 298/3/5
f 299/3/5 298/3/5 297/3/5
f 300/3/5 280/3/5 299/3/5
f 301/3/5 297/3/5 293/3/5
f 301/3/5 299/3/5 297/3/5
f 302/2/5 300/2/5 299/2/5
f 302/3/5 299/3/5 301/3/5
f 303/2/5 300/2/5 302/2/5
f 304/3/6 305/3/6 306/3/6
f 306/3/6 305/3/6 307/3/6
f 304/3/6 306/3/6 308/3/6
f 307/3/6 305/3/6 309/3/6
f 309/3/6 305/3/6 310/3/6
f 304/3/6 308/3/6 311/3/6
f 304/3/6 311/3/6 312/3/6
f 312/3/6 311/3/6 313/3/6
f 309/2/6 310/2/6 314/2/6
f 314/2/6 310/2/6 315/2/6
f 312/2/6 313/2/6 316/2/6
f 314/3/6 315/3/6 319/3/6
f 312/2/6 316/2/6 320/2/6
f 317/3/6 318/3/6 321/3/6
f 320/2/6 316/2/6 321/2/6
f 318/3/6 319/3/6 321/3/6
f 316/3/6 317/3/6 321/3/6
f 319/3/6 315/3/6 322/3/6
f 321/3/6 319/3/6 322/3/6
f 323/3/6 324/3/6 327/3/6
f 324/2/6 325/2/6 328/2/6
f 327/3/6 324/3/6 328/3/6
f 325/3/6 326/3/6 329/3/6
f 328/2/6 325/2/6 329/2/6
f 329/3/6 326/3/6 330/3/6
f 330/3/6 326/3/6 331/3/6
f 331/3/6 326/3/6 332/3/6
f 332/3/6 326/3/6 333/3/6
f 333/3/6 326/3/6 334/3/6
f 323/3/6 327/3/6 335/3/6
f 333/2/6 334/2/6 336/2/6
f 336/2/6 334/2/6 337/2/6
f 323/3/6 335/3/6 338/3/6
f 323/3/6 338/3/6 339/3/6
f 336/3/6 337/3/6 345/3/6
f 323/3/6 339/3/6 346/3/6
f 339/2/6 340/2/6 347/2/6
f 346/3/6 339/3/6 347/3/6
f 340/3/6 341/3/6 348/3/6
f 347/2/6 340/2/6 348/2/6
f 341/2/6 342/2/6 349/2/6
f 348/3/6 341/3/6 349/3/6
f 342/3/6 343/3/6 350/3/6
f 349/2/6 342/2/6 350/2/6
f 343/2/6 344/2/6 351/2/6
f 350/3/6 343/3/6 351/3/6
f 344/3/6 345/3/6 352/3/6
f 351/2/6 344/2/6 352/2/6
f 345/3/6 337/3/6 353/3/6
f 352/3/6 345/3/6 353/3/6
f 354/3/6 355/3/6 358/3/6
f 355/2/6 356/2/6 359/2/6
f 358/3/6 355/3/6 359/3/6
f 356/3/6 357/3/6 360/3/6
f 359/2/6 356/2/6 360/2/6
f 360/3/6 357/3/6 361/3/6
f 354/3/6 358/3/6 362/3/6
f 362/3/6 358/3/6 363/3/6
f 362/2/6 363/2/6 364/2/6
f 364/2/6 363/2/6 365/2/6
f 364/3/6 365/3/6 366/3/6
f 361/3/6 357/3/6 368/3/6
f 364/3/6 366/3/6 369/3/6
f 366/2/6 367/2/6 370/2/6
f 369/3/6 366/3/6 370/3/6
f 367/3/6 368/3/6 371/3/6
f 370/2/6 367/2/6 371/2/6
f 368/3/6 357/3/6 372/3/6
f 371/3/6 368/3/6 372/3/6
f 373/3/6 374/3/6 379/3/6
f 374/2/6 375/2/6 380/2/6
f 379/3/6 374/3/6 380/3/6
f 375/3/6 376/3/6 381/3/6
f 380/2/6 375/2/6 381/2/6
f 376/2/6 377/2/6 382/2/6
f 381/3/6 376/3/6 382/3/6
f 377/3/6 378/3/6 383/3/6
f 382/2/6 377/2/6 383/2/6
f 373/3/6 379/3/6 384/3/6
f 373/3/6 384/3/6 385/3/6
f 383/3/6 378/3/6 387/3/6
f 373/3/6 385/3/6 388/3/6
f 385/2/6 386/2/6 389/2/6
f 388/3/6 385/3/6 389/3/6
f 386/3/6 387/3/6 390/3/6
f 389/2/6 386/2/6 390/2/6
f 387/3/6 378/3/6 391/3/6
f 390/3/6 387/3/6 391/3/6
f 392/3/6 393/3/6 394/3/6
f 394/3/6 393/3/6 395/3/6
f 392/3/6 394/3/6 396/3/6
f 396/3/6 394/3/6 397/3/6
f 396/2/6 397/2/6 398/2/6
f 398/2/6 397/2/6 399/2/6
f 395/3/6 393/3/6 401/3/6
f 399/3/6 400/3/6 402/3/6
f 400/3/6 401/3/6 402/3/6
f 398/3/6 399/3/6 402/3/6
f 401/3/6 393/3/6 403/3/6
f 402/3/6 401/3/6 403/3/6
f 404/3/6 405/3/6 407/3/6
f 405/2/6 406/2/6 407/2/6
f 407/2/6 406/2/6 408/2/6
f 404/3/6 407/3/6 409/3/6
f 407/3/6 408/3/6 409/3/6
f 409/3/6 408/3/6 410/3/6
