# MagicaVoxel @ Ephtracy

# group
g Spruce_diff

# material
mtllib Spruce_diff.mtl
usemtl palette

# normals
vn -1 0 0
vn 1 0 0
vn 0 0 1
vn 0 0 -1
vn 0 -1 0
vn 0 1 0

# texcoords
vt 0.373047 0.5
vt 0.537109 0.5
vt 0.818359 0.5
vt 0.908203 0.5

# verts
v -5.5 14 5
v -5.5 14 1
v -5.5 14 -2
v -5.5 14 -6
v -5.5 15 1
v -5.5 15 -2
v -5.5 16 -5
v -5.5 16 -6
v -5.5 17 5
v -5.5 17 -5
v -5.5 17 -6
v -4.5 18 4
v -4.5 18 1
v -4.5 18 -0
v -4.5 18 -4
v -4.5 18 -5
v -4.5 19 1
v -4.5 19 -0
v -4.5 19 -4
v -4.5 19 -5
v -4.5 20 4
v -4.5 20 -5
v -3.5 17 3
v -3.5 17 2
v -3.5 17 -1
v -3.5 17 -4
v -3.5 18 3
v -3.5 18 2
v -3.5 18 1
v -3.5 18 -0
v -3.5 18 -1
v -3.5 18 -4
v -3.5 21 3
v -3.5 21 1
v -3.5 21 -0
v -3.5 21 -4
v -3.5 22 1
v -3.5 22 -0
v -3.5 22 -3
v -3.5 22 -4
v -3.5 23 3
v -3.5 23 -3
v -3.5 23 -4
v -2.5 20 2
v -2.5 20 -3
v -2.5 21 2
v -2.5 21 1
v -2.5 21 -0
v -2.5 21 -3
v -2.5 24 2
v -2.5 24 -0
v -2.5 24 -1
v -2.5 24 -3
v -2.5 25 -0
v -2.5 25 -1
v -2.5 26 2
v -2.5 26 -3
v -2.5 27 2
v -2.5 27 -3
v -2.5 28 2
v -2.5 28 -3
v -1.5 0 1
v -1.5 0 -2
v -1.5 14 1
v -1.5 14 -2
v -1.5 23 1
v -1.5 23 -2
v -1.5 24 1
v -1.5 24 -0
v -1.5 24 -1
v -1.5 24 -2
v -1.5 26 1
v -1.5 26 -2
v -1.5 27 1
v -1.5 27 -2
v -1.5 28 1
v -1.5 28 -0
v -1.5 28 -2
v -1.5 30 1
v -1.5 30 -0
v -1.5 30 -2
v 1.5 0 1
v 1.5 0 -2
v 1.5 14 1
v 1.5 14 -2
v 1.5 23 1
v 1.5 23 -2
v 1.5 24 1
v 1.5 24 -2
v 1.5 26 1
v 1.5 26 -2
v 1.5 27 1
v 1.5 27 -2
v 1.5 28 1
v 1.5 28 -2
v 1.5 29 1
v 1.5 29 -0
v 1.5 30 1
v 1.5 30 -0
v 1.5 30 -2
v 2.5 20 2
v 2.5 20 -3
v 2.5 21 2
v 2.5 21 -3
v 2.5 24 2
v 2.5 24 -3
v 2.5 26 2
v 2.5 26 -3
v 2.5 27 2
v 2.5 27 -3
v 2.5 28 2
v 2.5 28 -3
v 3.5 17 3
v 3.5 17 -4
v 3.5 18 3
v 3.5 18 -4
v 3.5 21 3
v 3.5 21 -4
v 3.5 23 3
v 3.5 23 -4
v 4.5 18 4
v 4.5 18 -5
v 4.5 19 1
v 4.5 19 -0
v 4.5 20 4
v 4.5 20 1
v 4.5 20 -0
v 4.5 20 -5
v 5.5 14 5
v 5.5 14 -0
v 5.5 14 -1
v 5.5 14 -6
v 5.5 15 -0
v 5.5 15 -1
v 5.5 15 -3
v 5.5 15 -4
v 5.5 16 -3
v 5.5 16 -4
v 5.5 17 5
v 5.5 17 -6
v -5.5 14 5
v -5.5 17 5
v -4.5 16 5
v -4.5 17 5
v -3.5 14 5
v -3.5 15 5
v -3.5 16 5
v -3.5 17 5
v -1.5 14 5
v -1.5 15 5
v 2.5 14 5
v 2.5 15 5
v 3.5 14 5
v 3.5 15 5
v 5.5 14 5
v 5.5 17 5
v -4.5 18 4
v -4.5 20 4
v -0.5 18 4
v -0.5 19 4
v 0.5 18 4
v 0.5 19 4
v 4.5 18 4
v 4.5 20 4
v -3.5 17 3
v -3.5 18 3
v -3.5 21 3
v -3.5 23 3
v -0.5 18 3
v 0.5 18 3
v 0.5 22 3
v 0.5 23 3
v 2.5 22 3
v 2.5 23 3
v 3.5 17 3
v 3.5 18 3
v 3.5 21 3
v 3.5 23 3
v -2.5 20 2
v -2.5 21 2
v -2.5 24 2
v -2.5 26 2
v -2.5 27 2
v -2.5 28 2
v -1.5 20 2
v -1.5 27 2
v -1.5 28 2
v 1.5 27 2
v 1.5 28 2
v 2.5 20 2
v 2.5 21 2
v 2.5 24 2
v 2.5 26 2
v 2.5 27 2
v 2.5 28 2
v -1.5 0 1
v -1.5 14 1
v -1.5 23 1
v -1.5 24 1
v -1.5 26 1
v -1.5 27 1
v -1.5 28 1
v -1.5 30 1
v -0.5 28 1
v -0.5 30 1
v 0.5 29 1
v 0.5 30 1
v 1.5 0 1
v 1.5 14 1
v 1.5 23 1
v 1.5 24 1
v 1.5 26 1
v 1.5 27 1
v 1.5 28 1
v 1.5 29 1
v 1.5 30 1
v -1.5 0 -2
v -1.5 14 -2
v -1.5 23 -2
v -1.5 24 -2
v -1.5 26 -2
v -1.5 27 -2
v -1.5 28 -2
v -1.5 30 -2
v 1.5 0 -2
v 1.5 14 -2
v 1.5 23 -2
v 1.5 24 -2
v 1.5 26 -2
v 1.5 27 -2
v 1.5 28 -2
v 1.5 30 -2
v -2.5 20 -3
v -2.5 21 -3
v -2.5 24 -3
v -2.5 26 -3
v -2.5 27 -3
v -2.5 28 -3
v 2.5 20 -3
v 2.5 21 -3
v 2.5 24 -3
v 2.5 26 -3
v 2.5 27 -3
v 2.5 28 -3
v -3.5 17 -4
v -3.5 18 -4
v -3.5 21 -4
v -3.5 22 -4
v -3.5 23 -4
v -2.5 18 -4
v 0.5 22 -4
v 0.5 23 -4
v 2.5 18 -4
v 3.5 17 -4
v 3.5 18 -4
v 3.5 21 -4
v 3.5 23 -4
v -4.5 18 -5
v -4.5 19 -5
v -4.5 20 -5
v -2.5 18 -5
v -2.5 19 -5
v 2.5 18 -5
v 2.5 19 -5
v 3.5 18 -5
v 3.5 19 -5
v 4.5 18 -5
v 4.5 20 -5
v -5.5 14 -6
v -5.5 16 -6
v -5.5 17 -6
v -4.5 16 -6
v -4.5 17 -6
v -1.5 14 -6
v -1.5 15 -6
v -0.5 14 -6
v -0.5 15 -6
v 1.5 15 -6
v 1.5 16 -6
v 2.5 15 -6
v 2.5 16 -6
v 5.5 14 -6
v 5.5 17 -6
v -1.5 0 1
v 1.5 0 1
v -0.5 0 -0
v 0.5 0 -0
v -0.5 0 -1
v 0.5 0 -1
v -1.5 0 -2
v 1.5 0 -2
v -5.5 14 5
v -3.5 14 5
v -1.5 14 5
v 2.5 14 5
v 3.5 14 5
v 5.5 14 5
v -3.5 14 4
v -1.5 14 4
v 2.5 14 4
v 3.5 14 4
v -2.5 14 2
v 3.5 14 2
v -5.5 14 1
v -4.5 14 1
v -1.5 14 1
v 1.5 14 1
v 4.5 14 -0
v 5.5 14 -0
v 4.5 14 -1
v 5.5 14 -1
v -5.5 14 -2
v -4.5 14 -2
v -1.5 14 -2
v 1.5 14 -2
v -2.5 14 -3
v 3.5 14 -3
v -1.5 14 -5
v -0.5 14 -5
v -5.5 14 -6
v -1.5 14 -6
v -0.5 14 -6
v 5.5 14 -6
v -4.5 18 4
v -0.5 18 4
v 0.5 18 4
v 4.5 18 4
v -3.5 18 3
v -0.5 18 3
v 0.5 18 3
v 3.5 18 3
v -3.5 18 2
v -4.5 18 1
v -3.5 18 1
v -4.5 18 -0
v -3.5 18 -0
v -3.5 18 -1
v -4.5 18 -4
v -3.5 18 -4
v -2.5 18 -4
v 2.5 18 -4
v 3.5 18 -4
v -4.5 18 -5
v -2.5 18 -5
v 2.5 18 -5
v 3.5 18 -5
v 4.5 18 -5
v -3.5 21 3
v 3.5 21 3
v -2.5 21 2
v 2.5 21 2
v -3.5 21 1
v -2.5 21 1
v -3.5 21 -0
v -2.5 21 -0
v -2.5 21 -3
v 2.5 21 -3
v -3.5 21 -4
v 3.5 21 -4
v -2.5 24 2
v 2.5 24 2
v -1.5 24 1
v 1.5 24 1
v -2.5 24 -0
v -1.5 24 -0
v -2.5 24 -1
v -1.5 24 -1
v -1.5 24 -2
v 1.5 24 -2
v -2.5 24 -3
v 2.5 24 -3
v -2.5 27 2
v -1.5 27 2
v 1.5 27 2
v 2.5 27 2
v -1.5 27 1
v 1.5 27 1
v -1.5 27 -2
v 1.5 27 -2
v -2.5 27 -3
v 2.5 27 -3
v -5.5 17 5
v -4.5 17 5
v -3.5 17 5
v 5.5 17 5
v -4.5 17 4
v -3.5 17 4
v -3.5 17 3
v 3.5 17 3
v -3.5 17 2
v -3.5 17 -1
v -3.5 17 -4
v 3.5 17 -4
v -5.5 17 -5
v -4.5 17 -5
v -5.5 17 -6
v -4.5 17 -6
v 5.5 17 -6
v -4.5 20 4
v 4.5 20 4
v -2.5 20 3
v -1.5 20 3
v -2.5 20 2
v -1.5 20 2
v 2.5 20 2
v 3.5 20 1
v 4.5 20 1
v 3.5 20 -0
v 4.5 20 -0
v -2.5 20 -3
v 2.5 20 -3
v -4.5 20 -5
v 4.5 20 -5
v -3.5 23 3
v 0.5 23 3
v 2.5 23 3
v 3.5 23 3
v 0.5 23 2
v 2.5 23 2
v -1.5 23 1
v 1.5 23 1
v -1.5 23 -2
v 1.5 23 -2
v -3.5 23 -3
v 0.5 23 -3
v -3.5 23 -4
v 0.5 23 -4
v 3.5 23 -4
v -2.5 26 2
v 2.5 26 2
v -1.5 26 1
v 1.5 26 1
v -1.5 26 -2
v 1.5 26 -2
v -2.5 26 -3
v 2.5 26 -3
v -2.5 28 2
v -1.5 28 2
v 1.5 28 2
v 2.5 28 2
v -1.5 28 1
v -0.5 28 1
v 1.5 28 1
v -1.5 28 -0
v -1.5 28 -2
v 1.5 28 -2
v -2.5 28 -3
v 2.5 28 -3
v -1.5 30 1
v -0.5 30 1
v 0.5 30 1
v 1.5 30 1
v -1.5 30 -0
v -0.5 30 -0
v 0.5 30 -0
v 1.5 30 -0
v -1.5 30 -2
v 1.5 30 -2

# faces
f 5/4/1 2/4/1 1/4/1
f 5/3/1 3/3/1 2/3/1
f 6/4/1 4/4/1 3/4/1
f 6/3/1 3/3/1 5/3/1
f 7/4/1 6/4/1 5/4/1
f 7/4/1 4/4/1 6/4/1
f 8/4/1 4/4/1 7/4/1
f 9/4/1 5/4/1 1/4/1
f 9/4/1 7/4/1 5/4/1
f 10/3/1 8/3/1 7/3/1
f 10/4/1 7/4/1 9/4/1
f 11/3/1 8/3/1 10/3/1
f 17/4/1 13/4/1 12/4/1
f 17/3/1 14/3/1 13/3/1
f 18/4/1 15/4/1 14/4/1
f 18/3/1 14/3/1 17/3/1
f 19/3/1 16/3/1 15/3/1
f 19/4/1 15/4/1 18/4/1
f 20/3/1 16/3/1 19/3/1
f 21/4/1 18/4/1 17/4/1
f 21/4/1 17/4/1 12/4/1
f 21/4/1 20/4/1 19/4/1
f 21/4/1 19/4/1 18/4/1
f 22/4/1 20/4/1 21/4/1
f 27/4/1 24/4/1 23/4/1
f 28/3/1 25/3/1 24/3/1
f 28/4/1 24/4/1 27/4/1
f 29/3/1 25/3/1 28/3/1
f 30/3/1 25/3/1 29/3/1
f 31/4/1 26/4/1 25/4/1
f 31/3/1 25/3/1 30/3/1
f 32/4/1 26/4/1 31/4/1
f 37/4/1 34/4/1 33/4/1
f 37/3/1 35/3/1 34/3/1
f 38/4/1 36/4/1 35/4/1
f 38/3/1 35/3/1 37/3/1
f 39/4/1 36/4/1 38/4/1
f 40/4/1 36/4/1 39/4/1
f 41/4/1 37/4/1 33/4/1
f 41/4/1 38/4/1 37/4/1
f 41/4/1 39/4/1 38/4/1
f 42/3/1 40/3/1 39/3/1
f 42/4/1 39/4/1 41/4/1
f 43/3/1 40/3/1 42/3/1
f 46/4/1 45/4/1 44/4/1
f 47/4/1 45/4/1 46/4/1
f 48/4/1 45/4/1 47/4/1
f 49/4/1 45/4/1 48/4/1
f 54/4/1 51/4/1 50/4/1
f 54/3/1 52/3/1 51/3/1
f 55/4/1 53/4/1 52/4/1
f 55/3/1 52/3/1 54/3/1
f 56/4/1 54/4/1 50/4/1
f 56/4/1 55/4/1 54/4/1
f 57/4/1 53/4/1 55/4/1
f 57/4/1 55/4/1 56/4/1
f 60/4/1 59/4/1 58/4/1
f 61/4/1 59/4/1 60/4/1
f 64/2/1 63/2/1 62/2/1
f 65/2/1 63/2/1 64/2/1
f 68/4/1 67/4/1 66/4/1
f 69/4/1 67/4/1 68/4/1
f 70/4/1 67/4/1 69/4/1
f 71/4/1 67/4/1 70/4/1
f 74/4/1 73/4/1 72/4/1
f 75/4/1 73/4/1 74/4/1
f 79/3/1 77/3/1 76/3/1
f 80/4/1 78/4/1 77/4/1
f 80/3/1 77/3/1 79/3/1
f 81/4/1 78/4/1 80/4/1
f 82/2/2 83/2/2 84/2/2
f 84/2/2 83/2/2 85/2/2
f 86/4/2 87/4/2 88/4/2
f 88/4/2 87/4/2 89/4/2
f 90/4/2 91/4/2 92/4/2
f 92/4/2 91/4/2 93/4/2
f 94/4/2 95/4/2 96/4/2
f 96/4/2 95/4/2 97/4/2
f 96/3/2 97/3/2 98/3/2
f 97/4/2 95/4/2 99/4/2
f 98/3/2 97/3/2 99/3/2
f 99/4/2 95/4/2 100/4/2
f 101/4/2 102/4/2 103/4/2
f 103/4/2 102/4/2 104/4/2
f 105/4/2 106/4/2 107/4/2
f 107/4/2 106/4/2 108/4/2
f 109/4/2 110/4/2 111/4/2
f 111/4/2 110/4/2 112/4/2
f 113/4/2 114/4/2 115/4/2
f 115/4/2 114/4/2 116/4/2
f 117/4/2 118/4/2 119/4/2
f 119/4/2 118/4/2 120/4/2
f 121/4/2 122/4/2 123/4/2
f 123/4/2 122/4/2 124/4/2
f 121/4/2 123/4/2 125/4/2
f 123/3/2 124/3/2 126/3/2
f 125/4/2 123/4/2 126/4/2
f 124/4/2 122/4/2 127/4/2
f 126/3/2 124/3/2 127/3/2
f 127/4/2 122/4/2 128/4/2
f 129/4/2 130/4/2 133/4/2
f 130/3/2 131/3/2 133/3/2
f 131/4/2 132/4/2 134/4/2
f 133/3/2 131/3/2 134/3/2
f 134/4/2 132/4/2 135/4/2
f 135/4/2 132/4/2 136/4/2
f 133/4/2 134/4/2 137/4/2
f 134/4/2 135/4/2 137/4/2
f 135/3/2 136/3/2 137/3/2
f 136/4/2 132/4/2 138/4/2
f 137/3/2 136/3/2 138/3/2
f 129/4/2 133/4/2 139/4/2
f 133/4/2 137/4/2 139/4/2
f 137/4/2 138/4/2 139/4/2
f 138/4/2 132/4/2 140/4/2
f 139/4/2 138/4/2 140/4/2
f 143/4/3 142/4/3 141/4/3
f 144/4/3 142/4/3 143/4/3
f 145/4/3 143/4/3 141/4/3
f 146/4/3 143/4/3 145/4/3
f 147/3/3 144/3/3 143/3/3
f 147/4/3 143/4/3 146/4/3
f 148/3/3 144/3/3 147/3/3
f 149/3/3 146/3/3 145/3/3
f 150/4/3 147/4/3 146/4/3
f 150/3/3 146/3/3 149/3/3
f 150/4/3 148/4/3 147/4/3
f 151/4/3 150/4/3 149/4/3
f 152/4/3 148/4/3 150/4/3
f 152/4/3 150/4/3 151/4/3
f 153/3/3 152/3/3 151/3/3
f 154/4/3 148/4/3 152/4/3
f 154/3/3 152/3/3 153/3/3
f 155/4/3 154/4/3 153/4/3
f 156/4/3 148/4/3 154/4/3
f 156/4/3 154/4/3 155/4/3
f 159/4/3 158/4/3 157/4/3
f 160/4/3 158/4/3 159/4/3
f 161/3/3 160/3/3 159/3/3
f 162/4/3 158/4/3 160/4/3
f 162/3/3 160/3/3 161/3/3
f 163/4/3 162/4/3 161/4/3
f 164/4/3 158/4/3 162/4/3
f 164/4/3 162/4/3 163/4/3
f 169/4/3 166/4/3 165/4/3
f 170/4/3 169/4/3 165/4/3
f 171/4/3 168/4/3 167/4/3
f 172/4/3 168/4/3 171/4/3
f 173/4/3 171/4/3 167/4/3
f 173/3/3 172/3/3 171/3/3
f 174/3/3 172/3/3 173/3/3
f 175/4/3 170/4/3 165/4/3
f 176/4/3 170/4/3 175/4/3
f 177/4/3 173/4/3 167/4/3
f 177/4/3 174/4/3 173/4/3
f 178/4/3 174/4/3 177/4/3
f 185/4/3 180/4/3 179/4/3
f 186/4/3 184/4/3 183/4/3
f 187/4/3 184/4/3 186/4/3
f 188/3/3 187/3/3 186/3/3
f 189/3/3 187/3/3 188/3/3
f 190/4/3 180/4/3 185/4/3
f 191/4/3 180/4/3 190/4/3
f 192/4/3 182/4/3 181/4/3
f 193/4/3 182/4/3 192/4/3
f 194/4/3 189/4/3 188/4/3
f 195/4/3 189/4/3 194/4/3
f 204/3/3 203/3/3 202/3/3
f 205/3/3 203/3/3 204/3/3
f 206/4/3 205/4/3 204/4/3
f 207/4/3 205/4/3 206/4/3
f 208/2/3 197/2/3 196/2/3
f 209/2/3 197/2/3 208/2/3
f 210/4/3 199/4/3 198/4/3
f 211/4/3 199/4/3 210/4/3
f 212/4/3 201/4/3 200/4/3
f 213/4/3 201/4/3 212/4/3
f 214/4/3 206/4/3 204/4/3
f 215/3/3 207/3/3 206/3/3
f 215/4/3 206/4/3 214/4/3
f 216/3/3 207/3/3 215/3/3
f 217/2/4 218/2/4 225/2/4
f 225/2/4 218/2/4 226/2/4
f 219/4/4 220/4/4 227/4/4
f 227/4/4 220/4/4 228/4/4
f 221/4/4 222/4/4 229/4/4
f 229/4/4 222/4/4 230/4/4
f 223/4/4 224/4/4 231/4/4
f 231/4/4 224/4/4 232/4/4
f 233/4/4 234/4/4 239/4/4
f 239/4/4 234/4/4 240/4/4
f 235/4/4 236/4/4 241/4/4
f 241/4/4 236/4/4 242/4/4
f 237/4/4 238/4/4 243/4/4
f 243/4/4 238/4/4 244/4/4
f 245/4/4 246/4/4 250/4/4
f 248/3/4 249/3/4 251/3/4
f 247/4/4 248/4/4 251/4/4
f 251/3/4 249/3/4 252/3/4
f 245/4/4 250/4/4 253/4/4
f 245/4/4 253/4/4 254/4/4
f 254/4/4 253/4/4 255/4/4
f 247/4/4 251/4/4 256/4/4
f 251/4/4 252/4/4 256/4/4
f 256/4/4 252/4/4 257/4/4
f 258/3/4 259/3/4 261/3/4
f 259/4/4 260/4/4 262/4/4
f 261/3/4 259/3/4 262/3/4
f 261/4/4 262/4/4 263/4/4
f 262/4/4 260/4/4 264/4/4
f 263/4/4 262/4/4 264/4/4
f 263/3/4 264/3/4 265/3/4
f 264/4/4 260/4/4 266/4/4
f 265/3/4 264/3/4 266/3/4
f 265/4/4 266/4/4 267/4/4
f 266/4/4 260/4/4 268/4/4
f 267/4/4 266/4/4 268/4/4
f 269/4/4 270/4/4 272/4/4
f 270/3/4 271/3/4 272/3/4
f 272/3/4 271/3/4 273/3/4
f 269/4/4 272/4/4 274/4/4
f 272/4/4 273/4/4 274/4/4
f 274/4/4 273/4/4 275/4/4
f 274/3/4 275/3/4 276/3/4
f 275/4/4 273/4/4 277/4/4
f 276/3/4 275/3/4 277/3/4
f 276/4/4 277/4/4 278/4/4
f 277/4/4 273/4/4 278/4/4
f 278/4/4 273/4/4 279/4/4
f 276/4/4 278/4/4 280/4/4
f 278/3/4 279/3/4 280/3/4
f 279/4/4 273/4/4 281/4/4
f 280/3/4 279/3/4 281/3/4
f 276/4/4 280/4/4 282/4/4
f 280/4/4 281/4/4 282/4/4
f 281/4/4 273/4/4 283/4/4
f 282/4/4 281/4/4 283/4/4
f 286/2/5 285/2/5 284/2/5
f 287/2/5 285/2/5 286/2/5
f 288/2/5 286/2/5 284/2/5
f 288/1/5 287/1/5 286/1/5
f 289/2/5 285/2/5 287/2/5
f 289/1/5 287/1/5 288/1/5
f 290/2/5 288/2/5 284/2/5
f 290/2/5 289/2/5 288/2/5
f 291/2/5 285/2/5 289/2/5
f 291/2/5 289/2/5 290/2/5
f 298/4/5 293/4/5 292/4/5
f 298/3/5 294/3/5 293/3/5
f 299/4/5 295/4/5 294/4/5
f 299/3/5 294/3/5 298/3/5
f 300/3/5 296/3/5 295/3/5
f 300/4/5 295/4/5 299/4/5
f 301/4/5 297/4/5 296/4/5
f 301/3/5 296/3/5 300/3/5
f 302/4/5 300/4/5 299/4/5
f 302/4/5 299/4/5 298/4/5
f 302/4/5 301/4/5 300/4/5
f 303/4/5 297/4/5 301/4/5
f 303/4/5 301/4/5 302/4/5
f 304/4/5 302/4/5 298/4/5
f 304/4/5 298/4/5 292/4/5
f 305/4/5 302/4/5 304/4/5
f 306/3/5 303/3/5 302/3/5
f 307/3/5 303/3/5 306/3/5
f 308/4/5 297/4/5 303/4/5
f 309/4/5 297/4/5 308/4/5
f 310/4/5 308/4/5 303/4/5
f 310/3/5 309/3/5 308/3/5
f 311/3/5 309/3/5 310/3/5
f 312/3/5 305/3/5 304/3/5
f 313/4/5 302/4/5 305/4/5
f 313/3/5 305/3/5 312/3/5
f 314/3/5 306/3/5 302/3/5
f 315/3/5 303/3/5 307/3/5
f 316/3/5 314/3/5 302/3/5
f 316/3/5 315/3/5 314/3/5
f 316/4/5 302/4/5 313/4/5
f 316/4/5 313/4/5 312/4/5
f 317/3/5 303/3/5 315/3/5
f 317/3/5 315/3/5 316/3/5
f 317/4/5 310/4/5 303/4/5
f 317/4/5 311/4/5 310/4/5
f 318/4/5 317/4/5 316/4/5
f 319/4/5 317/4/5 318/4/5
f 320/4/5 316/4/5 312/4/5
f 320/4/5 318/4/5 316/4/5
f 321/3/5 319/3/5 318/3/5
f 321/4/5 318/4/5 320/4/5
f 322/4/5 317/4/5 319/4/5
f 322/3/5 319/3/5 321/3/5
f 323/4/5 311/4/5 317/4/5
f 323/4/5 317/4/5 322/4/5
f 328/4/5 325/4/5 324/4/5
f 329/3/5 326/3/5 325/3/5
f 329/4/5 325/4/5 328/4/5
f 330/4/5 327/4/5 326/4/5
f 330/3/5 326/3/5 329/3/5
f 331/4/5 327/4/5 330/4/5
f 332/4/5 328/4/5 324/4/5
f 333/4/5 332/4/5 324/4/5
f 334/4/5 332/4/5 333/4/5
f 335/3/5 334/3/5 333/3/5
f 336/3/5 334/3/5 335/3/5
f 337/4/5 336/4/5 335/4/5
f 338/4/5 337/4/5 335/4/5
f 339/4/5 337/4/5 338/4/5
f 342/4/5 327/4/5 331/4/5
f 343/3/5 339/3/5 338/3/5
f 343/3/5 340/3/5 339/3/5
f 344/4/5 341/4/5 340/4/5
f 344/3/5 340/3/5 343/3/5
f 345/3/5 342/3/5 341/3/5
f 345/4/5 341/4/5 344/4/5
f 346/4/5 327/4/5 342/4/5
f 346/3/5 342/3/5 345/3/5
f 347/4/5 327/4/5 346/4/5
f 350/4/5 349/4/5 348/4/5
f 351/4/5 349/4/5 350/4/5
f 352/4/5 350/4/5 348/4/5
f 353/4/5 350/4/5 352/4/5
f 354/3/5 353/3/5 352/3/5
f 355/3/5 353/3/5 354/3/5
f 356/4/5 355/4/5 354/4/5
f 357/4/5 349/4/5 351/4/5
f 358/4/5 356/4/5 354/4/5
f 358/4/5 357/4/5 356/4/5
f 359/4/5 349/4/5 357/4/5
f 359/4/5 357/4/5 358/4/5
f 362/4/5 361/4/5 360/4/5
f 363/4/5 361/4/5 362/4/5
f 364/4/5 362/4/5 360/4/5
f 365/4/5 362/4/5 364/4/5
f 366/3/5 365/3/5 364/3/5
f 367/3/5 365/3/5 366/3/5
f 368/4/5 367/4/5 366/4/5
f 369/4/5 361/4/5 363/4/5
f 370/4/5 368/4/5 366/4/5
f 370/4/5 369/4/5 368/4/5
f 371/4/5 361/4/5 369/4/5
f 371/4/5 369/4/5 370/4/5
f 376/4/5 373/4/5 372/4/5
f 376/3/5 374/3/5 373/3/5
f 377/4/5 375/4/5 374/4/5
f 377/3/5 374/3/5 376/3/5
f 378/4/5 376/4/5 372/4/5
f 379/4/5 375/4/5 377/4/5
f 380/4/5 378/4/5 372/4/5
f 380/4/5 379/4/5 378/4/5
f 381/4/5 375/4/5 379/4/5
f 381/4/5 379/4/5 380/4/5
f 382/4/6 383/4/6 386/4/6
f 383/3/6 384/3/6 386/3/6
f 384/4/6 385/4/6 387/4/6
f 386/3/6 384/3/6 387/3/6
f 386/4/6 387/4/6 388/4/6
f 387/4/6 385/4/6 388/4/6
f 388/4/6 385/4/6 389/4/6
f 386/4/6 388/4/6 390/4/6
f 386/4/6 390/4/6 391/4/6
f 386/4/6 391/4/6 392/4/6
f 389/4/6 385/4/6 393/4/6
f 382/4/6 386/4/6 394/4/6
f 392/4/6 393/4/6 394/4/6
f 386/4/6 392/4/6 394/4/6
f 394/4/6 393/4/6 395/4/6
f 394/3/6 395/3/6 396/3/6
f 395/4/6 393/4/6 397/4/6
f 396/3/6 395/3/6 397/3/6
f 393/4/6 385/4/6 398/4/6
f 397/4/6 393/4/6 398/4/6
f 399/4/6 400/4/6 401/4/6
f 401/4/6 400/4/6 402/4/6
f 399/4/6 401/4/6 403/4/6
f 401/3/6 402/3/6 403/3/6
f 402/4/6 400/4/6 404/4/6
f 403/3/6 402/3/6 404/3/6
f 404/4/6 400/4/6 405/4/6
f 405/4/6 400/4/6 406/4/6
f 406/4/6 400/4/6 407/4/6
f 405/4/6 406/4/6 408/4/6
f 406/3/6 407/3/6 408/3/6
f 408/3/6 407/3/6 409/3/6
f 399/4/6 403/4/6 410/4/6
f 405/4/6 408/4/6 411/4/6
f 408/4/6 409/4/6 411/4/6
f 399/4/6 410/4/6 412/4/6
f 410/4/6 411/4/6 412/4/6
f 411/4/6 409/4/6 413/4/6
f 412/4/6 411/4/6 413/4/6
f 414/4/6 415/4/6 418/4/6
f 415/3/6 416/3/6 418/3/6
f 416/4/6 417/4/6 419/4/6
f 418/3/6 416/3/6 419/3/6
f 414/4/6 418/4/6 420/4/6
f 418/4/6 419/4/6 420/4/6
f 420/4/6 419/4/6 421/4/6
f 414/4/6 420/4/6 422/4/6
f 421/4/6 419/4/6 423/4/6
f 414/4/6 422/4/6 424/4/6
f 422/4/6 423/4/6 424/4/6
f 424/4/6 423/4/6 425/4/6
f 424/3/6 425/3/6 426/3/6
f 425/4/6 423/4/6 427/4/6
f 426/3/6 425/3/6 427/3/6
f 419/4/6 417/4/6 428/4/6
f 427/4/6 423/4/6 428/4/6
f 423/4/6 419/4/6 428/4/6
f 429/4/6 430/4/6 431/4/6
f 431/4/6 430/4/6 432/4/6
f 429/4/6 431/4/6 433/4/6
f 432/4/6 430/4/6 434/4/6
f 429/4/6 433/4/6 435/4/6
f 433/4/6 434/4/6 435/4/6
f 434/4/6 430/4/6 436/4/6
f 435/4/6 434/4/6 436/4/6
f 437/4/6 438/4/6 441/4/6
f 438/3/6 439/3/6 441/3/6
f 441/3/6 439/3/6 442/3/6
f 439/4/6 440/4/6 443/4/6
f 442/3/6 439/3/6 443/3/6
f 437/4/6 441/4/6 444/4/6
f 437/4/6 444/4/6 445/4/6
f 443/4/6 440/4/6 446/4/6
f 437/4/6 445/4/6 447/4/6
f 445/4/6 446/4/6 447/4/6
f 446/4/6 440/4/6 448/4/6
f 447/4/6 446/4/6 448/4/6
f 449/3/6 450/3/6 453/3/6
f 450/4/6 451/4/6 454/4/6
f 453/3/6 450/3/6 454/3/6
f 451/3/6 452/3/6 455/3/6
f 454/4/6 451/4/6 455/4/6
f 455/3/6 452/3/6 456/3/6
f 453/4/6 454/4/6 457/4/6
f 454/4/6 455/4/6 457/4/6
f 455/4/6 456/4/6 457/4/6
f 457/4/6 456/4/6 458/4/6
