# MagicaVoxel @ Ephtracy

# group
g turret

# material
mtllib turret.mtl
usemtl palette

# normals
vn -1 0 0
vn 1 0 0
vn 0 0 1
vn 0 0 -1
vn 0 -1 0
vn 0 1 0

# texcoords
vt 0.00195313 0.5
vt 0.00585938 0.5
vt 0.00976563 0.5
vt 0.0332031 0.5
vt 0.0371094 0.5
vt 0.0605469 0.5
vt 0.0644531 0.5
vt 0.0917969 0.5
vt 0.142578 0.5
vt 0.369141 0.5
vt 0.373047 0.5
vt 0.521484 0.5
vt 0.611328 0.5
vt 0.634766 0.5
vt 0.646484 0.5
vt 0.888672 0.5
vt 0.900391 0.5
vt 0.966797 0.5
vt 0.994141 0.5

# verts
v -4.5 7 4.5
v -4.5 7 3.5
v -4.5 9 4.5
v -4.5 9 3.5
v -3.5 4 4.5
v -3.5 4 3.5
v -3.5 5 3.5
v -3.5 5 0.5
v -3.5 5 -0.5
v -3.5 6 3.5
v -3.5 6 0.5
v -3.5 6 -0.5
v -3.5 7 4.5
v -3.5 7 3.5
v -3.5 9 3.5
v -3.5 9 2.5
v -3.5 10 3.5
v -3.5 10 2.5
v -2.5 1 2.5
v -2.5 1 -2.5
v -2.5 2 2.5
v -2.5 2 0.5
v -2.5 2 -1.5
v -2.5 2 -2.5
v -2.5 3 0.5
v -2.5 3 -1.5
v -2.5 3 -2.5
v -2.5 4 2.5
v -2.5 4 0.5
v -2.5 4 -1.5
v -2.5 4 -2.5
v -2.5 5 2.5
v -2.5 5 0.5
v -2.5 5 -0.5
v -2.5 5 -1.5
v -2.5 6 2.5
v -2.5 6 0.5
v -2.5 6 -0.5
v -2.5 6 -1.5
v -2.5 6 -2.5
v -2.5 6 -4.5
v -2.5 7 4.5
v -2.5 7 3.5
v -2.5 7 2.5
v -2.5 7 1.5
v -2.5 7 0.5
v -2.5 7 -2.5
v -2.5 7 -4.5
v -2.5 8 3.5
v -2.5 8 2.5
v -2.5 8 1.5
v -2.5 8 0.5
v -2.5 9 4.5
v -2.5 9 3.5
v -2.5 9 2.5
v -2.5 9 0.5
v -2.5 9 -0.5
v -2.5 10 3.5
v -2.5 10 2.5
v -2.5 10 0.5
v -2.5 10 -0.5
v -2.5 11 3.5
v -2.5 11 2.5
v -2.5 12 2.5
v -2.5 12 -2.5
v -2.5 13 2.5
v -2.5 13 -2.5
v -1.5 0 0.5
v -1.5 0 -0.5
v -1.5 1 0.5
v -1.5 1 -0.5
v -1.5 2 -2.5
v -1.5 2 -4.5
v -1.5 3 -2.5
v -1.5 4 -2.5
v -1.5 5 3.5
v -1.5 5 2.5
v -1.5 6 -2.5
v -1.5 6 -4.5
v -1.5 6 -5.5
v -1.5 7 3.5
v -1.5 7 2.5
v -1.5 7 -4.5
v -1.5 7 -5.5
v -0.5 4 3.5
v -0.5 4 2.5
v -0.5 5 3.5
v -0.5 5 2.5
v -0.5 14 -0.5
v -0.5 14 -1.5
v -0.5 16 -0.5
v -0.5 16 -1.5
v 0.5 13 0.5
v 0.5 13 -0.5
v 0.5 14 -0.5
v 0.5 15 0.5
v 0.5 15 -0.5
v 1.5 0 0.5
v 1.5 0 -0.5
v 1.5 1 0.5
v 1.5 1 -0.5
v 1.5 9 3.5
v 1.5 9 2.5
v 1.5 10 3.5
v 1.5 10 2.5
v 2.5 10 3.5
v 2.5 10 2.5
v 2.5 11 3.5
v 2.5 11 2.5
v -3.5 7 4.5
v -3.5 7 3.5
v -3.5 9 4.5
v -3.5 9 3.5
v -2.5 4 4.5
v -2.5 4 3.5
v -2.5 5 3.5
v -2.5 5 2.5
v -2.5 6 3.5
v -2.5 6 2.5
v -2.5 7 4.5
v -2.5 7 3.5
v -1.5 7 4.5
v -1.5 7 3.5
v -1.5 8 3.5
v -1.5 9 4.5
v -1.5 9 3.5
v -1.5 10 3.5
v -1.5 10 2.5
v -1.5 11 3.5
v -1.5 11 2.5
v -0.5 0 0.5
v -0.5 0 -0.5
v -0.5 1 0.5
v -0.5 1 -0.5
v -0.5 9 3.5
v -0.5 9 2.5
v -0.5 10 3.5
v -0.5 10 2.5
v 0.5 15 -0.5
v 0.5 15 -1.5
v 0.5 16 -0.5
v 0.5 16 -1.5
v 1.5 4 3.5
v 1.5 4 2.5
v 1.5 5 3.5
v 1.5 5 2.5
v 1.5 13 0.5
v 1.5 13 -0.5
v 1.5 14 -0.5
v 1.5 14 -1.5
v 1.5 15 0.5
v 1.5 15 -1.5
v 2.5 0 0.5
v 2.5 0 -0.5
v 2.5 1 0.5
v 2.5 1 -0.5
v 2.5 2 -2.5
v 2.5 2 -4.5
v 2.5 3 -2.5
v 2.5 5 3.5
v 2.5 5 2.5
v 2.5 5 -2.5
v 2.5 6 -2.5
v 2.5 6 -4.5
v 2.5 6 -5.5
v 2.5 7 3.5
v 2.5 7 2.5
v 2.5 7 -4.5
v 2.5 7 -5.5
v 3.5 1 2.5
v 3.5 1 1.5
v 3.5 1 -2.5
v 3.5 2 1.5
v 3.5 2 0.5
v 3.5 2 -0.5
v 3.5 3 2.5
v 3.5 3 0.5
v 3.5 3 -0.5
v 3.5 3 -2.5
v 3.5 4 2.5
v 3.5 4 1.5
v 3.5 5 0.5
v 3.5 5 -0.5
v 3.5 5 -2.5
v 3.5 6 1.5
v 3.5 6 0.5
v 3.5 6 -0.5
v 3.5 6 -2.5
v 3.5 6 -4.5
v 3.5 7 3.5
v 3.5 7 2.5
v 3.5 7 1.5
v 3.5 7 0.5
v 3.5 7 -0.5
v 3.5 7 -2.5
v 3.5 7 -4.5
v 3.5 8 3.5
v 3.5 8 2.5
v 3.5 8 1.5
v 3.5 8 0.5
v 3.5 8 -1.5
v 3.5 8 -2.5
v 3.5 9 2.5
v 3.5 9 -1.5
v 3.5 9 -2.5
v 3.5 10 3.5
v 3.5 10 2.5
v 3.5 10 0.5
v 3.5 10 -0.5
v 3.5 11 3.5
v 3.5 11 2.5
v 3.5 11 0.5
v 3.5 11 -0.5
v 3.5 12 2.5
v 3.5 12 0.5
v 3.5 12 -2.5
v 3.5 13 2.5
v 3.5 13 -2.5
v 4.5 2 0.5
v 4.5 2 -0.5
v 4.5 5 0.5
v 4.5 5 -0.5
v 4.5 6 0.5
v 4.5 6 -0.5
v 4.5 9 3.5
v 4.5 9 2.5
v 4.5 10 3.5
v 4.5 10 2.5
v -4.5 7 4.5
v -4.5 9 4.5
v -3.5 4 4.5
v -3.5 7 4.5
v -3.5 9 4.5
v -2.5 4 4.5
v -2.5 7 4.5
v -2.5 9 4.5
v -1.5 7 4.5
v -1.5 9 4.5
v -3.5 9 3.5
v -3.5 10 3.5
v -2.5 9 3.5
v -2.5 10 3.5
v -2.5 11 3.5
v -1.5 5 3.5
v -1.5 7 3.5
v -1.5 8 3.5
v -1.5 9 3.5
v -1.5 10 3.5
v -1.5 11 3.5
v -0.5 4 3.5
v -0.5 5 3.5
v -0.5 9 3.5
v -0.5 10 3.5
v 1.5 4 3.5
v 1.5 5 3.5
v 1.5 9 3.5
v 1.5 10 3.5
v 2.5 5 3.5
v 2.5 7 3.5
v 2.5 10 3.5
v 2.5 11 3.5
v 3.5 7 3.5
v 3.5 8 3.5
v 3.5 10 3.5
v 3.5 11 3.5
v 4.5 9 3.5
v 4.5 10 3.5
v -2.5 1 2.5
v -2.5 2 2.5
v -2.5 4 2.5
v -2.5 5 2.5
v -2.5 6 2.5
v -2.5 7 2.5
v -2.5 8 2.5
v -2.5 9 2.5
v -2.5 11 2.5
v -2.5 12 2.5
v -2.5 13 2.5
v -1.5 2 2.5
v -1.5 4 2.5
v -1.5 5 2.5
v -1.5 7 2.5
v -1.5 8 2.5
v -1.5 9 2.5
v -1.5 10 2.5
v -1.5 11 2.5
v -1.5 12 2.5
v -0.5 2 2.5
v -0.5 3 2.5
v -0.5 4 2.5
v -0.5 5 2.5
v -0.5 8 2.5
v -0.5 9 2.5
v -0.5 10 2.5
v -0.5 11 2.5
v -0.5 12 2.5
v 0.5 9 2.5
v 0.5 10 2.5
v 1.5 2 2.5
v 1.5 3 2.5
v 1.5 4 2.5
v 1.5 5 2.5
v 1.5 8 2.5
v 1.5 9 2.5
v 1.5 10 2.5
v 2.5 1 2.5
v 2.5 2 2.5
v 2.5 3 2.5
v 2.5 4 2.5
v 2.5 5 2.5
v 2.5 7 2.5
v 2.5 8 2.5
v 2.5 9 2.5
v 2.5 10 2.5
v 2.5 11 2.5
v 2.5 12 2.5
v 3.5 1 2.5
v 3.5 3 2.5
v 3.5 4 2.5
v 3.5 7 2.5
v 3.5 8 2.5
v 3.5 9 2.5
v 3.5 11 2.5
v 3.5 12 2.5
v 3.5 13 2.5
v -1.5 0 0.5
v -1.5 1 0.5
v -0.5 0 0.5
v -0.5 1 0.5
v 0.5 13 0.5
v 0.5 15 0.5
v 1.5 0 0.5
v 1.5 1 0.5
v 1.5 13 0.5
v 1.5 15 0.5
v 2.5 0 0.5
v 2.5 1 0.5
v 3.5 2 0.5
v 3.5 3 0.5
v 3.5 5 0.5
v 3.5 6 0.5
v 4.5 2 0.5
v 4.5 5 0.5
v 4.5 6 0.5
v -0.5 14 -0.5
v -0.5 16 -0.5
v 0.5 14 -0.5
v 0.5 15 -0.5
v 0.5 16 -0.5
v -4.5 7 3.5
v -4.5 9 3.5
v -3.5 4 3.5
v -3.5 5 3.5
v -3.5 6 3.5
v -3.5 7 3.5
v -3.5 9 3.5
v -2.5 4 3.5
v -2.5 5 3.5
v -2.5 6 3.5
v -2.5 7 3.5
v -2.5 8 3.5
v -2.5 9 3.5
v -1.5 8 3.5
v -1.5 9 3.5
v -3.5 9 2.5
v -3.5 10 2.5
v -2.5 9 2.5
v -2.5 10 2.5
v 3.5 9 2.5
v 3.5 10 2.5
v 4.5 9 2.5
v 4.5 10 2.5
v -3.5 5 -0.5
v -3.5 6 -0.5
v -2.5 5 -0.5
v -2.5 6 -0.5
v -1.5 0 -0.5
v -1.5 1 -0.5
v -0.5 0 -0.5
v -0.5 1 -0.5
v 0.5 13 -0.5
v 0.5 14 -0.5
v 1.5 0 -0.5
v 1.5 1 -0.5
v 1.5 13 -0.5
v 1.5 14 -0.5
v 2.5 0 -0.5
v 2.5 1 -0.5
v 3.5 2 -0.5
v 3.5 3 -0.5
v 3.5 5 -0.5
v 3.5 6 -0.5
v 4.5 2 -0.5
v 4.5 5 -0.5
v 4.5 6 -0.5
v -0.5 14 -1.5
v -0.5 16 -1.5
v 0.5 15 -1.5
v 0.5 16 -1.5
v 1.5 14 -1.5
v 1.5 15 -1.5
v -2.5 1 -2.5
v -2.5 2 -2.5
v -2.5 3 -2.5
v -2.5 4 -2.5
v -2.5 6 -2.5
v -2.5 7 -2.5
v -2.5 12 -2.5
v -2.5 13 -2.5
v -1.5 2 -2.5
v -1.5 3 -2.5
v -1.5 4 -2.5
v -1.5 6 -2.5
v -1.5 7 -2.5
v -0.5 1 -2.5
v -0.5 2 -2.5
v 1.5 10 -2.5
v 1.5 11 -2.5
v 2.5 1 -2.5
v 2.5 2 -2.5
v 2.5 3 -2.5
v 2.5 5 -2.5
v 2.5 6 -2.5
v 2.5 7 -2.5
v 2.5 8 -2.5
v 2.5 9 -2.5
v 2.5 10 -2.5
v 2.5 11 -2.5
v 3.5 1 -2.5
v 3.5 3 -2.5
v 3.5 5 -2.5
v 3.5 6 -2.5
v 3.5 7 -2.5
v 3.5 8 -2.5
v 3.5 9 -2.5
v 3.5 12 -2.5
v 3.5 13 -2.5
v -2.5 6 -4.5
v -2.5 7 -4.5
v -1.5 2 -4.5
v -1.5 6 -4.5
v -1.5 7 -4.5
v 2.5 2 -4.5
v 2.5 6 -4.5
v 2.5 7 -4.5
v 3.5 6 -4.5
v 3.5 7 -4.5
v -1.5 6 -5.5
v -1.5 7 -5.5
v 2.5 6 -5.5
v 2.5 7 -5.5
v -1.5 0 0.5
v -0.5 0 0.5
v 1.5 0 0.5
v 2.5 0 0.5
v -1.5 0 -0.5
v -0.5 0 -0.5
v 1.5 0 -0.5
v 2.5 0 -0.5
v -2.5 1 2.5
v 2.5 1 2.5
v 3.5 1 2.5
v -1.5 1 1.5
v 2.5 1 1.5
v 3.5 1 1.5
v -1.5 1 0.5
v -0.5 1 0.5
v 1.5 1 0.5
v 2.5 1 0.5
v -1.5 1 -0.5
v -0.5 1 -0.5
v 1.5 1 -0.5
v 2.5 1 -0.5
v -1.5 1 -1.5
v -0.5 1 -1.5
v 2.5 1 -1.5
v -2.5 1 -2.5
v -0.5 1 -2.5
v 2.5 1 -2.5
v 3.5 1 -2.5
v 3.5 2 0.5
v 4.5 2 0.5
v 3.5 2 -0.5
v 4.5 2 -0.5
v -1.5 2 -2.5
v -0.5 2 -2.5
v 2.5 2 -2.5
v -1.5 2 -4.5
v 2.5 2 -4.5
v -3.5 4 4.5
v -2.5 4 4.5
v -3.5 4 3.5
v -2.5 4 3.5
v -0.5 4 3.5
v 1.5 4 3.5
v -0.5 4 2.5
v 1.5 4 2.5
v -3.5 5 3.5
v -2.5 5 3.5
v -1.5 5 3.5
v -0.5 5 3.5
v 1.5 5 3.5
v 2.5 5 3.5
v -2.5 5 2.5
v -1.5 5 2.5
v -0.5 5 2.5
v 1.5 5 2.5
v 2.5 5 2.5
v -3.5 5 0.5
v -2.5 5 0.5
v -3.5 5 -0.5
v -2.5 5 -0.5
v -2.5 6 -2.5
v -1.5 6 -2.5
v 2.5 6 -2.5
v 3.5 6 -2.5
v -2.5 6 -4.5
v -1.5 6 -4.5
v 2.5 6 -4.5
v 3.5 6 -4.5
v -1.5 6 -5.5
v 2.5 6 -5.5
v -4.5 7 4.5
v -3.5 7 4.5
v -2.5 7 4.5
v -1.5 7 4.5
v -4.5 7 3.5
v -3.5 7 3.5
v -2.5 7 3.5
v -1.5 7 3.5
v 2.5 7 3.5
v 3.5 7 3.5
v -2.5 7 2.5
v -1.5 7 2.5
v 2.5 7 2.5
v 3.5 7 2.5
v -3.5 9 3.5
v -2.5 9 3.5
v -1.5 9 3.5
v -0.5 9 3.5
v 1.5 9 3.5
v 4.5 9 3.5
v -3.5 9 2.5
v -2.5 9 2.5
v -1.5 9 2.5
v -0.5 9 2.5
v 1.5 9 2.5
v 2.5 9 2.5
v 3.5 9 2.5
v 4.5 9 2.5
v -0.5 14 -0.5
v 0.5 14 -0.5
v 1.5 14 -0.5
v -0.5 14 -1.5
v 1.5 14 -1.5
v -3.5 6 3.5
v -2.5 6 3.5
v -2.5 6 2.5
v -3.5 6 0.5
v -2.5 6 0.5
v 3.5 6 0.5
v 4.5 6 0.5
v -3.5 6 -0.5
v -2.5 6 -0.5
v 3.5 6 -0.5
v 4.5 6 -0.5
v -3.5 7 4.5
v -2.5 7 4.5
v -3.5 7 3.5
v -2.5 7 3.5
v -2.5 7 -2.5
v -1.5 7 -2.5
v 2.5 7 -2.5
v 3.5 7 -2.5
v -2.5 7 -4.5
v -1.5 7 -4.5
v 2.5 7 -4.5
v 3.5 7 -4.5
v -1.5 7 -5.5
v 2.5 7 -5.5
v -2.5 8 3.5
v -1.5 8 3.5
v 3.5 8 3.5
v -2.5 8 2.5
v -1.5 8 2.5
v -0.5 8 2.5
v 1.5 8 2.5
v 2.5 8 2.5
v 3.5 8 2.5
v -4.5 9 4.5
v -3.5 9 4.5
v -2.5 9 4.5
v -1.5 9 4.5
v -4.5 9 3.5
v -3.5 9 3.5
v -2.5 9 3.5
v -1.5 9 3.5
v -3.5 10 3.5
v -2.5 10 3.5
v -1.5 10 3.5
v -0.5 10 3.5
v 1.5 10 3.5
v 2.5 10 3.5
v 3.5 10 3.5
v 4.5 10 3.5
v -3.5 10 2.5
v -2.5 10 2.5
v -1.5 10 2.5
v -0.5 10 2.5
v 1.5 10 2.5
v 2.5 10 2.5
v 3.5 10 2.5
v 4.5 10 2.5
v -2.5 11 3.5
v -1.5 11 3.5
v 2.5 11 3.5
v 3.5 11 3.5
v -2.5 11 2.5
v -1.5 11 2.5
v 2.5 11 2.5
v 3.5 11 2.5
v -2.5 13 2.5
v 3.5 13 2.5
v -1.5 13 1.5
v 2.5 13 1.5
v 0.5 13 0.5
v 1.5 13 0.5
v 0.5 13 -0.5
v 1.5 13 -0.5
v -1.5 13 -1.5
v 2.5 13 -1.5
v -2.5 13 -2.5
v 3.5 13 -2.5
v 0.5 15 0.5
v 1.5 15 0.5
v 0.5 15 -0.5
v 0.5 15 -1.5
v 1.5 15 -1.5
v -0.5 16 -0.5
v 0.5 16 -0.5
v -0.5 16 -1.5
v 0.5 16 -1.5

# faces
f 3/10/1 2/10/1 1/10/1
f 4/10/1 2/10/1 3/10/1
f 7/10/1 6/10/1 5/10/1
f 10/10/1 7/10/1 5/10/1
f 10/2/1 8/2/1 7/2/1
f 11/3/1 9/3/1 8/3/1
f 11/2/1 8/2/1 10/2/1
f 12/3/1 9/3/1 11/3/1
f 13/10/1 10/10/1 5/10/1
f 14/10/1 10/10/1 13/10/1
f 17/18/1 16/18/1 15/18/1
f 18/18/1 16/18/1 17/18/1
f 21/17/1 20/17/1 19/17/1
f 22/17/1 20/17/1 21/17/1
f 23/17/1 20/17/1 22/17/1
f 24/17/1 20/17/1 23/17/1
f 25/3/1 22/3/1 21/3/1
f 25/17/1 23/17/1 22/17/1
f 26/16/1 24/16/1 23/16/1
f 26/17/1 23/17/1 25/17/1
f 27/16/1 24/16/1 26/16/1
f 28/3/1 25/3/1 21/3/1
f 29/2/1 26/2/1 25/2/1
f 29/3/1 25/3/1 28/3/1
f 30/17/1 27/17/1 26/17/1
f 30/2/1 26/2/1 29/2/1
f 31/17/1 27/17/1 30/17/1
f 32/2/1 29/2/1 28/2/1
f 32/2/1 30/2/1 29/2/1
f 32/2/1 31/2/1 30/2/1
f 33/2/1 31/2/1 32/2/1
f 34/2/1 31/2/1 33/2/1
f 35/2/1 31/2/1 34/2/1
f 38/3/1 35/3/1 34/3/1
f 39/2/1 31/2/1 35/2/1
f 39/3/1 35/3/1 38/3/1
f 40/2/1 31/2/1 39/2/1
f 44/2/1 40/2/1 39/2/1
f 44/2/1 39/2/1 38/2/1
f 44/2/1 38/2/1 37/2/1
f 44/2/1 37/2/1 36/2/1
f 45/2/1 40/2/1 44/2/1
f 46/2/1 40/2/1 45/2/1
f 47/11/1 41/11/1 40/11/1
f 47/2/1 40/2/1 46/2/1
f 48/11/1 41/11/1 47/11/1
f 49/10/1 43/10/1 42/10/1
f 49/18/1 44/18/1 43/18/1
f 50/2/1 45/2/1 44/2/1
f 50/18/1 44/18/1 49/18/1
f 51/3/1 46/3/1 45/3/1
f 51/2/1 45/2/1 50/2/1
f 52/2/1 47/2/1 46/2/1
f 52/3/1 46/3/1 51/3/1
f 53/10/1 49/10/1 42/10/1
f 54/10/1 49/10/1 53/10/1
f 55/2/1 51/2/1 50/2/1
f 55/2/1 52/2/1 51/2/1
f 56/2/1 47/2/1 52/2/1
f 56/2/1 52/2/1 55/2/1
f 57/2/1 47/2/1 56/2/1
f 59/2/1 56/2/1 55/2/1
f 60/3/1 57/3/1 56/3/1
f 60/2/1 56/2/1 59/2/1
f 61/2/1 47/2/1 57/2/1
f 61/3/1 57/3/1 60/3/1
f 62/18/1 59/18/1 58/18/1
f 63/2/1 60/2/1 59/2/1
f 63/18/1 59/18/1 62/18/1
f 63/2/1 61/2/1 60/2/1
f 64/2/1 61/2/1 63/2/1
f 65/2/1 47/2/1 61/2/1
f 65/2/1 61/2/1 64/2/1
f 66/18/1 65/18/1 64/18/1
f 67/18/1 65/18/1 66/18/1
f 70/15/1 69/15/1 68/15/1
f 71/15/1 69/15/1 70/15/1
f 74/11/1 73/11/1 72/11/1
f 75/11/1 73/11/1 74/11/1
f 78/11/1 73/11/1 75/11/1
f 79/11/1 73/11/1 78/11/1
f 81/18/1 77/18/1 76/18/1
f 82/18/1 77/18/1 81/18/1
f 83/11/1 80/11/1 79/11/1
f 84/11/1 80/11/1 83/11/1
f 87/18/1 86/18/1 85/18/1
f 88/18/1 86/18/1 87/18/1
f 91/18/1 90/18/1 89/18/1
f 92/18/1 90/18/1 91/18/1
f 95/18/1 94/18/1 93/18/1
f 96/18/1 95/18/1 93/18/1
f 97/18/1 95/18/1 96/18/1
f 100/15/1 99/15/1 98/15/1
f 101/15/1 99/15/1 100/15/1
f 104/18/1 103/18/1 102/18/1
f 105/18/1 103/18/1 104/18/1
f 108/18/1 107/18/1 106/18/1
f 109/18/1 107/18/1 108/18/1
f 110/10/2 111/10/2 112/10/2
f 112/10/2 111/10/2 113/10/2
f 114/10/2 115/10/2 116/10/2
f 114/10/2 116/10/2 118/10/2
f 116/2/2 117/2/2 118/2/2
f 118/2/2 117/2/2 119/2/2
f 114/10/2 118/10/2 120/10/2
f 120/10/2 118/10/2 121/10/2
f 122/10/2 123/10/2 124/10/2
f 122/10/2 124/10/2 125/10/2
f 125/10/2 124/10/2 126/10/2
f 127/18/2 128/18/2 129/18/2
f 129/18/2 128/18/2 130/18/2
f 131/15/2 132/15/2 133/15/2
f 133/15/2 132/15/2 134/15/2
f 135/18/2 136/18/2 137/18/2
f 137/18/2 136/18/2 138/18/2
f 139/18/2 140/18/2 141/18/2
f 141/18/2 140/18/2 142/18/2
f 143/18/2 144/18/2 145/18/2
f 145/18/2 144/18/2 146/18/2
f 147/18/2 148/18/2 149/18/2
f 147/18/2 149/18/2 151/18/2
f 149/18/2 150/18/2 151/18/2
f 151/18/2 150/18/2 152/18/2
f 153/15/2 154/15/2 155/15/2
f 155/15/2 154/15/2 156/15/2
f 157/11/2 158/11/2 159/11/2
f 159/11/2 158/11/2 162/11/2
f 162/11/2 158/11/2 163/11/2
f 163/11/2 158/11/2 164/11/2
f 160/18/2 161/18/2 166/18/2
f 166/18/2 161/18/2 167/18/2
f 164/11/2 165/11/2 168/11/2
f 168/11/2 165/11/2 169/11/2
f 170/16/2 171/16/2 173/16/2
f 171/17/2 172/17/2 173/17/2
f 173/17/2 172/17/2 174/17/2
f 174/17/2 172/17/2 175/17/2
f 170/16/2 173/16/2 176/16/2
f 173/16/2 174/16/2 176/16/2
f 176/16/2 174/16/2 177/16/2
f 175/17/2 172/17/2 178/17/2
f 178/17/2 172/17/2 179/17/2
f 176/17/2 177/17/2 180/17/2
f 180/17/2 177/17/2 181/17/2
f 181/17/2 177/17/2 182/17/2
f 178/16/2 179/16/2 183/16/2
f 183/16/2 179/16/2 184/16/2
f 181/17/2 182/17/2 185/17/2
f 180/2/2 181/2/2 185/2/2
f 185/17/2 182/17/2 186/17/2
f 183/17/2 184/17/2 187/17/2
f 187/17/2 184/17/2 188/17/2
f 185/2/2 186/2/2 191/2/2
f 180/2/2 185/2/2 191/2/2
f 191/2/2 186/2/2 192/2/2
f 186/17/2 187/17/2 193/17/2
f 192/2/2 186/2/2 193/2/2
f 187/2/2 188/2/2 194/2/2
f 193/17/2 187/17/2 194/17/2
f 188/11/2 189/11/2 195/11/2
f 194/2/2 188/2/2 195/2/2
f 195/11/2 189/11/2 196/11/2
f 190/18/2 191/18/2 197/18/2
f 191/2/2 192/2/2 198/2/2
f 197/18/2 191/18/2 198/18/2
f 192/3/2 193/3/2 199/3/2
f 198/2/2 192/2/2 199/2/2
f 193/2/2 194/2/2 200/2/2
f 199/3/2 193/3/2 200/3/2
f 194/2/2 195/2/2 200/2/2
f 200/2/2 195/2/2 201/2/2
f 201/2/2 195/2/2 202/2/2
f 198/2/2 199/2/2 203/2/2
f 199/2/2 200/2/2 203/2/2
f 200/2/2 201/2/2 203/2/2
f 201/3/2 202/3/2 204/3/2
f 203/2/2 201/2/2 204/2/2
f 204/3/2 202/3/2 205/3/2
f 203/2/2 204/2/2 207/2/2
f 204/2/2 205/2/2 207/2/2
f 207/2/2 205/2/2 208/2/2
f 208/2/2 205/2/2 209/2/2
f 206/18/2 207/18/2 210/18/2
f 207/2/2 208/2/2 211/2/2
f 210/18/2 207/18/2 211/18/2
f 208/3/2 209/3/2 212/3/2
f 211/2/2 208/2/2 212/2/2
f 209/2/2 205/2/2 213/2/2
f 212/3/2 209/3/2 213/3/2
f 211/3/2 212/3/2 214/3/2
f 212/2/2 213/2/2 215/2/2
f 214/3/2 212/3/2 215/3/2
f 213/2/2 205/2/2 216/2/2
f 215/2/2 213/2/2 216/2/2
f 214/18/2 215/18/2 217/18/2
f 215/18/2 216/18/2 217/18/2
f 217/18/2 216/18/2 218/18/2
f 219/2/2 220/2/2 221/2/2
f 221/2/2 220/2/2 222/2/2
f 221/17/2 222/17/2 223/17/2
f 223/17/2 222/17/2 224/17/2
f 225/18/2 226/18/2 227/18/2
f 227/18/2 226/18/2 228/18/2
f 232/10/3 230/10/3 229/10/3
f 233/10/3 230/10/3 232/10/3
f 234/10/3 232/10/3 231/10/3
f 235/10/3 232/10/3 234/10/3
f 237/10/3 236/10/3 235/10/3
f 238/10/3 236/10/3 237/10/3
f 241/18/3 240/18/3 239/18/3
f 242/18/3 240/18/3 241/18/3
f 247/18/3 242/18/3 241/18/3
f 247/18/3 243/18/3 242/18/3
f 248/18/3 243/18/3 247/18/3
f 249/18/3 243/18/3 248/18/3
f 251/18/3 246/18/3 245/18/3
f 251/18/3 245/18/3 244/18/3
f 252/18/3 248/18/3 247/18/3
f 253/18/3 248/18/3 252/18/3
f 254/18/3 251/18/3 250/18/3
f 255/18/3 246/18/3 251/18/3
f 255/18/3 251/18/3 254/18/3
f 258/18/3 246/18/3 255/18/3
f 259/18/3 246/18/3 258/18/3
f 260/18/3 257/18/3 256/18/3
f 262/18/3 246/18/3 259/18/3
f 263/18/3 246/18/3 262/18/3
f 264/18/3 260/18/3 256/18/3
f 264/18/3 261/18/3 260/18/3
f 265/18/3 261/18/3 264/18/3
f 266/18/3 264/18/3 256/18/3
f 267/18/3 264/18/3 266/18/3
f 279/17/3 269/17/3 268/17/3
f 279/3/3 270/3/3 269/3/3
f 280/2/3 271/2/3 270/2/3
f 280/3/3 270/3/3 279/3/3
f 280/2/3 272/2/3 271/2/3
f 280/2/3 273/2/3 272/2/3
f 281/2/3 273/2/3 280/2/3
f 282/2/3 273/2/3 281/2/3
f 283/2/3 275/2/3 274/2/3
f 284/2/3 275/2/3 283/2/3
f 286/2/3 277/2/3 276/2/3
f 287/18/3 278/18/3 277/18/3
f 287/2/3 277/2/3 286/2/3
f 288/17/3 279/17/3 268/17/3
f 288/2/3 280/2/3 279/2/3
f 288/2/3 281/2/3 280/2/3
f 289/2/3 281/2/3 288/2/3
f 290/2/3 281/2/3 289/2/3
f 291/2/3 281/2/3 290/2/3
f 292/19/3 284/19/3 283/19/3
f 293/19/3 284/19/3 292/19/3
f 294/2/3 286/2/3 285/2/3
f 295/3/3 287/3/3 286/3/3
f 295/2/3 286/2/3 294/2/3
f 296/18/3 278/18/3 287/18/3
f 296/3/3 287/3/3 295/3/3
f 297/2/3 293/2/3 292/2/3
f 297/3/3 294/3/3 293/3/3
f 298/2/3 296/2/3 295/2/3
f 298/3/3 294/3/3 297/3/3
f 298/2/3 295/2/3 294/2/3
f 299/17/3 288/17/3 268/17/3
f 299/17/3 289/17/3 288/17/3
f 300/2/3 290/2/3 289/2/3
f 300/17/3 289/17/3 299/17/3
f 301/2/3 290/2/3 300/2/3
f 303/2/3 297/2/3 292/2/3
f 303/2/3 298/2/3 297/2/3
f 304/2/3 298/2/3 303/2/3
f 305/2/3 296/2/3 298/2/3
f 305/2/3 298/2/3 304/2/3
f 306/17/3 299/17/3 268/17/3
f 307/16/3 300/16/3 299/16/3
f 307/17/3 299/17/3 306/17/3
f 308/2/3 302/2/3 301/2/3
f 308/16/3 300/16/3 307/16/3
f 308/2/3 301/2/3 300/2/3
f 309/2/3 302/2/3 308/2/3
f 310/2/3 302/2/3 309/2/3
f 312/19/3 304/19/3 303/19/3
f 313/19/3 304/19/3 312/19/3
f 314/2/3 296/2/3 305/2/3
f 315/2/3 296/2/3 314/2/3
f 316/18/3 278/18/3 296/18/3
f 316/2/3 296/2/3 315/2/3
f 317/16/3 307/16/3 306/16/3
f 317/16/3 308/16/3 307/16/3
f 318/17/3 309/17/3 308/17/3
f 318/16/3 308/16/3 317/16/3
f 319/2/3 311/2/3 310/2/3
f 319/17/3 309/17/3 318/17/3
f 319/2/3 310/2/3 309/2/3
f 320/2/3 311/2/3 319/2/3
f 321/2/3 313/2/3 312/2/3
f 322/2/3 313/2/3 321/2/3
f 323/3/3 316/3/3 315/3/3
f 324/18/3 278/18/3 316/18/3
f 324/3/3 316/3/3 323/3/3
f 325/18/3 278/18/3 324/18/3
f 328/15/3 327/15/3 326/15/3
f 329/15/3 327/15/3 328/15/3
f 334/18/3 331/18/3 330/18/3
f 335/18/3 331/18/3 334/18/3
f 336/15/3 333/15/3 332/15/3
f 337/15/3 333/15/3 336/15/3
f 342/2/3 339/2/3 338/2/3
f 342/2/3 340/2/3 339/2/3
f 343/17/3 341/17/3 340/17/3
f 343/2/3 340/2/3 342/2/3
f 344/17/3 341/17/3 343/17/3
f 347/18/3 346/18/3 345/18/3
f 348/18/3 346/18/3 347/18/3
f 349/18/3 346/18/3 348/18/3
f 350/10/4 351/10/4 355/10/4
f 355/10/4 351/10/4 356/10/4
f 352/10/4 353/10/4 357/10/4
f 357/10/4 353/10/4 358/10/4
f 354/10/4 355/10/4 359/10/4
f 359/10/4 355/10/4 360/10/4
f 361/10/4 362/10/4 363/10/4
f 363/10/4 362/10/4 364/10/4
f 365/18/4 366/18/4 367/18/4
f 367/18/4 366/18/4 368/18/4
f 369/18/4 370/18/4 371/18/4
f 371/18/4 370/18/4 372/18/4
f 373/3/4 374/3/4 375/3/4
f 375/3/4 374/3/4 376/3/4
f 377/15/4 378/15/4 379/15/4
f 379/15/4 378/15/4 380/15/4
f 381/18/4 382/18/4 385/18/4
f 385/18/4 382/18/4 386/18/4
f 383/15/4 384/15/4 387/15/4
f 387/15/4 384/15/4 388/15/4
f 389/2/4 390/2/4 393/2/4
f 390/2/4 391/2/4 393/2/4
f 391/17/4 392/17/4 394/17/4
f 393/2/4 391/2/4 394/2/4
f 394/17/4 392/17/4 395/17/4
f 396/18/4 397/18/4 398/18/4
f 398/18/4 397/18/4 399/18/4
f 396/18/4 398/18/4 400/18/4
f 400/18/4 398/18/4 401/18/4
f 402/17/4 403/17/4 410/17/4
f 403/16/4 404/16/4 410/16/4
f 404/17/4 405/17/4 411/17/4
f 410/16/4 404/16/4 411/16/4
f 405/2/4 406/2/4 412/2/4
f 411/17/4 405/17/4 412/17/4
f 412/2/4 406/2/4 413/2/4
f 407/2/4 408/2/4 414/2/4
f 402/17/4 410/17/4 415/17/4
f 415/17/4 410/17/4 416/17/4
f 414/2/4 408/2/4 417/2/4
f 417/2/4 408/2/4 418/2/4
f 415/16/4 416/16/4 419/16/4
f 419/16/4 416/16/4 420/16/4
f 414/2/4 417/2/4 424/2/4
f 424/2/4 417/2/4 425/2/4
f 425/2/4 417/2/4 426/2/4
f 417/3/4 418/3/4 427/3/4
f 426/2/4 417/2/4 427/2/4
f 418/2/4 408/2/4 428/2/4
f 427/3/4 418/3/4 428/3/4
f 419/17/4 420/17/4 429/17/4
f 420/17/4 421/17/4 429/17/4
f 421/16/4 422/16/4 430/16/4
f 429/17/4 421/17/4 430/17/4
f 422/17/4 423/17/4 431/17/4
f 430/16/4 422/16/4 431/16/4
f 431/17/4 423/17/4 432/17/4
f 424/2/4 425/2/4 433/2/4
f 425/3/4 426/3/4 434/3/4
f 433/2/4 425/2/4 434/2/4
f 426/2/4 427/2/4 435/2/4
f 434/3/4 426/3/4 435/3/4
f 427/2/4 428/2/4 435/2/4
f 408/18/4 409/18/4 436/18/4
f 435/2/4 428/2/4 436/2/4
f 428/2/4 408/2/4 436/2/4
f 436/18/4 409/18/4 437/18/4
f 438/11/4 439/11/4 441/11/4
f 441/11/4 439/11/4 442/11/4
f 440/11/4 441/11/4 443/11/4
f 443/11/4 441/11/4 444/11/4
f 444/11/4 445/11/4 446/11/4
f 446/11/4 445/11/4 447/11/4
f 448/11/4 449/11/4 450/11/4
f 450/11/4 449/11/4 451/11/4
f 456/15/5 453/15/5 452/15/5
f 457/15/5 453/15/5 456/15/5
f 458/15/5 455/15/5 454/15/5
f 459/15/5 455/15/5 458/15/5
f 463/17/5 461/17/5 460/17/5
f 464/16/5 462/16/5 461/16/5
f 464/17/5 461/17/5 463/17/5
f 465/16/5 462/16/5 464/16/5
f 466/17/5 463/17/5 460/17/5
f 466/7/5 464/7/5 463/7/5
f 467/7/5 464/7/5 466/7/5
f 468/7/5 464/7/5 467/7/5
f 469/17/5 465/17/5 464/17/5
f 469/7/5 464/7/5 468/7/5
f 470/17/5 466/17/5 460/17/5
f 471/7/5 468/7/5 467/7/5
f 472/7/5 468/7/5 471/7/5
f 473/17/5 465/17/5 469/17/5
f 474/17/5 470/17/5 460/17/5
f 474/7/5 473/7/5 472/7/5
f 474/7/5 472/7/5 471/7/5
f 474/7/5 471/7/5 470/7/5
f 475/7/5 473/7/5 474/7/5
f 476/17/5 465/17/5 473/17/5
f 476/7/5 473/7/5 475/7/5
f 477/17/5 475/17/5 474/17/5
f 477/17/5 474/17/5 460/17/5
f 478/16/5 476/16/5 475/16/5
f 478/17/5 475/17/5 477/17/5
f 479/17/5 465/17/5 476/17/5
f 479/16/5 476/16/5 478/16/5
f 480/17/5 465/17/5 479/17/5
f 483/2/5 482/2/5 481/2/5
f 484/2/5 482/2/5 483/2/5
f 488/11/5 486/11/5 485/11/5
f 488/11/5 487/11/5 486/11/5
f 489/11/5 487/11/5 488/11/5
f 492/10/5 491/10/5 490/10/5
f 493/10/5 491/10/5 492/10/5
f 496/18/5 495/18/5 494/18/5
f 497/18/5 495/18/5 496/18/5
f 504/2/5 499/2/5 498/2/5
f 505/18/5 501/18/5 500/18/5
f 506/18/5 501/18/5 505/18/5
f 507/18/5 503/18/5 502/18/5
f 508/18/5 503/18/5 507/18/5
f 509/2/5 504/2/5 498/2/5
f 510/2/5 504/2/5 509/2/5
f 511/3/5 510/3/5 509/3/5
f 512/3/5 510/3/5 511/3/5
f 517/11/5 514/11/5 513/11/5
f 518/11/5 514/11/5 517/11/5
f 519/11/5 516/11/5 515/11/5
f 520/11/5 516/11/5 519/11/5
f 521/11/5 519/11/5 518/11/5
f 522/11/5 519/11/5 521/11/5
f 527/10/5 524/10/5 523/10/5
f 528/10/5 524/10/5 527/10/5
f 529/10/5 526/10/5 525/10/5
f 530/10/5 526/10/5 529/10/5
f 533/18/5 530/18/5 529/18/5
f 534/18/5 530/18/5 533/18/5
f 535/18/5 532/18/5 531/18/5
f 536/18/5 532/18/5 535/18/5
f 543/18/5 538/18/5 537/18/5
f 543/18/5 539/18/5 538/18/5
f 543/18/5 540/18/5 539/18/5
f 544/18/5 540/18/5 543/18/5
f 545/18/5 540/18/5 544/18/5
f 546/18/5 540/18/5 545/18/5
f 547/18/5 542/18/5 541/18/5
f 548/18/5 542/18/5 547/18/5
f 549/18/5 542/18/5 548/18/5
f 550/18/5 542/18/5 549/18/5
f 554/18/5 552/18/5 551/18/5
f 554/18/5 553/18/5 552/18/5
f 555/18/5 553/18/5 554/18/5
f 556/2/6 557/2/6 558/2/6
f 556/2/6 558/2/6 559/2/6
f 559/2/6 558/2/6 560/2/6
f 559/3/6 560/3/6 563/3/6
f 563/3/6 560/3/6 564/3/6
f 561/17/6 562/17/6 565/17/6
f 565/17/6 562/17/6 566/17/6
f 567/10/6 568/10/6 569/10/6
f 569/10/6 568/10/6 570/10/6
f 571/11/6 572/11/6 575/11/6
f 572/19/6 573/19/6 576/19/6
f 575/11/6 572/11/6 576/11/6
f 573/11/6 574/11/6 577/11/6
f 576/19/6 573/19/6 577/19/6
f 577/11/6 574/11/6 578/11/6
f 576/11/6 577/11/6 579/11/6
f 579/11/6 577/11/6 580/11/6
f 581/18/6 582/18/6 584/18/6
f 582/18/6 583/18/6 584/18/6
f 584/18/6 583/18/6 585/18/6
f 585/18/6 583/18/6 586/18/6
f 586/18/6 583/18/6 587/18/6
f 587/18/6 583/18/6 588/18/6
f 588/18/6 583/18/6 589/18/6
f 590/10/6 591/10/6 594/10/6
f 594/10/6 591/10/6 595/10/6
f 592/10/6 593/10/6 596/10/6
f 596/10/6 593/10/6 597/10/6
f 598/18/6 599/18/6 606/18/6
f 606/18/6 599/18/6 607/18/6
f 600/18/6 601/18/6 608/18/6
f 608/18/6 601/18/6 609/18/6
f 602/18/6 603/18/6 610/18/6
f 610/18/6 603/18/6 611/18/6
f 604/18/6 605/18/6 612/18/6
f 612/18/6 605/18/6 613/18/6
f 614/18/6 615/18/6 618/18/6
f 618/18/6 615/18/6 619/18/6
f 616/18/6 617/18/6 620/18/6
f 620/18/6 617/18/6 621/18/6
f 622/18/6 623/18/6 624/18/6
f 624/18/6 623/18/6 625/18/6
f 624/2/6 625/2/6 626/2/6
f 626/2/6 625/2/6 627/2/6
f 624/2/6 626/2/6 628/2/6
f 627/2/6 625/2/6 629/2/6
f 622/18/6 624/18/6 630/18/6
f 628/2/6 629/2/6 630/2/6
f 624/2/6 628/2/6 630/2/6
f 629/2/6 625/2/6 631/2/6
f 630/2/6 629/2/6 631/2/6
f 625/18/6 623/18/6 631/18/6
f 622/18/6 630/18/6 632/18/6
f 630/18/6 631/18/6 632/18/6
f 631/18/6 623/18/6 633/18/6
f 632/18/6 631/18/6 633/18/6
f 634/18/6 635/18/6 636/18/6
f 636/18/6 635/18/6 637/18/6
f 637/18/6 635/18/6 638/18/6
f 639/18/6 640/18/6 641/18/6
f 641/18/6 640/18/6 642/18/6
