# MagicaVoxel @ Ephtracy

# group
g Birch_diff

# material
mtllib Birch_diff.mtl
usemtl palette

# normals
vn -1 0 0
vn 1 0 0
vn 0 0 1
vn 0 0 -1
vn 0 -1 0
vn 0 1 0

# texcoords
vt 0.177734 0.5
vt 0.185547 0.5
vt 0.341797 0.5
vt 0.486328 0.5
vt 0.490234 0.5
vt 0.900391 0.5
vt 0.912109 0.5
vt 0.990234 0.5

# verts
v -6 20 3
v -6 20 -3
v -6 22 2
v -6 22 1
v -6 22 -2
v -6 22 -3
v -6 23 2
v -6 23 1
v -6 23 -2
v -6 23 -3
v -6 25 2
v -6 25 1
v -6 26 2
v -6 26 1
v -6 27 -0
v -6 27 -1
v -6 28 3
v -6 28 -0
v -6 28 -1
v -6 28 -3
v -5 19 4
v -5 19 -1
v -5 19 -2
v -5 19 -4
v -5 20 3
v -5 20 -1
v -5 20 -2
v -5 20 -3
v -5 21 4
v -5 21 3
v -5 22 4
v -5 22 3
v -5 22 -3
v -5 23 -3
v -5 28 3
v -5 28 -0
v -5 28 -1
v -5 28 -3
v -5 29 4
v -5 29 -4
v -4 20 5
v -4 20 4
v -4 20 -4
v -4 20 -5
v -4 21 4
v -4 22 4
v -4 27 -4
v -4 27 -5
v -4 28 5
v -4 28 4
v -4 28 -4
v -4 28 -5
v -4 29 3
v -4 29 -3
v -4 30 3
v -4 30 -3
v -3 18 2
v -3 18 1
v -3 18 -2
v -3 19 2
v -3 19 1
v -3 19 -2
v -1 0 1
v -1 0 -1
v -1 1 1
v -1 1 -1
v -1 3 1
v -1 3 -1
v -1 4 1
v -1 4 -1
v -1 8 1
v -1 8 -1
v -1 9 1
v -1 9 -1
v -1 13 1
v -1 13 -1
v -1 14 1
v -1 14 -0
v -1 15 -0
v -1 15 -1
v -1 17 1
v -1 17 -1
v -1 18 1
v -1 18 -1
v 1 0 1
v 1 0 -1
v 1 1 1
v 1 1 -1
v 1 2 1
v 1 2 -1
v 1 4 1
v 1 4 -1
v 1 5 1
v 1 5 -1
v 1 8 1
v 1 8 -1
v 1 9 1
v 1 9 -1
v 1 14 1
v 1 14 -1
v 1 15 1
v 1 15 -1
v 1 17 1
v 1 17 -1
v 1 18 1
v 1 18 -1
v 3 18 2
v 3 18 -2
v 3 19 2
v 3 19 -2
v 4 20 5
v 4 20 4
v 4 20 -4
v 4 20 -5
v 4 23 5
v 4 23 4
v 4 24 5
v 4 24 4
v 4 26 -4
v 4 26 -5
v 4 27 -4
v 4 27 -5
v 4 28 5
v 4 28 4
v 4 28 -4
v 4 28 -5
v 4 29 3
v 4 29 2
v 4 29 1
v 4 29 -3
v 4 30 3
v 4 30 -3
v 5 19 4
v 5 19 3
v 5 19 2
v 5 19 -4
v 5 20 3
v 5 20 2
v 5 20 -3
v 5 24 3
v 5 25 3
v 5 28 3
v 5 28 2
v 5 28 1
v 5 28 -3
v 5 29 4
v 5 29 2
v 5 29 1
v 5 29 -4
v 6 20 3
v 6 20 -3
v 6 22 -0
v 6 22 -1
v 6 23 -0
v 6 23 -1
v 6 24 3
v 6 24 2
v 6 25 3
v 6 25 2
v 6 28 3
v 6 28 -3
v -4 20 5
v -4 28 5
v -3 20 5
v -3 21 5
v -2 20 5
v -2 21 5
v -1 24 5
v -1 25 5
v 0 24 5
v 0 25 5
v 1 21 5
v 1 22 5
v 2 21 5
v 2 22 5
v 3 23 5
v 3 24 5
v 4 20 5
v 4 23 5
v 4 24 5
v 4 28 5
v -5 19 4
v -5 21 4
v -5 22 4
v -5 29 4
v -4 20 4
v -4 21 4
v -4 22 4
v -4 28 4
v -3 20 4
v -2 20 4
v 4 20 4
v 4 23 4
v 4 24 4
v 4 28 4
v 5 19 4
v 5 29 4
v -6 20 3
v -6 28 3
v -5 20 3
v -5 21 3
v -5 22 3
v -5 28 3
v -4 29 3
v -4 30 3
v 4 29 3
v 4 30 3
v 5 20 3
v 5 24 3
v 5 25 3
v 5 28 3
v 6 20 3
v 6 24 3
v 6 25 3
v 6 28 3
v -3 18 2
v -3 19 2
v -2 18 2
v -2 19 2
v 3 18 2
v 3 19 2
v -1 0 1
v -1 1 1
v -1 3 1
v -1 4 1
v -1 8 1
v -1 9 1
v -1 13 1
v -1 14 1
v -1 17 1
v -1 18 1
v 0 0 1
v 0 1 1
v 0 2 1
v 0 3 1
v 0 4 1
v 0 5 1
v 0 13 1
v 0 14 1
v 0 15 1
v 1 0 1
v 1 1 1
v 1 2 1
v 1 4 1
v 1 5 1
v 1 8 1
v 1 9 1
v 1 14 1
v 1 15 1
v 1 17 1
v 1 18 1
v -1 0 -1
v -1 1 -1
v -1 3 -1
v -1 4 -1
v -1 8 -1
v -1 9 -1
v -1 13 -1
v -1 15 -1
v -1 17 -1
v -1 18 -1
v 0 0 -1
v 0 1 -1
v 0 2 -1
v 0 3 -1
v 0 4 -1
v 0 5 -1
v 0 13 -1
v 0 14 -1
v 1 0 -1
v 1 1 -1
v 1 2 -1
v 1 4 -1
v 1 5 -1
v 1 8 -1
v 1 9 -1
v 1 14 -1
v 1 15 -1
v 1 17 -1
v 1 18 -1
v -3 18 -2
v -3 19 -2
v 3 18 -2
v 3 19 -2
v -6 20 -3
v -6 22 -3
v -6 23 -3
v -6 28 -3
v -5 20 -3
v -5 22 -3
v -5 23 -3
v -5 28 -3
v -4 29 -3
v -4 30 -3
v 2 29 -3
v 3 29 -3
v 4 29 -3
v 4 30 -3
v 5 20 -3
v 5 28 -3
v 6 20 -3
v 6 28 -3
v -5 19 -4
v -5 29 -4
v -4 20 -4
v -4 27 -4
v -4 28 -4
v -3 28 -4
v 2 28 -4
v 2 29 -4
v 3 28 -4
v 3 29 -4
v 4 20 -4
v 4 26 -4
v 4 27 -4
v 4 28 -4
v 5 19 -4
v 5 29 -4
v -4 20 -5
v -4 27 -5
v -4 28 -5
v -3 27 -5
v -3 28 -5
v -2 21 -5
v -2 22 -5
v -1 21 -5
v -1 22 -5
v -1 23 -5
v -1 24 -5
v 0 23 -5
v 0 24 -5
v 3 26 -5
v 3 27 -5
v 4 20 -5
v 4 26 -5
v 4 27 -5
v 4 28 -5
v -1 0 1
v 0 0 1
v 1 0 1
v -1 0 -1
v 0 0 -1
v 1 0 -1
v -3 18 2
v -2 18 2
v 3 18 2
v -3 18 1
v -2 18 1
v -1 18 1
v 1 18 1
v -1 18 -1
v 1 18 -1
v -3 18 -2
v 3 18 -2
v -5 19 4
v 5 19 4
v 4 19 3
v 5 19 3
v -3 19 2
v -2 19 2
v 3 19 2
v 4 19 2
v 5 19 2
v -3 19 1
v -5 19 -1
v -4 19 -1
v -5 19 -2
v -4 19 -2
v -3 19 -2
v 3 19 -2
v -5 19 -4
v 5 19 -4
v -4 20 5
v -3 20 5
v -2 20 5
v 4 20 5
v -4 20 4
v -3 20 4
v -2 20 4
v 4 20 4
v -6 20 3
v -5 20 3
v 5 20 3
v 6 20 3
v 5 20 2
v -5 20 -1
v -5 20 -2
v -6 20 -3
v -5 20 -3
v 5 20 -3
v 6 20 -3
v -4 20 -4
v 4 20 -4
v -4 20 -5
v 4 20 -5
v -4 28 5
v 4 28 5
v -4 28 4
v 4 28 4
v -6 28 3
v -5 28 3
v 5 28 3
v 6 28 3
v 5 28 2
v 5 28 1
v -6 28 -0
v -5 28 -0
v -6 28 -1
v -5 28 -1
v -6 28 -3
v -5 28 -3
v 5 28 -3
v 6 28 -3
v -4 28 -4
v -3 28 -4
v 2 28 -4
v 3 28 -4
v 4 28 -4
v -4 28 -5
v -3 28 -5
v 4 28 -5
v -5 29 4
v 5 29 4
v -4 29 3
v 4 29 3
v 4 29 2
v 5 29 2
v 4 29 1
v 5 29 1
v -4 29 -3
v 2 29 -3
v 3 29 -3
v 4 29 -3
v -5 29 -4
v 2 29 -4
v 3 29 -4
v 5 29 -4
v -4 30 3
v 4 30 3
v 1 30 2
v 2 30 2
v 1 30 1
v 2 30 1
v -3 30 -0
v -2 30 -0
v -3 30 -1
v -2 30 -1
v -4 30 -3
v 4 30 -3

# faces
f 3/7/1 2/7/1 1/7/1
f 4/7/1 2/7/1 3/7/1
f 5/7/1 2/7/1 4/7/1
f 6/7/1 2/7/1 5/7/1
f 7/7/1 3/7/1 1/7/1
f 7/1/1 4/1/1 3/1/1
f 8/7/1 5/7/1 4/7/1
f 8/1/1 4/1/1 7/1/1
f 9/1/1 6/1/1 5/1/1
f 9/7/1 5/7/1 8/7/1
f 10/1/1 6/1/1 9/1/1
f 11/7/1 8/7/1 7/7/1
f 11/7/1 7/7/1 1/7/1
f 11/7/1 10/7/1 9/7/1
f 11/7/1 9/7/1 8/7/1
f 12/7/1 10/7/1 11/7/1
f 13/7/1 11/7/1 1/7/1
f 13/1/1 12/1/1 11/1/1
f 14/7/1 10/7/1 12/7/1
f 14/1/1 12/1/1 13/1/1
f 15/7/1 14/7/1 13/7/1
f 15/7/1 10/7/1 14/7/1
f 16/7/1 10/7/1 15/7/1
f 17/7/1 13/7/1 1/7/1
f 17/7/1 15/7/1 13/7/1
f 18/1/1 16/1/1 15/1/1
f 18/7/1 15/7/1 17/7/1
f 19/7/1 10/7/1 16/7/1
f 19/1/1 16/1/1 18/1/1
f 20/7/1 10/7/1 19/7/1
f 25/7/1 22/7/1 21/7/1
f 26/1/1 23/1/1 22/1/1
f 26/7/1 22/7/1 25/7/1
f 27/7/1 24/7/1 23/7/1
f 27/1/1 23/1/1 26/1/1
f 28/7/1 24/7/1 27/7/1
f 29/7/1 25/7/1 21/7/1
f 30/7/1 25/7/1 29/7/1
f 31/1/1 30/1/1 29/1/1
f 32/1/1 30/1/1 31/1/1
f 33/7/1 24/7/1 28/7/1
f 34/7/1 24/7/1 33/7/1
f 35/7/1 32/7/1 31/7/1
f 38/7/1 24/7/1 34/7/1
f 39/7/1 37/7/1 36/7/1
f 39/7/1 38/7/1 37/7/1
f 39/7/1 35/7/1 31/7/1
f 39/7/1 36/7/1 35/7/1
f 40/7/1 24/7/1 38/7/1
f 40/7/1 38/7/1 39/7/1
f 45/7/1 42/7/1 41/7/1
f 46/7/1 45/7/1 41/7/1
f 47/7/1 44/7/1 43/7/1
f 48/7/1 44/7/1 47/7/1
f 49/7/1 46/7/1 41/7/1
f 50/7/1 46/7/1 49/7/1
f 51/1/1 48/1/1 47/1/1
f 52/1/1 48/1/1 51/1/1
f 55/7/1 54/7/1 53/7/1
f 56/7/1 54/7/1 55/7/1
f 60/1/1 58/1/1 57/1/1
f 61/7/1 59/7/1 58/7/1
f 61/1/1 58/1/1 60/1/1
f 62/7/1 59/7/1 61/7/1
f 65/8/1 64/8/1 63/8/1
f 66/8/1 64/8/1 65/8/1
f 67/3/1 66/3/1 65/3/1
f 68/3/1 66/3/1 67/3/1
f 69/8/1 68/8/1 67/8/1
f 70/8/1 68/8/1 69/8/1
f 71/3/1 70/3/1 69/3/1
f 72/3/1 70/3/1 71/3/1
f 73/8/1 72/8/1 71/8/1
f 74/8/1 72/8/1 73/8/1
f 75/3/1 74/3/1 73/3/1
f 76/3/1 74/3/1 75/3/1
f 77/8/1 76/8/1 75/8/1
f 78/8/1 76/8/1 77/8/1
f 79/3/1 78/3/1 77/3/1
f 79/8/1 76/8/1 78/8/1
f 80/8/1 76/8/1 79/8/1
f 81/3/1 79/3/1 77/3/1
f 81/3/1 80/3/1 79/3/1
f 82/3/1 80/3/1 81/3/1
f 83/8/1 82/8/1 81/8/1
f 84/8/1 82/8/1 83/8/1
f 85/3/2 86/3/2 87/3/2
f 87/3/2 86/3/2 88/3/2
f 87/8/2 88/8/2 89/8/2
f 89/8/2 88/8/2 90/8/2
f 89/3/2 90/3/2 91/3/2
f 91/3/2 90/3/2 92/3/2
f 91/8/2 92/8/2 93/8/2
f 93/8/2 92/8/2 94/8/2
f 93/3/2 94/3/2 95/3/2
f 95/3/2 94/3/2 96/3/2
f 95/8/2 96/8/2 97/8/2
f 97/8/2 96/8/2 98/8/2
f 97/3/2 98/3/2 99/3/2
f 99/3/2 98/3/2 100/3/2
f 99/8/2 100/8/2 101/8/2
f 101/8/2 100/8/2 102/8/2
f 101/3/2 102/3/2 103/3/2
f 103/3/2 102/3/2 104/3/2
f 103/8/2 104/8/2 105/8/2
f 105/8/2 104/8/2 106/8/2
f 107/7/2 108/7/2 109/7/2
f 109/7/2 108/7/2 110/7/2
f 111/7/2 112/7/2 115/7/2
f 115/7/2 112/7/2 116/7/2
f 115/1/2 116/1/2 117/1/2
f 117/1/2 116/1/2 118/1/2
f 113/7/2 114/7/2 119/7/2
f 119/7/2 114/7/2 120/7/2
f 119/1/2 120/1/2 121/1/2
f 121/1/2 120/1/2 122/1/2
f 117/7/2 118/7/2 123/7/2
f 123/7/2 118/7/2 124/7/2
f 121/7/2 122/7/2 125/7/2
f 125/7/2 122/7/2 126/7/2
f 127/7/2 128/7/2 131/7/2
f 129/7/2 130/7/2 131/7/2
f 128/7/2 129/7/2 131/7/2
f 131/7/2 130/7/2 132/7/2
f 133/7/2 134/7/2 137/7/2
f 134/1/2 135/1/2 137/1/2
f 135/7/2 136/7/2 138/7/2
f 137/1/2 135/1/2 138/1/2
f 138/7/2 136/7/2 139/7/2
f 133/7/2 137/7/2 140/7/2
f 133/7/2 140/7/2 141/7/2
f 133/7/2 141/7/2 142/7/2
f 139/7/2 136/7/2 145/7/2
f 133/7/2 142/7/2 146/7/2
f 142/7/2 143/7/2 146/7/2
f 143/1/2 144/1/2 147/1/2
f 146/7/2 143/7/2 147/7/2
f 144/7/2 145/7/2 148/7/2
f 147/1/2 144/1/2 148/1/2
f 145/7/2 136/7/2 149/7/2
f 148/7/2 145/7/2 149/7/2
f 150/7/2 151/7/2 152/7/2
f 152/7/2 151/7/2 153/7/2
f 150/7/2 152/7/2 154/7/2
f 152/1/2 153/1/2 154/1/2
f 153/7/2 151/7/2 155/7/2
f 154/1/2 153/1/2 155/1/2
f 150/7/2 154/7/2 156/7/2
f 154/7/2 155/7/2 156/7/2
f 156/7/2 155/7/2 157/7/2
f 156/1/2 157/1/2 158/1/2
f 157/7/2 155/7/2 159/7/2
f 158/1/2 157/1/2 159/1/2
f 158/7/2 159/7/2 160/7/2
f 155/7/2 151/7/2 161/7/2
f 160/7/2 159/7/2 161/7/2
f 159/7/2 155/7/2 161/7/2
f 164/7/3 163/7/3 162/7/3
f 165/7/3 163/7/3 164/7/3
f 166/1/3 165/1/3 164/1/3
f 167/7/3 163/7/3 165/7/3
f 167/1/3 165/1/3 166/1/3
f 168/7/3 167/7/3 166/7/3
f 168/7/3 163/7/3 167/7/3
f 169/7/3 163/7/3 168/7/3
f 170/7/3 168/7/3 166/7/3
f 170/1/3 169/1/3 168/1/3
f 171/7/3 163/7/3 169/7/3
f 171/1/3 169/1/3 170/1/3
f 172/7/3 170/7/3 166/7/3
f 172/7/3 171/7/3 170/7/3
f 173/7/3 171/7/3 172/7/3
f 174/7/3 172/7/3 166/7/3
f 174/1/3 173/1/3 172/1/3
f 175/7/3 171/7/3 173/7/3
f 175/1/3 173/1/3 174/1/3
f 176/7/3 175/7/3 174/7/3
f 176/7/3 171/7/3 175/7/3
f 177/7/3 171/7/3 176/7/3
f 178/7/3 174/7/3 166/7/3
f 178/7/3 176/7/3 174/7/3
f 179/1/3 177/1/3 176/1/3
f 179/7/3 176/7/3 178/7/3
f 180/7/3 171/7/3 177/7/3
f 180/1/3 177/1/3 179/1/3
f 181/7/3 163/7/3 171/7/3
f 181/7/3 171/7/3 180/7/3
f 186/7/3 183/7/3 182/7/3
f 187/1/3 184/1/3 183/1/3
f 187/7/3 183/7/3 186/7/3
f 188/7/3 185/7/3 184/7/3
f 188/1/3 184/1/3 187/1/3
f 189/7/3 185/7/3 188/7/3
f 190/7/3 186/7/3 182/7/3
f 191/7/3 190/7/3 182/7/3
f 192/7/3 191/7/3 182/7/3
f 195/7/3 185/7/3 189/7/3
f 196/7/3 194/7/3 193/7/3
f 196/7/3 195/7/3 194/7/3
f 196/7/3 192/7/3 182/7/3
f 196/7/3 193/7/3 192/7/3
f 197/7/3 185/7/3 195/7/3
f 197/7/3 195/7/3 196/7/3
f 200/7/3 199/7/3 198/7/3
f 201/7/3 199/7/3 200/7/3
f 202/7/3 199/7/3 201/7/3
f 203/7/3 199/7/3 202/7/3
f 206/7/3 205/7/3 204/7/3
f 207/7/3 205/7/3 206/7/3
f 212/7/3 209/7/3 208/7/3
f 213/1/3 210/1/3 209/1/3
f 213/7/3 209/7/3 212/7/3
f 214/7/3 211/7/3 210/7/3
f 214/1/3 210/1/3 213/1/3
f 215/7/3 211/7/3 214/7/3
f 218/1/3 217/1/3 216/1/3
f 219/1/3 217/1/3 218/1/3
f 220/7/3 219/7/3 218/7/3
f 221/7/3 219/7/3 220/7/3
f 232/8/3 223/8/3 222/8/3
f 233/3/3 224/3/3 223/3/3
f 233/8/3 223/8/3 232/8/3
f 234/3/3 224/3/3 233/3/3
f 235/8/3 225/8/3 224/8/3
f 235/3/3 224/3/3 234/3/3
f 236/3/3 226/3/3 225/3/3
f 236/8/3 225/8/3 235/8/3
f 237/3/3 226/3/3 236/3/3
f 238/3/3 228/3/3 227/3/3
f 238/8/3 229/8/3 228/8/3
f 239/3/3 230/3/3 229/3/3
f 239/8/3 229/8/3 238/8/3
f 240/3/3 230/3/3 239/3/3
f 241/3/3 233/3/3 232/3/3
f 242/8/3 234/8/3 233/8/3
f 242/3/3 233/3/3 241/3/3
f 243/3/3 235/3/3 234/3/3
f 243/8/3 234/8/3 242/8/3
f 243/3/3 236/3/3 235/3/3
f 244/8/3 237/8/3 236/8/3
f 244/3/3 236/3/3 243/3/3
f 245/3/3 226/3/3 237/3/3
f 245/8/3 237/8/3 244/8/3
f 246/8/3 227/8/3 226/8/3
f 246/3/3 226/3/3 245/3/3
f 247/3/3 238/3/3 227/3/3
f 247/8/3 227/8/3 246/8/3
f 247/3/3 239/3/3 238/3/3
f 248/8/3 240/8/3 239/8/3
f 248/3/3 239/3/3 247/3/3
f 249/3/3 230/3/3 240/3/3
f 249/8/3 240/8/3 248/8/3
f 250/8/3 231/8/3 230/8/3
f 250/3/3 230/3/3 249/3/3
f 251/8/3 231/8/3 250/8/3
f 252/8/4 253/8/4 262/8/4
f 253/3/4 254/3/4 263/3/4
f 262/8/4 253/8/4 263/8/4
f 263/3/4 254/3/4 264/3/4
f 254/8/4 255/8/4 265/8/4
f 264/3/4 254/3/4 265/3/4
f 255/3/4 256/3/4 266/3/4
f 265/8/4 255/8/4 266/8/4
f 266/3/4 256/3/4 267/3/4
f 257/3/4 258/3/4 268/3/4
f 258/8/4 259/8/4 268/8/4
f 268/8/4 259/8/4 269/8/4
f 262/3/4 263/3/4 270/3/4
f 263/8/4 264/8/4 271/8/4
f 270/3/4 263/3/4 271/3/4
f 264/3/4 265/3/4 272/3/4
f 271/8/4 264/8/4 272/8/4
f 265/3/4 266/3/4 272/3/4
f 266/8/4 267/8/4 273/8/4
f 272/3/4 266/3/4 273/3/4
f 267/3/4 256/3/4 274/3/4
f 273/8/4 267/8/4 274/8/4
f 256/8/4 257/8/4 275/8/4
f 274/3/4 256/3/4 275/3/4
f 268/3/4 269/3/4 276/3/4
f 275/8/4 257/8/4 276/8/4
f 257/3/4 268/3/4 276/3/4
f 269/8/4 259/8/4 277/8/4
f 276/3/4 269/3/4 277/3/4
f 259/3/4 260/3/4 278/3/4
f 277/8/4 259/8/4 278/8/4
f 260/8/4 261/8/4 279/8/4
f 278/3/4 260/3/4 279/3/4
f 279/8/4 261/8/4 280/8/4
f 281/7/4 282/7/4 283/7/4
f 283/7/4 282/7/4 284/7/4
f 285/7/4 286/7/4 289/7/4
f 286/1/4 287/1/4 290/1/4
f 289/7/4 286/7/4 290/7/4
f 287/7/4 288/7/4 291/7/4
f 290/1/4 287/1/4 291/1/4
f 291/7/4 288/7/4 292/7/4
f 293/7/4 294/7/4 295/7/4
f 295/7/4 294/7/4 296/7/4
f 296/7/4 294/7/4 297/7/4
f 297/7/4 294/7/4 298/7/4
f 299/7/4 300/7/4 301/7/4
f 301/7/4 300/7/4 302/7/4
f 303/7/4 304/7/4 305/7/4
f 305/7/4 304/7/4 306/7/4
f 306/7/4 304/7/4 307/7/4
f 307/7/4 304/7/4 308/7/4
f 308/7/4 304/7/4 309/7/4
f 309/7/4 304/7/4 310/7/4
f 309/1/4 310/1/4 311/1/4
f 311/1/4 310/1/4 312/1/4
f 303/7/4 305/7/4 313/7/4
f 311/7/4 312/7/4 316/7/4
f 314/7/4 315/7/4 317/7/4
f 315/7/4 316/7/4 317/7/4
f 303/7/4 313/7/4 317/7/4
f 313/7/4 314/7/4 317/7/4
f 316/7/4 312/7/4 318/7/4
f 317/7/4 316/7/4 318/7/4
f 319/7/4 320/7/4 322/7/4
f 320/1/4 321/1/4 322/1/4
f 322/1/4 321/1/4 323/1/4
f 319/7/4 322/7/4 324/7/4
f 322/7/4 323/7/4 324/7/4
f 324/7/4 323/7/4 325/7/4
f 319/7/4 324/7/4 326/7/4
f 324/1/4 325/1/4 326/1/4
f 325/7/4 323/7/4 327/7/4
f 326/1/4 325/1/4 327/1/4
f 327/7/4 323/7/4 328/7/4
f 328/7/4 323/7/4 329/7/4
f 326/7/4 327/7/4 330/7/4
f 327/7/4 328/7/4 330/7/4
f 328/1/4 329/1/4 330/1/4
f 329/7/4 323/7/4 331/7/4
f 330/1/4 329/1/4 331/1/4
f 330/7/4 331/7/4 332/7/4
f 331/7/4 323/7/4 332/7/4
f 332/7/4 323/7/4 333/7/4
f 319/7/4 326/7/4 334/7/4
f 326/7/4 330/7/4 334/7/4
f 330/7/4 332/7/4 334/7/4
f 332/1/4 333/1/4 335/1/4
f 334/7/4 332/7/4 335/7/4
f 333/7/4 323/7/4 336/7/4
f 335/1/4 333/1/4 336/1/4
f 336/7/4 323/7/4 337/7/4
f 341/8/5 339/8/5 338/8/5
f 342/3/5 340/3/5 339/3/5
f 342/8/5 339/8/5 341/8/5
f 343/3/5 340/3/5 342/3/5
f 347/1/5 345/1/5 344/1/5
f 348/7/5 346/7/5 345/7/5
f 348/1/5 345/1/5 347/1/5
f 349/7/5 346/7/5 348/7/5
f 350/7/5 346/7/5 349/7/5
f 351/7/5 348/7/5 347/7/5
f 351/7/5 349/7/5 348/7/5
f 352/7/5 346/7/5 350/7/5
f 353/7/5 351/7/5 347/7/5
f 353/7/5 352/7/5 351/7/5
f 354/7/5 346/7/5 352/7/5
f 354/7/5 352/7/5 353/7/5
f 357/7/5 356/7/5 355/7/5
f 358/7/5 356/7/5 357/7/5
f 359/7/5 357/7/5 355/7/5
f 360/7/5 357/7/5 359/7/5
f 361/7/5 357/7/5 360/7/5
f 362/1/5 358/1/5 357/1/5
f 362/7/5 357/7/5 361/7/5
f 363/1/5 358/1/5 362/1/5
f 364/7/5 359/7/5 355/7/5
f 365/7/5 364/7/5 355/7/5
f 366/7/5 364/7/5 365/7/5
f 367/1/5 366/1/5 365/1/5
f 368/7/5 364/7/5 366/7/5
f 368/1/5 366/1/5 367/1/5
f 369/7/5 364/7/5 368/7/5
f 370/7/5 363/7/5 362/7/5
f 370/7/5 362/7/5 361/7/5
f 371/7/5 369/7/5 368/7/5
f 371/7/5 370/7/5 369/7/5
f 371/7/5 368/7/5 367/7/5
f 372/7/5 363/7/5 370/7/5
f 372/7/5 370/7/5 371/7/5
f 377/7/5 374/7/5 373/7/5
f 378/1/5 375/1/5 374/1/5
f 378/7/5 374/7/5 377/7/5
f 379/7/5 376/7/5 375/7/5
f 379/1/5 375/1/5 378/1/5
f 380/7/5 376/7/5 379/7/5
f 385/7/5 384/7/5 383/7/5
f 386/7/5 382/7/5 381/7/5
f 387/7/5 386/7/5 381/7/5
f 388/7/5 387/7/5 381/7/5
f 389/7/5 387/7/5 388/7/5
f 390/7/5 384/7/5 385/7/5
f 391/7/5 384/7/5 390/7/5
f 394/7/5 393/7/5 392/7/5
f 395/7/5 393/7/5 394/7/5
f 396/7/6 397/7/6 398/7/6
f 398/7/6 397/7/6 399/7/6
f 402/7/6 403/7/6 404/7/6
f 404/7/6 403/7/6 405/7/6
f 400/7/6 401/7/6 406/7/6
f 406/7/6 401/7/6 407/7/6
f 406/1/6 407/1/6 408/1/6
f 408/1/6 407/1/6 409/1/6
f 408/7/6 409/7/6 410/7/6
f 410/7/6 409/7/6 411/7/6
f 405/7/6 403/7/6 412/7/6
f 412/7/6 403/7/6 413/7/6
f 414/1/6 415/1/6 419/1/6
f 417/7/6 418/7/6 420/7/6
f 419/1/6 415/1/6 420/1/6
f 415/7/6 416/7/6 420/7/6
f 416/7/6 417/7/6 420/7/6
f 420/7/6 418/7/6 421/7/6
f 422/7/6 423/7/6 424/7/6
f 424/7/6 423/7/6 425/7/6
f 425/7/6 423/7/6 426/7/6
f 426/7/6 423/7/6 427/7/6
f 426/1/6 427/1/6 428/1/6
f 428/1/6 427/1/6 429/1/6
f 422/7/6 424/7/6 430/7/6
f 428/7/6 429/7/6 433/7/6
f 422/7/6 430/7/6 434/7/6
f 430/7/6 431/7/6 434/7/6
f 431/1/6 432/1/6 435/1/6
f 434/7/6 431/7/6 435/7/6
f 432/7/6 433/7/6 436/7/6
f 435/1/6 432/1/6 436/1/6
f 433/7/6 429/7/6 437/7/6
f 436/7/6 433/7/6 437/7/6
f 438/7/6 439/7/6 440/7/6
f 440/7/6 439/7/6 441/7/6
f 438/7/6 440/7/6 442/7/6
f 440/1/6 441/1/6 442/1/6
f 441/7/6 439/7/6 443/7/6
f 442/1/6 441/1/6 443/1/6
f 438/7/6 442/7/6 444/7/6
f 442/7/6 443/7/6 444/7/6
f 444/7/6 443/7/6 445/7/6
f 438/7/6 444/7/6 446/7/6
f 444/1/6 445/1/6 446/1/6
f 445/7/6 443/7/6 447/7/6
f 446/1/6 445/1/6 447/1/6
f 438/7/6 446/7/6 448/7/6
f 446/7/6 447/7/6 448/7/6
f 443/7/6 439/7/6 449/7/6
f 448/7/6 447/7/6 449/7/6
f 447/7/6 443/7/6 449/7/6
