# MagicaVoxel @ Ephtracy

# group
g Wooden_Spikes

# material
mtllib Wooden_Spikes.mtl
usemtl palette

# normals
vn -1 0 0
vn 1 0 0
vn 0 0 1
vn 0 0 -1
vn 0 -1 0
vn 0 1 0

# texcoords
vt 0.369141 0.5
vt 0.373047 0.5
vt 0.904297 0.5
vt 0.908203 0.5

# verts
v -2.5 0 2.5
v -2.5 0 1.5
v -2.5 0 0.5
v -2.5 0 -2.5
v -2.5 1 2.5
v -2.5 1 1.5
v -2.5 1 0.5
v -2.5 1 -0.5
v -2.5 1 -2.5
v -2.5 4 0.5
v -2.5 4 -0.5
v -1.5 1 -1.5
v -1.5 1 -2.5
v -1.5 2 -1.5
v -1.5 2 -2.5
v -1.5 3 -1.5
v -1.5 3 -2.5
v -0.5 1 2.5
v -0.5 1 1.5
v -0.5 1 0.5
v -0.5 1 -0.5
v -0.5 4 2.5
v -0.5 4 1.5
v -0.5 5 0.5
v -0.5 5 -0.5
v 1.5 1 1.5
v 1.5 1 0.5
v 1.5 1 -0.5
v 1.5 1 -1.5
v 1.5 2 -0.5
v 1.5 2 -1.5
v 1.5 3 1.5
v 1.5 3 0.5
v 1.5 4 -0.5
v 1.5 4 -1.5
v -1.5 1 0.5
v -1.5 1 -0.5
v -1.5 4 0.5
v -1.5 4 -0.5
v -0.5 1 -1.5
v -0.5 1 -2.5
v -0.5 2 -1.5
v -0.5 2 -2.5
v -0.5 3 -1.5
v -0.5 3 -2.5
v 0.5 1 2.5
v 0.5 1 1.5
v 0.5 1 0.5
v 0.5 1 -0.5
v 0.5 4 2.5
v 0.5 4 1.5
v 0.5 5 0.5
v 0.5 5 -0.5
v 2.5 0 2.5
v 2.5 0 1.5
v 2.5 0 -2.5
v 2.5 1 2.5
v 2.5 1 1.5
v 2.5 1 0.5
v 2.5 1 -0.5
v 2.5 1 -1.5
v 2.5 1 -2.5
v 2.5 2 -0.5
v 2.5 2 -1.5
v 2.5 3 1.5
v 2.5 3 0.5
v 2.5 4 -0.5
v 2.5 4 -1.5
v -2.5 0 2.5
v -2.5 1 2.5
v -1.5 0 2.5
v -1.5 1 2.5
v -0.5 1 2.5
v -0.5 4 2.5
v 0.5 1 2.5
v 0.5 4 2.5
v 1.5 0 2.5
v 1.5 1 2.5
v 2.5 0 2.5
v 2.5 1 2.5
v 1.5 1 1.5
v 1.5 3 1.5
v 2.5 1 1.5
v 2.5 3 1.5
v -2.5 1 0.5
v -2.5 4 0.5
v -1.5 1 0.5
v -1.5 4 0.5
v -0.5 1 0.5
v -0.5 5 0.5
v 0.5 1 0.5
v 0.5 5 0.5
v 1.5 1 -0.5
v 1.5 2 -0.5
v 1.5 4 -0.5
v 2.5 1 -0.5
v 2.5 2 -0.5
v 2.5 4 -0.5
v -1.5 1 -1.5
v -1.5 2 -1.5
v -1.5 3 -1.5
v -0.5 1 -1.5
v -0.5 2 -1.5
v -0.5 3 -1.5
v -0.5 1 1.5
v -0.5 4 1.5
v 0.5 1 1.5
v 0.5 4 1.5
v 1.5 1 0.5
v 1.5 3 0.5
v 2.5 1 0.5
v 2.5 3 0.5
v -2.5 1 -0.5
v -2.5 4 -0.5
v -1.5 1 -0.5
v -1.5 4 -0.5
v -0.5 1 -0.5
v -0.5 5 -0.5
v 0.5 1 -0.5
v 0.5 5 -0.5
v 1.5 1 -1.5
v 1.5 2 -1.5
v 1.5 4 -1.5
v 2.5 1 -1.5
v 2.5 2 -1.5
v 2.5 4 -1.5
v -2.5 0 -2.5
v -2.5 1 -2.5
v -1.5 0 -2.5
v -1.5 1 -2.5
v -1.5 2 -2.5
v -1.5 3 -2.5
v -0.5 0 -2.5
v -0.5 1 -2.5
v -0.5 2 -2.5
v -0.5 3 -2.5
v 0.5 0 -2.5
v 0.5 1 -2.5
v 2.5 0 -2.5
v 2.5 1 -2.5
v -2.5 0 2.5
v -1.5 0 2.5
v 1.5 0 2.5
v 2.5 0 2.5
v -2.5 0 1.5
v -1.5 0 1.5
v -0.5 0 1.5
v 0.5 0 1.5
v 1.5 0 1.5
v 2.5 0 1.5
v -2.5 0 0.5
v -1.5 0 0.5
v -0.5 0 0.5
v 0.5 0 0.5
v 1.5 0 0.5
v -0.5 0 -0.5
v 0.5 0 -0.5
v 1.5 0 -0.5
v 0.5 0 -1.5
v 1.5 0 -1.5
v -2.5 0 -2.5
v -1.5 0 -2.5
v -0.5 0 -2.5
v 0.5 0 -2.5
v 2.5 0 -2.5
v -2.5 1 2.5
v -1.5 1 2.5
v -0.5 1 2.5
v 0.5 1 2.5
v 1.5 1 2.5
v 2.5 1 2.5
v -2.5 1 1.5
v -1.5 1 1.5
v -0.5 1 1.5
v 0.5 1 1.5
v 1.5 1 1.5
v 2.5 1 1.5
v -2.5 1 0.5
v -1.5 1 0.5
v -0.5 1 0.5
v 0.5 1 0.5
v 1.5 1 0.5
v 2.5 1 0.5
v -2.5 1 -0.5
v -1.5 1 -0.5
v -0.5 1 -0.5
v 0.5 1 -0.5
v 1.5 1 -0.5
v 2.5 1 -0.5
v -1.5 1 -1.5
v -0.5 1 -1.5
v 0.5 1 -1.5
v 1.5 1 -1.5
v 2.5 1 -1.5
v -2.5 1 -2.5
v -1.5 1 -2.5
v -0.5 1 -2.5
v 0.5 1 -2.5
v 2.5 1 -2.5
v 1.5 3 1.5
v 2.5 3 1.5
v 1.5 3 0.5
v 2.5 3 0.5
v -1.5 3 -1.5
v -0.5 3 -1.5
v -1.5 3 -2.5
v -0.5 3 -2.5
v -0.5 4 2.5
v 0.5 4 2.5
v -0.5 4 1.5
v 0.5 4 1.5
v -2.5 4 0.5
v -1.5 4 0.5
v -2.5 4 -0.5
v -1.5 4 -0.5
v 1.5 4 -0.5
v 2.5 4 -0.5
v 1.5 4 -1.5
v 2.5 4 -1.5
v -0.5 5 0.5
v 0.5 5 0.5
v -0.5 5 -0.5
v 0.5 5 -0.5

# faces
f 5/3/1 2/3/1 1/3/1
f 6/4/1 3/4/1 2/4/1
f 6/3/1 2/3/1 5/3/1
f 7/3/1 4/3/1 3/3/1
f 7/4/1 3/4/1 6/4/1
f 8/3/1 4/3/1 7/3/1
f 9/3/1 4/3/1 8/3/1
f 10/1/1 8/1/1 7/1/1
f 11/1/1 8/1/1 10/1/1
f 14/2/1 13/2/1 12/2/1
f 15/2/1 13/2/1 14/2/1
f 16/1/1 15/1/1 14/1/1
f 17/1/1 15/1/1 16/1/1
f 22/1/1 19/1/1 18/1/1
f 23/1/1 19/1/1 22/1/1
f 24/1/1 21/1/1 20/1/1
f 25/1/1 21/1/1 24/1/1
f 30/2/1 29/2/1 28/2/1
f 31/2/1 29/2/1 30/2/1
f 32/1/1 27/1/1 26/1/1
f 33/1/1 27/1/1 32/1/1
f 34/1/1 31/1/1 30/1/1
f 35/1/1 31/1/1 34/1/1
f 36/1/2 37/1/2 38/1/2
f 38/1/2 37/1/2 39/1/2
f 40/2/2 41/2/2 42/2/2
f 42/2/2 41/2/2 43/2/2
f 42/1/2 43/1/2 44/1/2
f 44/1/2 43/1/2 45/1/2
f 46/1/2 47/1/2 50/1/2
f 50/1/2 47/1/2 51/1/2
f 48/1/2 49/1/2 52/1/2
f 52/1/2 49/1/2 53/1/2
f 54/3/2 55/3/2 57/3/2
f 55/4/2 56/4/2 58/4/2
f 57/3/2 55/3/2 58/3/2
f 58/4/2 56/4/2 59/4/2
f 59/4/2 56/4/2 60/4/2
f 60/4/2 56/4/2 61/4/2
f 61/4/2 56/4/2 62/4/2
f 60/2/2 61/2/2 63/2/2
f 63/2/2 61/2/2 64/2/2
f 58/1/2 59/1/2 65/1/2
f 65/1/2 59/1/2 66/1/2
f 63/1/2 64/1/2 67/1/2
f 67/1/2 64/1/2 68/1/2
f 71/3/3 70/3/3 69/3/3
f 72/3/3 70/3/3 71/3/3
f 73/4/3 72/4/3 71/4/3
f 75/4/3 73/4/3 71/4/3
f 75/1/3 74/1/3 73/1/3
f 76/1/3 74/1/3 75/1/3
f 77/4/3 75/4/3 71/4/3
f 78/4/3 75/4/3 77/4/3
f 79/3/3 78/3/3 77/3/3
f 80/3/3 78/3/3 79/3/3
f 83/1/3 82/1/3 81/1/3
f 84/1/3 82/1/3 83/1/3
f 87/1/3 86/1/3 85/1/3
f 88/1/3 86/1/3 87/1/3
f 91/1/3 90/1/3 89/1/3
f 92/1/3 90/1/3 91/1/3
f 96/2/3 94/2/3 93/2/3
f 97/1/3 95/1/3 94/1/3
f 97/2/3 94/2/3 96/2/3
f 98/1/3 95/1/3 97/1/3
f 102/2/3 100/2/3 99/2/3
f 103/1/3 101/1/3 100/1/3
f 103/2/3 100/2/3 102/2/3
f 104/1/3 101/1/3 103/1/3
f 105/1/4 106/1/4 107/1/4
f 107/1/4 106/1/4 108/1/4
f 109/1/4 110/1/4 111/1/4
f 111/1/4 110/1/4 112/1/4
f 113/1/4 114/1/4 115/1/4
f 115/1/4 114/1/4 116/1/4
f 117/1/4 118/1/4 119/1/4
f 119/1/4 118/1/4 120/1/4
f 121/2/4 122/2/4 124/2/4
f 122/1/4 123/1/4 125/1/4
f 124/2/4 122/2/4 125/2/4
f 125/1/4 123/1/4 126/1/4
f 127/3/4 128/3/4 129/3/4
f 129/3/4 128/3/4 130/3/4
f 129/4/4 130/4/4 133/4/4
f 130/2/4 131/2/4 134/2/4
f 133/4/4 130/4/4 134/4/4
f 131/1/4 132/1/4 135/1/4
f 134/2/4 131/2/4 135/2/4
f 135/1/4 132/1/4 136/1/4
f 133/3/4 134/3/4 137/3/4
f 137/3/4 134/3/4 138/3/4
f 137/4/4 138/4/4 139/4/4
f 139/4/4 138/4/4 140/4/4
f 145/3/5 142/3/5 141/3/5
f 146/4/5 143/4/5 142/4/5
f 146/3/5 142/3/5 145/3/5
f 147/4/5 143/4/5 146/4/5
f 148/4/5 143/4/5 147/4/5
f 149/3/5 144/3/5 143/3/5
f 149/4/5 143/4/5 148/4/5
f 150/3/5 144/3/5 149/3/5
f 151/4/5 146/4/5 145/4/5
f 152/3/5 147/3/5 146/3/5
f 152/4/5 146/4/5 151/4/5
f 153/4/5 148/4/5 147/4/5
f 153/3/5 147/3/5 152/3/5
f 154/3/5 149/3/5 148/3/5
f 154/4/5 148/4/5 153/4/5
f 155/4/5 150/4/5 149/4/5
f 155/3/5 149/3/5 154/3/5
f 156/4/5 153/4/5 152/4/5
f 156/1/5 154/1/5 153/1/5
f 157/4/5 155/4/5 154/4/5
f 157/1/5 154/1/5 156/1/5
f 158/4/5 150/4/5 155/4/5
f 158/4/5 155/4/5 157/4/5
f 159/3/5 157/3/5 156/3/5
f 159/3/5 158/3/5 157/3/5
f 160/4/5 150/4/5 158/4/5
f 160/3/5 158/3/5 159/3/5
f 161/3/5 152/3/5 151/3/5
f 162/4/5 156/4/5 152/4/5
f 162/3/5 152/3/5 161/3/5
f 163/3/5 159/3/5 156/3/5
f 163/4/5 156/4/5 162/4/5
f 164/4/5 160/4/5 159/4/5
f 164/3/5 159/3/5 163/3/5
f 165/4/5 150/4/5 160/4/5
f 165/4/5 160/4/5 164/4/5
f 166/3/6 167/3/6 172/3/6
f 167/4/6 168/4/6 173/4/6
f 172/3/6 167/3/6 173/3/6
f 173/4/6 168/4/6 174/4/6
f 169/4/6 170/4/6 175/4/6
f 170/3/6 171/3/6 176/3/6
f 175/4/6 170/4/6 176/4/6
f 176/3/6 171/3/6 177/3/6
f 172/4/6 173/4/6 178/4/6
f 173/3/6 174/3/6 179/3/6
f 178/4/6 173/4/6 179/4/6
f 174/4/6 175/4/6 180/4/6
f 179/3/6 174/3/6 180/3/6
f 175/3/6 176/3/6 181/3/6
f 180/4/6 175/4/6 181/4/6
f 181/3/6 176/3/6 182/3/6
f 179/4/6 180/4/6 185/4/6
f 185/4/6 180/4/6 186/4/6
f 182/4/6 183/4/6 187/4/6
f 181/4/6 182/4/6 187/4/6
f 187/4/6 183/4/6 188/4/6
f 188/4/6 183/4/6 189/4/6
f 185/4/6 186/4/6 190/4/6
f 184/3/6 185/3/6 190/3/6
f 187/3/6 188/3/6 191/3/6
f 190/4/6 186/4/6 191/4/6
f 186/3/6 187/3/6 191/3/6
f 191/3/6 188/3/6 192/3/6
f 192/3/6 188/3/6 193/3/6
f 184/3/6 190/3/6 195/3/6
f 195/3/6 190/3/6 196/3/6
f 191/3/6 192/3/6 197/3/6
f 193/4/6 194/4/6 198/4/6
f 197/3/6 192/3/6 198/3/6
f 192/4/6 193/4/6 198/4/6
f 198/4/6 194/4/6 199/4/6
f 200/1/6 201/1/6 202/1/6
f 202/1/6 201/1/6 203/1/6
f 204/1/6 205/1/6 206/1/6
f 206/1/6 205/1/6 207/1/6
f 208/1/6 209/1/6 210/1/6
f 210/1/6 209/1/6 211/1/6
f 212/1/6 213/1/6 214/1/6
f 214/1/6 213/1/6 215/1/6
f 216/1/6 217/1/6 218/1/6
f 218/1/6 217/1/6 219/1/6
f 220/1/6 221/1/6 222/1/6
f 222/1/6 221/1/6 223/1/6
