# MagicaVoxel @ Ephtracy

# group
g mouse

# material
mtllib mouse.mtl
usemtl palette

# normals
vn -1 0 0
vn 1 0 0
vn 0 0 1
vn 0 0 -1
vn 0 -1 0
vn 0 1 0

# texcoords
vt 0.0566406 0.5
vt 0.978516 0.5
vt 0.982422 0.5
vt 0.994141 0.5

# verts
v -2.5 0 2.5
v -2.5 0 1.5
v -2.5 0 -1.5
v -2.5 0 -2.5
v -2.5 1 2.5
v -2.5 1 1.5
v -2.5 1 -1.5
v -2.5 1 -2.5
v -2.5 2 3.5
v -2.5 2 2.5
v -2.5 2 0.5
v -2.5 2 -1.5
v -2.5 2 -2.5
v -2.5 3 2.5
v -2.5 3 1.5
v -2.5 3 0.5
v -2.5 3 -1.5
v -2.5 3 -2.5
v -2.5 4 3.5
v -2.5 4 2.5
v -1.5 1 5.5
v -1.5 1 2.5
v -1.5 1 -3.5
v -1.5 1 -5.5
v -1.5 2 5.5
v -1.5 2 4.5
v -1.5 2 3.5
v -1.5 2 2.5
v -1.5 2 -3.5
v -1.5 2 -5.5
v -1.5 3 5.5
v -1.5 3 4.5
v -1.5 3 3.5
v -0.5 1 -2.5
v -0.5 1 -3.5
v -0.5 2 -2.5
v -0.5 2 -3.5
v 0.5 0 2.5
v 0.5 0 1.5
v 0.5 0 -1.5
v 0.5 0 -2.5
v 0.5 1 2.5
v 0.5 1 1.5
v 0.5 1 -1.5
v 0.5 1 -2.5
v 0.5 3 3.5
v 0.5 3 2.5
v 0.5 4 3.5
v 0.5 4 2.5
v -0.5 0 2.5
v -0.5 0 1.5
v -0.5 0 -1.5
v -0.5 0 -2.5
v -0.5 1 2.5
v -0.5 1 1.5
v -0.5 1 -1.5
v -0.5 1 -2.5
v -0.5 1 -4.5
v -0.5 1 -5.5
v -0.5 2 -4.5
v -0.5 2 -5.5
v -0.5 3 3.5
v -0.5 3 2.5
v -0.5 4 3.5
v -0.5 4 2.5
v 0.5 1 -2.5
v 0.5 1 -4.5
v 0.5 2 -2.5
v 0.5 2 -4.5
v 1.5 1 5.5
v 1.5 1 2.5
v 1.5 2 5.5
v 1.5 2 4.5
v 1.5 2 3.5
v 1.5 2 2.5
v 1.5 3 5.5
v 1.5 3 4.5
v 1.5 3 3.5
v 2.5 0 2.5
v 2.5 0 1.5
v 2.5 0 -1.5
v 2.5 0 -2.5
v 2.5 1 2.5
v 2.5 1 1.5
v 2.5 1 -1.5
v 2.5 1 -2.5
v 2.5 2 3.5
v 2.5 2 2.5
v 2.5 2 1.5
v 2.5 2 -1.5
v 2.5 3 2.5
v 2.5 3 1.5
v 2.5 3 -2.5
v 2.5 4 3.5
v 2.5 4 2.5
v -1.5 1 5.5
v -1.5 2 5.5
v -1.5 3 5.5
v -0.5 1 5.5
v -0.5 2 5.5
v -0.5 3 5.5
v 0.5 1 5.5
v 0.5 2 5.5
v 0.5 3 5.5
v 1.5 1 5.5
v 1.5 2 5.5
v 1.5 3 5.5
v -2.5 2 3.5
v -2.5 4 3.5
v -1.5 2 3.5
v -1.5 3 3.5
v -0.5 3 3.5
v -0.5 4 3.5
v 0.5 3 3.5
v 0.5 4 3.5
v 1.5 2 3.5
v 1.5 3 3.5
v 2.5 2 3.5
v 2.5 4 3.5
v -2.5 0 2.5
v -2.5 1 2.5
v -2.5 2 2.5
v -1.5 1 2.5
v -1.5 2 2.5
v -0.5 0 2.5
v -0.5 1 2.5
v 0.5 0 2.5
v 0.5 1 2.5
v 1.5 1 2.5
v 1.5 2 2.5
v 2.5 0 2.5
v 2.5 1 2.5
v 2.5 2 2.5
v -2.5 0 -1.5
v -2.5 1 -1.5
v -1.5 1 -1.5
v -0.5 0 -1.5
v -0.5 1 -1.5
v 0.5 0 -1.5
v 0.5 1 -1.5
v 1.5 1 -1.5
v 2.5 0 -1.5
v 2.5 1 -1.5
v -1.5 1 -3.5
v -1.5 2 -3.5
v -0.5 1 -3.5
v -0.5 2 -3.5
v -2.5 3 2.5
v -2.5 4 2.5
v -0.5 3 2.5
v -0.5 4 2.5
v 0.5 3 2.5
v 0.5 4 2.5
v 1.5 3 2.5
v 2.5 3 2.5
v 2.5 4 2.5
v -2.5 0 1.5
v -2.5 1 1.5
v -1.5 1 1.5
v -0.5 0 1.5
v -0.5 1 1.5
v 0.5 0 1.5
v 0.5 1 1.5
v 1.5 1 1.5
v 2.5 0 1.5
v 2.5 1 1.5
v -2.5 0 -2.5
v -2.5 1 -2.5
v -2.5 2 -2.5
v -2.5 3 -2.5
v -1.5 2 -2.5
v -1.5 3 -2.5
v -0.5 0 -2.5
v -0.5 1 -2.5
v -0.5 2 -2.5
v -0.5 3 -2.5
v 0.5 0 -2.5
v 0.5 1 -2.5
v 0.5 2 -2.5
v 0.5 3 -2.5
v 2.5 0 -2.5
v 2.5 1 -2.5
v 2.5 3 -2.5
v -0.5 1 -4.5
v -0.5 2 -4.5
v 0.5 1 -4.5
v 0.5 2 -4.5
v -1.5 1 -5.5
v -1.5 2 -5.5
v -0.5 1 -5.5
v -0.5 2 -5.5
v -2.5 0 2.5
v -0.5 0 2.5
v 0.5 0 2.5
v 2.5 0 2.5
v -2.5 0 1.5
v -0.5 0 1.5
v 0.5 0 1.5
v 2.5 0 1.5
v -2.5 0 -1.5
v -0.5 0 -1.5
v 0.5 0 -1.5
v 2.5 0 -1.5
v -2.5 0 -2.5
v -0.5 0 -2.5
v 0.5 0 -2.5
v 2.5 0 -2.5
v -1.5 1 5.5
v -0.5 1 5.5
v 0.5 1 5.5
v 1.5 1 5.5
v -0.5 1 4.5
v 0.5 1 4.5
v -1.5 1 2.5
v -0.5 1 2.5
v 0.5 1 2.5
v 1.5 1 2.5
v -2.5 1 1.5
v -1.5 1 1.5
v -0.5 1 1.5
v 0.5 1 1.5
v 1.5 1 1.5
v 2.5 1 1.5
v -2.5 1 -1.5
v -1.5 1 -1.5
v -0.5 1 -1.5
v 0.5 1 -1.5
v 1.5 1 -1.5
v 2.5 1 -1.5
v -0.5 1 -2.5
v 0.5 1 -2.5
v -1.5 1 -3.5
v -0.5 1 -3.5
v -0.5 1 -4.5
v 0.5 1 -4.5
v -1.5 1 -5.5
v -0.5 1 -5.5
v -2.5 2 3.5
v -1.5 2 3.5
v 1.5 2 3.5
v 2.5 2 3.5
v -2.5 2 2.5
v -1.5 2 2.5
v 1.5 2 2.5
v 2.5 2 2.5
v -0.5 2 -2.5
v 0.5 2 -2.5
v -1.5 2 -3.5
v -0.5 2 -3.5
v -0.5 2 -4.5
v 0.5 2 -4.5
v -1.5 2 -5.5
v -0.5 2 -5.5
v -1.5 3 5.5
v -0.5 3 5.5
v 0.5 3 5.5
v 1.5 3 5.5
v -1.5 3 4.5
v -0.5 3 4.5
v 0.5 3 4.5
v 1.5 3 4.5
v -1.5 3 3.5
v -0.5 3 3.5
v 0.5 3 3.5
v 1.5 3 3.5
v -2.5 3 2.5
v -0.5 3 2.5
v 0.5 3 2.5
v 1.5 3 2.5
v 2.5 3 2.5
v -2.5 3 1.5
v -1.5 3 1.5
v 1.5 3 1.5
v 2.5 3 1.5
v -2.5 3 0.5
v -1.5 3 0.5
v -0.5 3 0.5
v 0.5 3 0.5
v 1.5 3 0.5
v -1.5 3 -0.5
v -0.5 3 -0.5
v 0.5 3 -0.5
v 1.5 3 -0.5
v -2.5 3 -1.5
v -1.5 3 -1.5
v -0.5 3 -1.5
v 0.5 3 -1.5
v -2.5 3 -2.5
v -1.5 3 -2.5
v -0.5 3 -2.5
v 0.5 3 -2.5
v 2.5 3 -2.5
v -2.5 4 3.5
v -0.5 4 3.5
v 0.5 4 3.5
v 2.5 4 3.5
v -2.5 4 2.5
v -0.5 4 2.5
v 0.5 4 2.5
v 2.5 4 2.5

# faces
f 5/1/1 2/1/1 1/1/1
f 6/1/1 2/1/1 5/1/1
f 7/1/1 4/1/1 3/1/1
f 8/1/1 4/1/1 7/1/1
f 10/2/1 6/2/1 5/2/1
f 11/3/1 7/3/1 6/3/1
f 12/2/1 8/2/1 7/2/1
f 12/3/1 7/3/1 11/3/1
f 13/2/1 8/2/1 12/2/1
f 14/3/1 10/3/1 9/3/1
f 14/2/1 6/2/1 10/2/1
f 15/3/1 11/3/1 6/3/1
f 15/2/1 6/2/1 14/2/1
f 16/2/1 12/2/1 11/2/1
f 16/3/1 11/3/1 15/3/1
f 17/3/1 13/3/1 12/3/1
f 17/2/1 12/2/1 16/2/1
f 18/3/1 13/3/1 17/3/1
f 19/3/1 14/3/1 9/3/1
f 20/3/1 14/3/1 19/3/1
f 25/2/1 22/2/1 21/2/1
f 26/2/1 22/2/1 25/2/1
f 27/2/1 22/2/1 26/2/1
f 28/2/1 22/2/1 27/2/1
f 29/1/1 24/1/1 23/1/1
f 30/1/1 24/1/1 29/1/1
f 31/4/1 26/4/1 25/4/1
f 32/2/1 27/2/1 26/2/1
f 32/4/1 26/4/1 31/4/1
f 33/2/1 27/2/1 32/2/1
f 36/1/1 35/1/1 34/1/1
f 37/1/1 35/1/1 36/1/1
f 42/1/1 39/1/1 38/1/1
f 43/1/1 39/1/1 42/1/1
f 44/1/1 41/1/1 40/1/1
f 45/1/1 41/1/1 44/1/1
f 48/3/1 47/3/1 46/3/1
f 49/3/1 47/3/1 48/3/1
f 50/1/2 51/1/2 54/1/2
f 54/1/2 51/1/2 55/1/2
f 52/1/2 53/1/2 56/1/2
f 56/1/2 53/1/2 57/1/2
f 58/1/2 59/1/2 60/1/2
f 60/1/2 59/1/2 61/1/2
f 62/3/2 63/3/2 64/3/2
f 64/3/2 63/3/2 65/3/2
f 66/1/2 67/1/2 68/1/2
f 68/1/2 67/1/2 69/1/2
f 70/2/2 71/2/2 72/2/2
f 72/2/2 71/2/2 73/2/2
f 73/2/2 71/2/2 74/2/2
f 74/2/2 71/2/2 75/2/2
f 72/4/2 73/4/2 76/4/2
f 73/2/2 74/2/2 77/2/2
f 76/4/2 73/4/2 77/4/2
f 77/2/2 74/2/2 78/2/2
f 79/1/2 80/1/2 83/1/2
f 83/1/2 80/1/2 84/1/2
f 81/1/2 82/1/2 85/1/2
f 85/1/2 82/1/2 86/1/2
f 83/2/2 84/2/2 88/2/2
f 84/3/2 85/3/2 89/3/2
f 88/2/2 84/2/2 89/2/2
f 85/2/2 86/2/2 90/2/2
f 89/3/2 85/3/2 90/3/2
f 87/3/2 88/3/2 91/3/2
f 88/3/2 89/3/2 91/3/2
f 89/2/2 90/2/2 92/2/2
f 91/3/2 89/3/2 92/3/2
f 90/2/2 86/2/2 93/2/2
f 92/2/2 90/2/2 93/2/2
f 87/3/2 91/3/2 94/3/2
f 94/3/2 91/3/2 95/3/2
f 99/2/3 97/2/3 96/2/3
f 100/4/3 98/4/3 97/4/3
f 100/2/3 97/2/3 99/2/3
f 101/4/3 98/4/3 100/4/3
f 102/1/3 100/1/3 99/1/3
f 103/2/3 101/2/3 100/2/3
f 103/1/3 100/1/3 102/1/3
f 104/2/3 101/2/3 103/2/3
f 105/2/3 103/2/3 102/2/3
f 106/4/3 104/4/3 103/4/3
f 106/2/3 103/2/3 105/2/3
f 107/4/3 104/4/3 106/4/3
f 110/3/3 109/3/3 108/3/3
f 111/3/3 109/3/3 110/3/3
f 112/3/3 109/3/3 111/3/3
f 113/3/3 109/3/3 112/3/3
f 117/3/3 115/3/3 114/3/3
f 118/3/3 117/3/3 116/3/3
f 119/3/3 115/3/3 117/3/3
f 119/3/3 117/3/3 118/3/3
f 123/1/3 121/1/3 120/1/3
f 123/2/3 122/2/3 121/2/3
f 124/2/3 122/2/3 123/2/3
f 125/1/3 123/1/3 120/1/3
f 126/1/3 123/1/3 125/1/3
f 129/1/3 128/1/3 127/1/3
f 131/1/3 129/1/3 127/1/3
f 132/2/3 130/2/3 129/2/3
f 132/1/3 129/1/3 131/1/3
f 133/2/3 130/2/3 132/2/3
f 136/1/3 135/1/3 134/1/3
f 137/1/3 136/1/3 134/1/3
f 138/1/3 136/1/3 137/1/3
f 141/1/3 140/1/3 139/1/3
f 142/1/3 141/1/3 139/1/3
f 143/1/3 141/1/3 142/1/3
f 146/1/3 145/1/3 144/1/3
f 147/1/3 145/1/3 146/1/3
f 148/3/4 149/3/4 150/3/4
f 150/3/4 149/3/4 151/3/4
f 152/3/4 153/3/4 154/3/4
f 154/3/4 153/3/4 155/3/4
f 155/3/4 153/3/4 156/3/4
f 157/1/4 158/1/4 159/1/4
f 157/1/4 159/1/4 160/1/4
f 160/1/4 159/1/4 161/1/4
f 162/1/4 163/1/4 164/1/4
f 162/1/4 164/1/4 165/1/4
f 165/1/4 164/1/4 166/1/4
f 168/2/4 169/2/4 171/2/4
f 169/3/4 170/3/4 171/3/4
f 171/3/4 170/3/4 172/3/4
f 167/1/4 168/1/4 173/1/4
f 168/2/4 171/2/4 174/2/4
f 173/1/4 168/1/4 174/1/4
f 171/2/4 172/2/4 174/2/4
f 174/2/4 172/2/4 175/2/4
f 175/2/4 172/2/4 176/2/4
f 175/3/4 176/3/4 179/3/4
f 179/3/4 176/3/4 180/3/4
f 177/1/4 178/1/4 181/1/4
f 178/2/4 179/2/4 182/2/4
f 181/1/4 178/1/4 182/1/4
f 179/2/4 180/2/4 182/2/4
f 182/2/4 180/2/4 183/2/4
f 184/1/4 185/1/4 186/1/4
f 186/1/4 185/1/4 187/1/4
f 188/1/4 189/1/4 190/1/4
f 190/1/4 189/1/4 191/1/4
f 196/1/5 193/1/5 192/1/5
f 197/1/5 193/1/5 196/1/5
f 198/1/5 195/1/5 194/1/5
f 199/1/5 195/1/5 198/1/5
f 204/1/5 201/1/5 200/1/5
f 205/1/5 201/1/5 204/1/5
f 206/1/5 203/1/5 202/1/5
f 207/1/5 203/1/5 206/1/5
f 212/2/5 209/2/5 208/2/5
f 212/1/5 210/1/5 209/1/5
f 213/2/5 211/2/5 210/2/5
f 213/1/5 210/1/5 212/1/5
f 214/2/5 212/2/5 208/2/5
f 214/2/5 213/2/5 212/2/5
f 215/2/5 213/2/5 214/2/5
f 216/2/5 211/2/5 213/2/5
f 216/2/5 213/2/5 215/2/5
f 217/2/5 211/2/5 216/2/5
f 220/2/5 216/2/5 215/2/5
f 221/2/5 216/2/5 220/2/5
f 224/3/5 219/3/5 218/3/5
f 225/2/5 222/2/5 221/2/5
f 225/3/5 219/3/5 224/3/5
f 225/2/5 220/2/5 219/2/5
f 225/2/5 221/2/5 220/2/5
f 226/2/5 222/2/5 225/2/5
f 227/2/5 222/2/5 226/2/5
f 228/3/5 223/3/5 222/3/5
f 228/2/5 222/2/5 227/2/5
f 229/3/5 223/3/5 228/3/5
f 230/2/5 227/2/5 226/2/5
f 231/2/5 227/2/5 230/2/5
f 233/1/5 231/1/5 230/1/5
f 234/1/5 231/1/5 233/1/5
f 234/1/5 233/1/5 232/1/5
f 235/1/5 231/1/5 234/1/5
f 236/1/5 234/1/5 232/1/5
f 237/1/5 234/1/5 236/1/5
f 242/3/5 239/3/5 238/3/5
f 243/3/5 239/3/5 242/3/5
f 244/3/5 241/3/5 240/3/5
f 245/3/5 241/3/5 244/3/5
f 246/1/6 247/1/6 249/1/6
f 249/1/6 247/1/6 250/1/6
f 248/1/6 249/1/6 250/1/6
f 250/1/6 247/1/6 251/1/6
f 248/1/6 250/1/6 252/1/6
f 252/1/6 250/1/6 253/1/6
f 254/4/6 255/4/6 258/4/6
f 255/2/6 256/2/6 259/2/6
f 258/4/6 255/4/6 259/4/6
f 256/4/6 257/4/6 260/4/6
f 259/2/6 256/2/6 260/2/6
f 260/4/6 257/4/6 261/4/6
f 258/2/6 259/2/6 262/2/6
f 259/2/6 260/2/6 262/2/6
f 260/2/6 261/2/6 262/2/6
f 262/2/6 261/2/6 263/2/6
f 263/2/6 261/2/6 264/2/6
f 264/2/6 261/2/6 265/2/6
f 263/2/6 264/2/6 267/2/6
f 267/2/6 264/2/6 268/2/6
f 268/2/6 269/2/6 271/2/6
f 267/2/6 268/2/6 271/2/6
f 266/2/6 267/2/6 271/2/6
f 271/2/6 269/2/6 272/2/6
f 269/3/6 270/3/6 273/3/6
f 272/2/6 269/2/6 273/2/6
f 273/3/6 270/3/6 274/3/6
f 271/3/6 272/3/6 275/3/6
f 272/2/6 273/2/6 276/2/6
f 275/3/6 272/3/6 276/3/6
f 273/2/6 274/2/6 276/2/6
f 276/2/6 274/2/6 277/2/6
f 277/2/6 274/2/6 278/2/6
f 278/2/6 274/2/6 279/2/6
f 275/2/6 276/2/6 280/2/6
f 276/3/6 277/3/6 280/3/6
f 277/2/6 278/2/6 281/2/6
f 280/3/6 277/3/6 281/3/6
f 278/3/6 279/3/6 282/3/6
f 281/2/6 278/2/6 282/2/6
f 279/2/6 274/2/6 283/2/6
f 282/3/6 279/3/6 283/3/6
f 281/2/6 282/2/6 284/2/6
f 280/2/6 281/2/6 284/2/6
f 282/2/6 283/2/6 284/2/6
f 275/2/6 280/2/6 284/2/6
f 284/2/6 283/2/6 285/2/6
f 285/2/6 283/2/6 286/2/6
f 286/2/6 283/2/6 287/2/6
f 284/3/6 285/3/6 288/3/6
f 285/2/6 286/2/6 289/2/6
f 288/3/6 285/3/6 289/3/6
f 286/3/6 287/3/6 290/3/6
f 289/2/6 286/2/6 290/2/6
f 287/2/6 283/2/6 291/2/6
f 290/3/6 287/3/6 291/3/6
f 283/2/6 274/2/6 292/2/6
f 291/2/6 283/2/6 292/2/6
f 293/3/6 294/3/6 297/3/6
f 297/3/6 294/3/6 298/3/6
f 295/3/6 296/3/6 299/3/6
f 299/3/6 296/3/6 300/3/6
